G04*
G04 #@! TF.GenerationSoftware,Altium Limited,Altium Designer,21.8.1 (53)*
G04*
G04 Layer_Physical_Order=2*
G04 Layer_Color=16711680*
%FSLAX25Y25*%
%MOIN*%
G70*
G04*
G04 #@! TF.SameCoordinates,FDEF47F6-3C76-4419-9831-72FB296F16BA*
G04*
G04*
G04 #@! TF.FilePolarity,Positive*
G04*
G01*
G75*
%ADD25C,0.06299*%
%ADD26C,0.01968*%
%ADD27C,0.02362*%
%ADD28C,0.02756*%
%ADD29R,0.12480X0.12480*%
G36*
X753636Y132554D02*
X753638Y132461D01*
Y131530D01*
X753997Y130662D01*
X754662Y129997D01*
X755530Y129638D01*
X756470D01*
X757338Y129997D01*
X758003Y130662D01*
X758362Y131530D01*
Y132461D01*
X758364Y132554D01*
X758725Y132910D01*
X758850Y132890D01*
X760669Y132300D01*
X762374Y131434D01*
X763923Y130312D01*
X765279Y128963D01*
X766407Y127418D01*
X767280Y125717D01*
X767474Y125128D01*
X767475Y125120D01*
X767194Y124575D01*
X767151Y124549D01*
X766599Y124401D01*
X765767Y123920D01*
X765088Y123241D01*
X764607Y122409D01*
X764358Y121481D01*
Y120519D01*
X764607Y119591D01*
X765088Y118759D01*
X765767Y118080D01*
X766599Y117599D01*
X767173Y117445D01*
X767191Y117436D01*
X767487Y116885D01*
X767486Y116868D01*
X767289Y116302D01*
X766413Y114592D01*
X765285Y113045D01*
X763930Y111693D01*
X762380Y110570D01*
X761681Y110214D01*
X761181Y110521D01*
Y110834D01*
X760925Y111452D01*
X760452Y111925D01*
X759834Y112181D01*
X759166D01*
X758548Y111925D01*
X758075Y111452D01*
X757819Y110834D01*
Y110166D01*
X758075Y109548D01*
X758122Y109501D01*
X757948Y108967D01*
X756963Y108811D01*
X755049Y108810D01*
X754027Y108971D01*
X753854Y109505D01*
X753939Y109590D01*
X754195Y110207D01*
Y110876D01*
X753939Y111494D01*
X753466Y111967D01*
X752848Y112223D01*
X752179D01*
X751561Y111967D01*
X751088Y111494D01*
X750832Y110876D01*
Y110514D01*
X750332Y110207D01*
X749629Y110564D01*
X748079Y111686D01*
X746722Y113037D01*
X745593Y114582D01*
X744719Y116285D01*
X744526Y116872D01*
X744525Y116879D01*
X744808Y117427D01*
X744849Y117451D01*
X745401Y117599D01*
X746233Y118080D01*
X746912Y118759D01*
X747393Y119591D01*
X747642Y120519D01*
Y121481D01*
X747393Y122409D01*
X746912Y123241D01*
X746233Y123920D01*
X745401Y124401D01*
X744862Y124545D01*
X744816Y124573D01*
X744534Y125124D01*
X744534Y125124D01*
X744725Y125729D01*
X745598Y127426D01*
X746727Y128969D01*
X748083Y130318D01*
X749633Y131438D01*
X751339Y132304D01*
X753159Y132892D01*
X753276Y132911D01*
X753636Y132554D01*
D02*
G37*
%LPC*%
G36*
X762740Y127740D02*
X756250D01*
Y121250D01*
X762740D01*
Y127740D01*
D02*
G37*
G36*
X755750D02*
X749260D01*
Y121250D01*
X755750D01*
Y127740D01*
D02*
G37*
G36*
X762740Y120750D02*
X756250D01*
Y114260D01*
X762740D01*
Y120750D01*
D02*
G37*
G36*
X755750D02*
X749260D01*
Y114260D01*
X755750D01*
Y120750D01*
D02*
G37*
%LPD*%
D25*
X768008Y121000D02*
D03*
X743992D02*
D03*
D26*
X766200Y116300D02*
D03*
X747500Y126000D02*
D03*
D27*
X752514Y110542D02*
D03*
X759500Y110500D02*
D03*
X756000Y110000D02*
D03*
D28*
Y132000D02*
D03*
D29*
Y121000D02*
D03*
M02*
