G04*
G04 #@! TF.GenerationSoftware,Altium Limited,Altium Designer,21.8.1 (53)*
G04*
G04 Layer_Physical_Order=2*
G04 Layer_Color=16711680*
%FSLAX25Y25*%
%MOIN*%
G70*
G04*
G04 #@! TF.SameCoordinates,80343765-EA46-4D53-8CBE-610E64C5E09E*
G04*
G04*
G04 #@! TF.FilePolarity,Positive*
G04*
G01*
G75*
G04:AMPARAMS|DCode=26|XSize=11.81mil|YSize=51.18mil|CornerRadius=2.95mil|HoleSize=0mil|Usage=FLASHONLY|Rotation=90.000|XOffset=0mil|YOffset=0mil|HoleType=Round|Shape=RoundedRectangle|*
%AMROUNDEDRECTD26*
21,1,0.01181,0.04528,0,0,90.0*
21,1,0.00591,0.05118,0,0,90.0*
1,1,0.00591,0.02264,0.00295*
1,1,0.00591,0.02264,-0.00295*
1,1,0.00591,-0.02264,-0.00295*
1,1,0.00591,-0.02264,0.00295*
%
%ADD26ROUNDEDRECTD26*%
G04:AMPARAMS|DCode=27|XSize=27.56mil|YSize=60.63mil|CornerRadius=6.89mil|HoleSize=0mil|Usage=FLASHONLY|Rotation=90.000|XOffset=0mil|YOffset=0mil|HoleType=Round|Shape=RoundedRectangle|*
%AMROUNDEDRECTD27*
21,1,0.02756,0.04685,0,0,90.0*
21,1,0.01378,0.06063,0,0,90.0*
1,1,0.01378,0.02343,0.00689*
1,1,0.01378,0.02343,-0.00689*
1,1,0.01378,-0.02343,-0.00689*
1,1,0.01378,-0.02343,0.00689*
%
%ADD27ROUNDEDRECTD27*%
%ADD28C,0.06299*%
%ADD29C,0.01968*%
%ADD30C,0.02362*%
%ADD31R,0.12480X0.03543*%
G36*
X760669Y132300D02*
X762374Y131434D01*
X763923Y130312D01*
X765279Y128963D01*
X766407Y127418D01*
X767280Y125717D01*
X767474Y125128D01*
X767475Y125120D01*
X767194Y124575D01*
X767151Y124549D01*
X766599Y124401D01*
X765767Y123920D01*
X765088Y123241D01*
X764607Y122409D01*
X764358Y121481D01*
Y120519D01*
X764607Y119591D01*
X765088Y118759D01*
X765767Y118080D01*
X766599Y117599D01*
X767173Y117445D01*
X767191Y117436D01*
X767487Y116885D01*
X767486Y116868D01*
X767289Y116302D01*
X766413Y114592D01*
X765285Y113045D01*
X763930Y111693D01*
X762380Y110570D01*
X760674Y109702D01*
X759476Y109313D01*
X759038Y109696D01*
X758998Y109900D01*
X758822Y110163D01*
X758835Y110678D01*
X759011Y110941D01*
X759073Y111251D01*
Y111297D01*
X755998D01*
Y111547D01*
D01*
Y111297D01*
X752923D01*
Y111251D01*
X752985Y110941D01*
X753161Y110678D01*
X753148Y110163D01*
X752972Y109900D01*
X752934Y109706D01*
X752493Y109323D01*
X751336Y109697D01*
X749629Y110564D01*
X748079Y111686D01*
X746722Y113037D01*
X745593Y114582D01*
X744719Y116285D01*
X744526Y116872D01*
X744525Y116879D01*
X744808Y117427D01*
X744849Y117451D01*
X745401Y117599D01*
X746233Y118080D01*
X746912Y118759D01*
X747393Y119591D01*
X747642Y120519D01*
Y121481D01*
X747393Y122409D01*
X746912Y123241D01*
X746233Y123920D01*
X745401Y124401D01*
X744862Y124545D01*
X744816Y124573D01*
X744534Y125124D01*
X744534Y125124D01*
X744725Y125729D01*
X745598Y127426D01*
X746727Y128969D01*
X748083Y130318D01*
X749633Y131438D01*
X751339Y132304D01*
X751952Y132502D01*
X752435Y132132D01*
Y131083D01*
X752527Y130619D01*
X752790Y130226D01*
X753183Y129963D01*
X753647Y129870D01*
X754550D01*
X754652Y129769D01*
X755520Y129409D01*
X756460D01*
X757328Y129769D01*
X757429Y129870D01*
X758332D01*
X758796Y129963D01*
X759190Y130226D01*
X759452Y130619D01*
X759545Y131083D01*
Y132139D01*
X760024Y132509D01*
X760669Y132300D01*
D02*
G37*
%LPC*%
G36*
X762740Y118772D02*
X756250D01*
Y116750D01*
X762740D01*
Y118772D01*
D02*
G37*
G36*
X755750D02*
X749260D01*
Y116750D01*
X755750D01*
Y118772D01*
D02*
G37*
G36*
X762740Y116250D02*
X756250D01*
Y114228D01*
X762740D01*
Y116250D01*
D02*
G37*
G36*
X755750D02*
X749260D01*
Y114228D01*
X755750D01*
Y116250D01*
D02*
G37*
G36*
X758262Y112653D02*
X756248D01*
Y111797D01*
X759073D01*
Y111842D01*
X759011Y112152D01*
X758835Y112415D01*
X758572Y112591D01*
X758262Y112653D01*
D02*
G37*
G36*
X755748D02*
X753734D01*
X753424Y112591D01*
X753161Y112415D01*
X752985Y112152D01*
X752923Y111842D01*
Y111797D01*
X755748D01*
Y112653D01*
D02*
G37*
%LPD*%
D26*
X755998Y111547D02*
D03*
X755985Y109294D02*
D03*
D27*
X755990Y131772D02*
D03*
D28*
X768008Y121000D02*
D03*
X743992D02*
D03*
D29*
X766200Y116300D02*
D03*
X747500Y126000D02*
D03*
D30*
X761000Y111000D02*
D03*
D31*
X756000Y116500D02*
D03*
M02*
