G04*
G04 #@! TF.GenerationSoftware,Altium Limited,Altium Designer,21.8.1 (53)*
G04*
G04 Layer_Color=8388736*
%FSLAX25Y25*%
%MOIN*%
G70*
G04*
G04 #@! TF.SameCoordinates,A130C7F3-DB7E-4E4B-B478-6415564EED2A*
G04*
G04*
G04 #@! TF.FilePolarity,Negative*
G04*
G01*
G75*
%ADD19R,0.07690X0.03359*%
%ADD20R,0.04737X0.14580*%
%ADD21R,0.06706X0.14186*%
%ADD22R,0.03162X0.03556*%
%ADD23R,0.02690X0.03280*%
%ADD24R,0.03320X0.03359*%
%ADD25C,0.09855*%
%ADD26C,0.06509*%
%ADD27C,0.09800*%
D19*
X70772Y144500D02*
D03*
Y149500D02*
D03*
Y154500D02*
D03*
Y159500D02*
D03*
X42228D02*
D03*
Y154500D02*
D03*
Y149500D02*
D03*
Y144500D02*
D03*
D20*
X59937Y172000D02*
D03*
X52063D02*
D03*
D21*
X69189Y193850D02*
D03*
X42811D02*
D03*
D22*
X80500Y159165D02*
D03*
Y154835D02*
D03*
X34000Y159165D02*
D03*
Y154835D02*
D03*
D23*
X80500Y150500D02*
D03*
X82468Y144555D02*
D03*
X78531D02*
D03*
D24*
X34000Y144228D02*
D03*
Y147772D02*
D03*
D25*
X15555Y146095D02*
D03*
Y158299D02*
D03*
X97445D02*
D03*
Y146095D02*
D03*
D26*
X61811Y201500D02*
D03*
X50000D02*
D03*
D27*
X34000Y201000D02*
D03*
X77500D02*
D03*
M02*
