G04*
G04 #@! TF.GenerationSoftware,Altium Limited,Altium Designer,21.8.1 (53)*
G04*
G04 Layer_Physical_Order=1*
G04 Layer_Color=255*
%FSLAX25Y25*%
%MOIN*%
G70*
G04*
G04 #@! TF.SameCoordinates,4E720258-5011-4E52-9F4D-A001BE52E9BA*
G04*
G04*
G04 #@! TF.FilePolarity,Positive*
G04*
G01*
G75*
%ADD12C,0.01000*%
%ADD13R,0.01575X0.01831*%
%ADD14R,0.06890X0.02559*%
%ADD15R,0.03937X0.13780*%
%ADD16R,0.05906X0.13386*%
%ADD17R,0.02362X0.02756*%
%ADD18R,0.02520X0.02559*%
%ADD28C,0.09055*%
%ADD29C,0.05709*%
%ADD30C,0.09000*%
%ADD31C,0.01968*%
D12*
X77500Y140000D02*
X78925Y141425D01*
Y145012D01*
X82075D02*
X82213Y144874D01*
Y142050D02*
Y144874D01*
Y142050D02*
X82500Y141762D01*
Y141500D02*
Y141762D01*
X60969Y173383D02*
X62406Y174820D01*
X63820D02*
X74500Y185500D01*
X62406Y174820D02*
X63820D01*
X60969Y171968D02*
Y173383D01*
X16525Y159269D02*
X20997D01*
X15555Y158299D02*
X16525Y159269D01*
X20997D02*
X49850Y188122D01*
X75971Y186984D02*
X80016D01*
X81500Y185500D01*
Y173500D02*
Y185500D01*
X46500Y173000D02*
X52063D01*
X53063Y172000D01*
X97445Y152122D02*
Y158299D01*
X15555Y146095D02*
Y158299D01*
X26500Y161944D02*
X51850Y187294D01*
X26500Y146500D02*
Y161944D01*
X28772Y144228D02*
X34000D01*
X26500Y146500D02*
X28772Y144228D01*
X51850Y187658D02*
X52764Y188573D01*
X51850Y187294D02*
Y187658D01*
X49850Y188122D02*
Y190350D01*
X52500Y193000D01*
X52764Y188573D02*
Y188835D01*
X60937Y176921D02*
Y187353D01*
Y172000D02*
Y176921D01*
X58900Y189390D02*
X60937Y187353D01*
X74500Y185513D02*
X75971Y186984D01*
X74500Y185500D02*
Y185513D01*
X96701Y158299D02*
X97445D01*
X81500Y173500D02*
X96701Y158299D01*
X77000Y168000D02*
Y184500D01*
Y168000D02*
X80508Y164492D01*
Y160043D02*
Y164492D01*
X34000Y162500D02*
X35110Y163610D01*
X55890D01*
X56500Y163000D01*
Y144000D02*
Y163000D01*
Y144000D02*
X60500Y140000D01*
X37500Y156617D02*
Y158500D01*
X34290Y155125D02*
X36095D01*
X37284Y156313D02*
Y156401D01*
X36095Y155125D02*
X37284Y156313D01*
X34000Y154835D02*
X34290Y155125D01*
X37284Y156401D02*
X37500Y156617D01*
X38500Y159500D02*
X42228D01*
X37500Y158500D02*
X38500Y159500D01*
X80500Y150500D02*
Y154835D01*
X34000Y159165D02*
Y162500D01*
X60500Y140000D02*
X77500D01*
X70756Y159516D02*
Y163315D01*
Y159516D02*
X70772Y159500D01*
X33922Y147694D02*
X34000Y147772D01*
X30223Y147694D02*
X33922D01*
X42092Y144364D02*
X42228Y144500D01*
X34136Y144364D02*
X42092D01*
X34000Y144228D02*
X34136Y144364D01*
D13*
X78925Y145012D02*
D03*
X82075D02*
D03*
X80500Y149988D02*
D03*
D14*
X70772Y144500D02*
D03*
Y149500D02*
D03*
Y154500D02*
D03*
Y159500D02*
D03*
X42228D02*
D03*
Y154500D02*
D03*
Y149500D02*
D03*
Y144500D02*
D03*
D15*
X59937Y172000D02*
D03*
X52063D02*
D03*
D16*
X69189Y193850D02*
D03*
X42811D02*
D03*
D17*
X80500Y159165D02*
D03*
Y154835D02*
D03*
X34000Y159165D02*
D03*
Y154835D02*
D03*
D18*
Y144228D02*
D03*
Y147772D02*
D03*
D28*
X97445Y146095D02*
D03*
Y158299D02*
D03*
X15555D02*
D03*
Y146095D02*
D03*
D29*
X61811Y201500D02*
D03*
X50000D02*
D03*
D30*
X34000Y201000D02*
D03*
X77500D02*
D03*
D31*
X46500Y173000D02*
D03*
X52764Y188835D02*
D03*
X52500Y193000D02*
D03*
X77000Y184500D02*
D03*
X82500Y141500D02*
D03*
X70756Y163315D02*
D03*
X30223Y147694D02*
D03*
X58900Y189390D02*
D03*
M02*
