G04*
G04 #@! TF.GenerationSoftware,Altium Limited,Altium Designer,21.8.1 (53)*
G04*
G04 Layer_Physical_Order=2*
G04 Layer_Color=16711680*
%FSLAX25Y25*%
%MOIN*%
G70*
G04*
G04 #@! TF.SameCoordinates,84084700-972C-4F56-8257-0BF9F4D08F50*
G04*
G04*
G04 #@! TF.FilePolarity,Positive*
G04*
G01*
G75*
%ADD11C,0.01000*%
%ADD24C,0.09055*%
%ADD25C,0.05709*%
%ADD26C,0.09000*%
%ADD27C,0.01968*%
%ADD28C,0.70079*%
%ADD29R,0.03937X0.03150*%
%ADD30R,0.02756X0.05906*%
%ADD31R,0.05000X0.02500*%
D11*
X51150Y189169D02*
X58900D01*
X47000Y189000D02*
X47024Y189024D01*
Y193354D02*
X47047Y193378D01*
X47024Y189024D02*
Y193354D01*
X47047Y193378D02*
Y194610D01*
X56500Y165000D02*
X77500Y186000D01*
Y189900D01*
X56500Y152000D02*
Y165000D01*
X73050Y193050D02*
X77450D01*
X73000Y193000D02*
X73050Y193050D01*
X77500Y193100D02*
Y201000D01*
X77450Y193050D02*
X77500Y193100D01*
X34000Y194086D02*
Y201000D01*
Y194086D02*
X35586Y192500D01*
X46169D01*
X47047Y193378D01*
X58879Y189411D02*
X58900Y189390D01*
X58879Y189411D02*
Y194589D01*
X58858Y194610D02*
X58879Y194589D01*
D24*
X97445Y146095D02*
D03*
Y158299D02*
D03*
X15555D02*
D03*
Y146095D02*
D03*
D25*
X61811Y201500D02*
D03*
X50000D02*
D03*
D26*
X34000Y201000D02*
D03*
X77500D02*
D03*
D27*
X51150Y189169D02*
D03*
X82500Y141500D02*
D03*
X47000Y189000D02*
D03*
X73000Y193000D02*
D03*
X70756Y163315D02*
D03*
X30223Y147694D02*
D03*
X58900Y189390D02*
D03*
D28*
X56500Y152000D02*
D03*
D29*
X41535Y197366D02*
D03*
Y205634D02*
D03*
X70276D02*
D03*
Y197366D02*
D03*
D30*
X64764Y194610D02*
D03*
X58858D02*
D03*
X47047D02*
D03*
D31*
X77500Y193100D02*
D03*
Y189900D02*
D03*
M02*
