G04*
G04 #@! TF.GenerationSoftware,Altium Limited,Altium Designer,21.8.1 (53)*
G04*
G04 Layer_Physical_Order=2*
G04 Layer_Color=16711680*
%FSLAX25Y25*%
%MOIN*%
G70*
G04*
G04 #@! TF.SameCoordinates,05FCC086-5B51-48AF-9E35-0E87B06DB297*
G04*
G04*
G04 #@! TF.FilePolarity,Positive*
G04*
G01*
G75*
%ADD19C,0.01000*%
%ADD21C,0.00591*%
%ADD22C,0.07087*%
G04:AMPARAMS|DCode=23|XSize=27.56mil|YSize=60.63mil|CornerRadius=6.89mil|HoleSize=0mil|Usage=FLASHONLY|Rotation=90.000|XOffset=0mil|YOffset=0mil|HoleType=Round|Shape=RoundedRectangle|*
%AMROUNDEDRECTD23*
21,1,0.02756,0.04685,0,0,90.0*
21,1,0.01378,0.06063,0,0,90.0*
1,1,0.01378,0.02343,0.00689*
1,1,0.01378,0.02343,-0.00689*
1,1,0.01378,-0.02343,-0.00689*
1,1,0.01378,-0.02343,0.00689*
%
%ADD23ROUNDEDRECTD23*%
G04:AMPARAMS|DCode=24|XSize=19.68mil|YSize=59.06mil|CornerRadius=4.92mil|HoleSize=0mil|Usage=FLASHONLY|Rotation=90.000|XOffset=0mil|YOffset=0mil|HoleType=Round|Shape=RoundedRectangle|*
%AMROUNDEDRECTD24*
21,1,0.01968,0.04921,0,0,90.0*
21,1,0.00984,0.05906,0,0,90.0*
1,1,0.00984,0.02461,0.00492*
1,1,0.00984,0.02461,-0.00492*
1,1,0.00984,-0.02461,-0.00492*
1,1,0.00984,-0.02461,0.00492*
%
%ADD24ROUNDEDRECTD24*%
%ADD25C,0.02362*%
%ADD26R,0.02362X0.04724*%
%ADD27R,0.02362X0.02165*%
%ADD28R,0.03937X0.01181*%
%ADD29R,0.02756X0.02362*%
%ADD30R,0.02362X0.02756*%
%ADD31R,0.02520X0.02559*%
%ADD32R,0.01575X0.01831*%
%ADD33C,0.00984*%
D19*
X705118Y111750D02*
Y119921D01*
Y111750D02*
X705953Y110915D01*
Y110547D02*
Y110915D01*
X706000Y119921D02*
Y122636D01*
X706647Y123284D01*
X711336D01*
X712240Y122379D01*
X715393D01*
X701500Y119780D02*
Y123000D01*
X703941Y125441D02*
X710000D01*
X701500Y123000D02*
X703941Y125441D01*
X715393Y122379D02*
X716000Y121772D01*
X707396Y132565D02*
Y133604D01*
X709402Y130559D02*
X709500D01*
X707396Y132565D02*
X709402Y130559D01*
X705500Y135500D02*
X707396Y133604D01*
D21*
X710835Y108335D02*
X712734Y110234D01*
X710445Y105861D02*
X710835Y106251D01*
X709455Y105861D02*
X710445D01*
X709116Y105522D02*
X709455Y105861D01*
X710835Y106251D02*
Y108335D01*
X712734Y110234D02*
X714951D01*
X718500Y107500D02*
X720505Y105495D01*
X722705D02*
X723000Y105200D01*
X720505Y105495D02*
X722705D01*
X718500Y107500D02*
Y109000D01*
X714951Y110234D02*
X717266D01*
X718500Y109000D01*
Y117500D02*
Y120905D01*
X719784Y103795D02*
X722705D01*
X717635Y105944D02*
X719784Y103795D01*
X715018Y105944D02*
X717635D01*
X729681Y106851D02*
X731000Y108171D01*
X726000Y104516D02*
Y106506D01*
X726346Y106851D02*
X729681D01*
X726000Y106506D02*
X726346Y106851D01*
X725279Y103795D02*
X726000Y104516D01*
X714944Y106018D02*
X715018Y105944D01*
X722705Y103795D02*
X723000Y103500D01*
X723295Y103795D02*
X725279D01*
X723000Y103500D02*
X723295Y103795D01*
X715000Y129640D02*
X715492Y130132D01*
X715838Y130165D02*
X721500D01*
X715492Y130132D02*
X715805D01*
X715000Y129512D02*
Y129640D01*
X715805Y130132D02*
X715838Y130165D01*
X716964Y134877D02*
X720768D01*
X716455Y134368D02*
X716964Y134877D01*
X713179Y134114D02*
X713425Y134360D01*
X712933Y133868D02*
X713179Y134114D01*
X712933Y133868D02*
X713933D01*
X712752Y126386D02*
X713638Y125500D01*
X713425Y134360D02*
Y134488D01*
X712805Y133868D02*
X712933D01*
X712008Y133071D02*
X712805Y133868D01*
X712008Y129008D02*
Y133071D01*
X717634Y121772D02*
X718500Y120905D01*
X716000Y121772D02*
X717634D01*
X715000D02*
X716000D01*
X718165Y125500D02*
X718248Y125417D01*
Y124252D02*
Y125417D01*
Y124252D02*
X719874Y122626D01*
Y120807D02*
Y122626D01*
X712000Y127335D02*
Y129000D01*
X713638Y125500D02*
X713835D01*
X712000Y127335D02*
X712752Y126583D01*
X712000Y129000D02*
X712008Y129008D01*
X712752Y126386D02*
Y126583D01*
X709339Y115339D02*
X711154D01*
X711717Y115902D01*
Y118609D02*
X713411Y120303D01*
X711717Y115902D02*
Y118609D01*
X709000Y115000D02*
X709339Y115339D01*
X724000Y118240D02*
Y120421D01*
X713411Y120303D02*
X713551D01*
X715000Y121752D01*
Y121772D01*
X719874Y120807D02*
X720760Y119921D01*
X718500Y117500D02*
X720000Y116000D01*
X721760D02*
X724000Y118240D01*
X720000Y116000D02*
X721760D01*
X724000Y120421D02*
X724500Y119921D01*
X723335Y124500D02*
X729500D01*
X722886Y124752D02*
X723083D01*
X729500Y124500D02*
X731000Y123000D01*
X723083Y124752D02*
X723335Y124500D01*
X722000Y125638D02*
Y125835D01*
Y125638D02*
X722886Y124752D01*
X731000Y108171D02*
Y123000D01*
D22*
X702992Y130000D02*
D03*
X727008D02*
D03*
D23*
X715000Y141000D02*
D03*
D24*
X714944Y106299D02*
D03*
X715000Y103500D02*
D03*
D25*
X705953Y110547D02*
D03*
X709116Y105522D02*
D03*
X709000Y115000D02*
D03*
X720768Y134877D02*
D03*
X705500Y135500D02*
D03*
D26*
X701378Y110079D02*
D03*
X708858D02*
D03*
Y119921D02*
D03*
X705118D02*
D03*
X701378D02*
D03*
X720760Y110079D02*
D03*
X724500D02*
D03*
X728240D02*
D03*
Y119921D02*
D03*
X724500D02*
D03*
X720760D02*
D03*
D27*
X709500Y125441D02*
D03*
Y130559D02*
D03*
D28*
X723000Y105200D02*
D03*
Y103500D02*
D03*
D29*
X712835Y125500D02*
D03*
X717165D02*
D03*
D30*
X721500Y125835D02*
D03*
Y130165D02*
D03*
D31*
X714951Y113777D02*
D03*
Y110234D02*
D03*
X715000Y121772D02*
D03*
Y118228D02*
D03*
D32*
X713425Y134488D02*
D03*
X716575D02*
D03*
X715000Y129512D02*
D03*
D33*
X723954Y110625D02*
Y113195D01*
X723377Y113772D02*
X723954Y113195D01*
Y110625D02*
X724500Y110079D01*
X714654Y113481D02*
X714945Y113772D01*
X723377D01*
X714654Y113481D02*
X714951Y113777D01*
X714358Y113185D02*
X714654Y113481D01*
X709740Y110079D02*
Y111260D01*
Y109868D02*
Y110079D01*
X715000Y113827D02*
Y118228D01*
X711666Y113185D02*
X714358D01*
X709740Y111260D02*
X711666Y113185D01*
X706500Y108020D02*
X707659Y109179D01*
X709051D01*
X709740Y109868D01*
X706500Y103926D02*
Y108020D01*
X707077Y103349D02*
X708216D01*
X708216Y103349D01*
X706500Y103926D02*
X707077Y103349D01*
X708216Y103349D02*
X713457D01*
X713561Y103246D01*
M02*
