G04*
G04 #@! TF.GenerationSoftware,Altium Limited,Altium Designer,21.8.1 (53)*
G04*
G04 Layer_Color=32896*
%FSLAX25Y25*%
%MOIN*%
G70*
G04*
G04 #@! TF.SameCoordinates,05FCC086-5B51-48AF-9E35-0E87B06DB297*
G04*
G04*
G04 #@! TF.FilePolarity,Positive*
G04*
G01*
G75*
%ADD10C,0.00394*%
%ADD21C,0.00591*%
%ADD41C,0.00787*%
D10*
X720106Y106394D02*
X718794D01*
X724606Y136034D02*
X724278Y136362D01*
X723622D01*
X723294Y136034D01*
Y135706D01*
X723622Y135378D01*
X723950D01*
X723622D01*
X723294Y135050D01*
Y134722D01*
X723622Y134394D01*
X724278D01*
X724606Y134722D01*
D21*
X718394Y122500D02*
G03*
X718394Y122500I-394J0D01*
G01*
X699894D02*
G03*
X699894Y122500I-394J0D01*
G01*
D41*
X699409Y117000D02*
X710827D01*
Y113819D02*
Y117000D01*
X699409Y113819D02*
X710827D01*
X699409D02*
Y117000D01*
X712638Y131803D02*
Y132197D01*
Y131803D02*
X717362D01*
Y132197D01*
X712638D02*
X717362D01*
X711654Y133575D02*
Y135406D01*
X718791Y116181D02*
X730209D01*
Y113819D02*
Y116181D01*
X718791Y113819D02*
X730209D01*
X718791D02*
Y116181D01*
M02*
