M48
;Layer_Color=9474304
;FILE_FORMAT=2:5
INCH,LZ
;TYPE=PLATED
T1F00S00C0.00591
T2F00S00C0.01181
T3F00S00C0.02756
T4F00S00C0.04724
%
T01
X0755259Y0066911
X0749679Y0080531
X075404Y0107565
X074846Y0121185
X078996
X079554Y0107565
X0791179Y0080531
X0796759Y0066911
T02
X0764238Y0068701
X0767295Y0071692
X0766077Y0112346
X076302Y0109355
X080452
X0807577Y0112346
X0808795Y0071692
X0805738Y0068701
T03
X0751112Y0084589
X0749893Y0125243
X0791393
X0792612Y0084589
T04
X0750045Y0068673
X0767027Y0085655
X0765809Y0126309
X0748827Y0109327
X0790327
X0807309Y0126309
X0808527Y0085655
X0791545Y0068673
M30
