G04*
G04 #@! TF.GenerationSoftware,Altium Limited,Altium Designer,21.8.1 (53)*
G04*
G04 Layer_Color=32896*
%FSLAX25Y25*%
%MOIN*%
G70*
G04*
G04 #@! TF.SameCoordinates,7148B44F-C07B-4FA7-92CD-32C68B6CDD5B*
G04*
G04*
G04 #@! TF.FilePolarity,Positive*
G04*
G01*
G75*
%ADD10C,0.00394*%
%ADD31C,0.00500*%
D10*
X795786Y125243D02*
X794395Y126634D01*
Y125707D01*
X793467D01*
X794859Y124315D01*
X794395Y123851D02*
X793003Y125243D01*
X793931Y124315D02*
X792771Y124083D01*
X793931Y124315D02*
X793699Y123155D01*
X793003Y122460D02*
X792771Y122692D01*
X792540Y122460D01*
X792771Y122228D01*
X793003Y122460D01*
X790452Y122692D02*
X789989Y122228D01*
X790220Y122460D01*
X791612Y121068D01*
X791844Y121300D01*
X791380Y120836D01*
X797004Y84589D02*
X795613Y85980D01*
Y85052D01*
X794685D01*
X796077Y83661D01*
X795613Y83197D02*
X794221Y84589D01*
X795149Y83661D02*
X793990Y83429D01*
X795149Y83661D02*
X794917Y82501D01*
X794221Y81806D02*
X793990Y82038D01*
X793758Y81806D01*
X793990Y81574D01*
X794221Y81806D01*
X791670Y82038D02*
X791207Y81574D01*
X791438Y81806D01*
X792830Y80414D01*
X793062Y80646D01*
X792598Y80182D01*
X755504Y84589D02*
X754113Y85980D01*
Y85052D01*
X753185D01*
X754577Y83661D01*
X754113Y83197D02*
X752722Y84589D01*
X753649Y83661D02*
X752490Y83429D01*
X753649Y83661D02*
X753417Y82501D01*
X752722Y81806D02*
X752490Y82038D01*
X752258Y81806D01*
X752490Y81574D01*
X752722Y81806D01*
X750170Y82038D02*
X749707Y81574D01*
X749938Y81806D01*
X751330Y80414D01*
X751562Y80646D01*
X751098Y80182D01*
X754286Y125243D02*
X752895Y126634D01*
Y125707D01*
X751967D01*
X753359Y124315D01*
X752895Y123851D02*
X751503Y125243D01*
X752431Y124315D02*
X751271Y124083D01*
X752431Y124315D02*
X752199Y123155D01*
X751503Y122460D02*
X751271Y122692D01*
X751040Y122460D01*
X751271Y122228D01*
X751503Y122460D01*
X748952Y122692D02*
X748489Y122228D01*
X748720Y122460D01*
X750112Y121068D01*
X750344Y121300D01*
X749880Y120836D01*
D31*
X785093Y113837D02*
X786569Y112362D01*
X793362Y105569D02*
X794837Y104094D01*
X802799Y131543D02*
X804274Y130067D01*
X811067Y123274D02*
X812543Y121799D01*
X801379Y130123D02*
X802799Y131543D01*
X796674Y131097D02*
X801379Y130123D01*
X795283Y132489D02*
X796674Y131097D01*
X784147Y121353D02*
X795283Y132489D01*
X784147Y121353D02*
X785539Y119962D01*
X786513Y115257D01*
X785093Y113837D02*
X786513Y115257D01*
X794837Y104094D02*
X796257Y105513D01*
X798874Y102896D01*
X813740Y117762D01*
X811123Y120379D02*
X813740Y117762D01*
X811123Y120379D02*
X812543Y121799D01*
X786311Y73183D02*
X787787Y71707D01*
X794580Y64915D02*
X796055Y63439D01*
X804017Y90889D02*
X805492Y89413D01*
X812285Y82620D02*
X813761Y81145D01*
X802597Y89469D02*
X804017Y90889D01*
X797893Y90443D02*
X802597Y89469D01*
X796501Y91835D02*
X797893Y90443D01*
X785365Y80699D02*
X796501Y91835D01*
X785365Y80699D02*
X786757Y79308D01*
X787731Y74603D01*
X786311Y73183D02*
X787731Y74603D01*
X796055Y63439D02*
X797475Y64859D01*
X800092Y62242D01*
X814958Y77108D01*
X812341Y79725D02*
X814958Y77108D01*
X812341Y79725D02*
X813761Y81145D01*
X743594Y113837D02*
X745069Y112362D01*
X751862Y105569D02*
X753337Y104094D01*
X761299Y131543D02*
X762774Y130067D01*
X769567Y123274D02*
X771043Y121799D01*
X759879Y130123D02*
X761299Y131543D01*
X755174Y131097D02*
X759879Y130123D01*
X753783Y132489D02*
X755174Y131097D01*
X742647Y121353D02*
X753783Y132489D01*
X742647Y121353D02*
X744039Y119962D01*
X745013Y115257D01*
X743594Y113837D02*
X745013Y115257D01*
X753337Y104094D02*
X754757Y105513D01*
X757374Y102896D01*
X772240Y117762D01*
X769623Y120379D02*
X772240Y117762D01*
X769623Y120379D02*
X771043Y121799D01*
X744811Y73183D02*
X746287Y71707D01*
X753080Y64915D02*
X754555Y63439D01*
X762517Y90889D02*
X763993Y89413D01*
X770785Y82620D02*
X772261Y81145D01*
X761097Y89469D02*
X762517Y90889D01*
X756392Y90443D02*
X761097Y89469D01*
X755001Y91835D02*
X756392Y90443D01*
X743865Y80699D02*
X755001Y91835D01*
X743865Y80699D02*
X745257Y79308D01*
X746231Y74603D01*
X744811Y73183D02*
X746231Y74603D01*
X754555Y63439D02*
X755975Y64859D01*
X758592Y62242D01*
X773458Y77108D01*
X770841Y79725D02*
X773458Y77108D01*
X770841Y79725D02*
X772261Y81145D01*
M02*
