G04*
G04 #@! TF.GenerationSoftware,Altium Limited,Altium Designer,21.8.1 (53)*
G04*
G04 Layer_Physical_Order=1*
G04 Layer_Color=255*
%FSLAX25Y25*%
%MOIN*%
G70*
G04*
G04 #@! TF.SameCoordinates,7148B44F-C07B-4FA7-92CD-32C68B6CDD5B*
G04*
G04*
G04 #@! TF.FilePolarity,Positive*
G04*
G01*
G75*
G04:AMPARAMS|DCode=12|XSize=39.37mil|YSize=15.75mil|CornerRadius=0mil|HoleSize=0mil|Usage=FLASHONLY|Rotation=135.000|XOffset=0mil|YOffset=0mil|HoleType=Round|Shape=Rectangle|*
%AMROTATEDRECTD12*
4,1,4,0.01949,-0.00835,0.00835,-0.01949,-0.01949,0.00835,-0.00835,0.01949,0.01949,-0.00835,0.0*
%
%ADD12ROTATEDRECTD12*%

G04:AMPARAMS|DCode=13|XSize=35.43mil|YSize=31.5mil|CornerRadius=0mil|HoleSize=0mil|Usage=FLASHONLY|Rotation=135.000|XOffset=0mil|YOffset=0mil|HoleType=Round|Shape=Rectangle|*
%AMROTATEDRECTD13*
4,1,4,0.02366,-0.00139,0.00139,-0.02366,-0.02366,0.00139,-0.00139,0.02366,0.02366,-0.00139,0.0*
%
%ADD13ROTATEDRECTD13*%

G04:AMPARAMS|DCode=14|XSize=23.62mil|YSize=19.68mil|CornerRadius=0mil|HoleSize=0mil|Usage=FLASHONLY|Rotation=135.000|XOffset=0mil|YOffset=0mil|HoleType=Round|Shape=Rectangle|*
%AMROTATEDRECTD14*
4,1,4,0.01531,-0.00139,0.00139,-0.01531,-0.01531,0.00139,-0.00139,0.01531,0.01531,-0.00139,0.0*
%
%ADD14ROTATEDRECTD14*%

G04:AMPARAMS|DCode=15|XSize=21.65mil|YSize=21.26mil|CornerRadius=0mil|HoleSize=0mil|Usage=FLASHONLY|Rotation=135.000|XOffset=0mil|YOffset=0mil|HoleType=Round|Shape=Rectangle|*
%AMROTATEDRECTD15*
4,1,4,0.01517,-0.00014,0.00014,-0.01517,-0.01517,0.00014,-0.00014,0.01517,0.01517,-0.00014,0.0*
%
%ADD15ROTATEDRECTD15*%

%ADD23C,0.00591*%
%ADD24C,0.01000*%
%ADD25C,0.07087*%
%ADD26C,0.02756*%
%ADD27C,0.02362*%
%ADD28C,0.01575*%
D12*
X801019Y111824D02*
D03*
X802829Y113633D02*
D03*
X804638Y115443D02*
D03*
X800078Y120003D02*
D03*
X798269Y118193D02*
D03*
X796459Y116384D02*
D03*
X802237Y71170D02*
D03*
X804047Y72979D02*
D03*
X805857Y74789D02*
D03*
X801297Y79349D02*
D03*
X799487Y77539D02*
D03*
X797678Y75730D02*
D03*
X760737Y71170D02*
D03*
X762547Y72979D02*
D03*
X764357Y74789D02*
D03*
X759796Y79349D02*
D03*
X757987Y77539D02*
D03*
X756178Y75730D02*
D03*
X754959Y116384D02*
D03*
X756769Y118193D02*
D03*
X758578Y120003D02*
D03*
X763138Y115443D02*
D03*
X761329Y113633D02*
D03*
X759519Y111824D02*
D03*
D13*
X797156Y123934D02*
D03*
X792702Y119480D02*
D03*
X798374Y83280D02*
D03*
X793920Y78826D02*
D03*
X756874Y83280D02*
D03*
X752420Y78826D02*
D03*
X751202Y119480D02*
D03*
X755656Y123934D02*
D03*
D14*
X805419Y120410D02*
D03*
X808481Y117348D02*
D03*
X802824Y123004D02*
D03*
X799762Y126067D02*
D03*
X791273Y116167D02*
D03*
X794335Y113105D02*
D03*
X792491Y75513D02*
D03*
X795553Y72451D02*
D03*
X804042Y82350D02*
D03*
X800980Y85413D02*
D03*
X806637Y79756D02*
D03*
X809699Y76693D02*
D03*
X765137Y79756D02*
D03*
X768199Y76693D02*
D03*
X762542Y82350D02*
D03*
X759480Y85413D02*
D03*
X750991Y75513D02*
D03*
X754053Y72451D02*
D03*
X758262Y126067D02*
D03*
X761324Y123004D02*
D03*
X752835Y113105D02*
D03*
X749773Y116167D02*
D03*
X766981Y117348D02*
D03*
X763919Y120410D02*
D03*
D15*
X799364Y108080D02*
D03*
X796858Y110585D02*
D03*
X800582Y67426D02*
D03*
X798076Y69931D02*
D03*
X759082Y67426D02*
D03*
X756576Y69931D02*
D03*
X755358Y110585D02*
D03*
X757864Y108080D02*
D03*
D23*
X790425Y122768D02*
G03*
X793978Y124626I968J2475D01*
G01*
X791643Y82114D02*
G03*
X795196Y83972I968J2475D01*
G01*
X750143Y82114D02*
G03*
X753696Y83972I968J2475D01*
G01*
X748925Y122768D02*
G03*
X752478Y124626I968J2475D01*
G01*
X799922Y108317D02*
X803482D01*
X799762Y126067D02*
X799901Y125927D01*
X797557Y127654D02*
X799145Y126067D01*
X799762D01*
X800169Y123317D02*
X800318Y123466D01*
X799578Y120503D02*
X799628Y120453D01*
X800169Y121789D02*
Y123317D01*
X799578Y121199D02*
X800169Y121789D01*
X800318Y123466D02*
Y124124D01*
X799901Y124541D02*
Y125927D01*
Y124541D02*
X800318Y124124D01*
X799578Y120503D02*
Y121199D01*
X789541Y115074D02*
X790179D01*
X790920Y115814D01*
X796159Y112966D02*
X796296Y113103D01*
X794474Y112966D02*
X796159D01*
X794335Y113105D02*
X794474Y112966D01*
X797259Y113103D02*
X797448Y112913D01*
X796296Y113103D02*
X797259D01*
X797448Y112913D02*
X799350Y111011D01*
Y108890D02*
Y111011D01*
Y108890D02*
X799922Y108317D01*
X787696Y118547D02*
X787886Y119992D01*
X787696Y117089D02*
Y118547D01*
Y117089D02*
X787722Y116894D01*
X789541Y115074D01*
X791099Y115994D02*
X791273Y116167D01*
X790920Y115814D02*
X791099Y115994D01*
X797006Y127654D02*
X797557D01*
X787886Y119992D02*
X788264Y121401D01*
X788360Y121633D01*
X793978Y124626D02*
X797006Y127654D01*
X788679Y122403D02*
X788724Y122512D01*
X788360Y121633D02*
X788679Y122403D01*
X788724Y122512D02*
X788980Y122768D01*
X790425D01*
X797514Y72449D02*
X798477D01*
X798666Y72259D01*
X797377Y72312D02*
X797514Y72449D01*
X795692Y72312D02*
X797377D01*
X795553Y72451D02*
X795692Y72312D01*
X801119Y83887D02*
Y85273D01*
X800363Y85413D02*
X800980D01*
X795196Y83972D02*
X798224Y87000D01*
X800980Y85413D02*
X801119Y85273D01*
X798776Y87000D02*
X800363Y85413D01*
X790198Y82114D02*
X791643D01*
X789942Y81858D02*
X790198Y82114D01*
X789482Y80747D02*
X789578Y80979D01*
X788914Y77893D02*
X789104Y79338D01*
X789897Y81749D02*
X789942Y81858D01*
X789578Y80979D02*
X789897Y81749D01*
X789104Y79338D02*
X789482Y80747D01*
X801387Y82663D02*
X801536Y82811D01*
X801387Y81135D02*
Y82663D01*
X801119Y83887D02*
X801536Y83470D01*
Y82811D02*
Y83470D01*
X788940Y76240D02*
X790759Y74420D01*
X792138Y75160D02*
X792317Y75340D01*
X792491Y75513D01*
X788914Y76435D02*
X788940Y76240D01*
X788914Y76435D02*
Y77893D01*
X791397Y74420D02*
X792138Y75160D01*
X790759Y74420D02*
X791397D01*
X800796Y79849D02*
X800846Y79799D01*
X800796Y79849D02*
Y80545D01*
X801387Y81135D01*
X798224Y87000D02*
X798776D01*
X798666Y72259D02*
X800568Y70357D01*
Y68236D02*
Y70357D01*
Y68236D02*
X801140Y67663D01*
X804700D01*
X759640D02*
X763200D01*
X759068Y68236D02*
X759640Y67663D01*
X759068Y68236D02*
Y70357D01*
X757166Y72259D02*
X759068Y70357D01*
X756724Y87000D02*
X757276D01*
X759296Y80545D02*
X759887Y81135D01*
X759296Y79849D02*
Y80545D01*
Y79849D02*
X759346Y79799D01*
X749259Y74420D02*
X749897D01*
X750638Y75160D01*
X747414Y76435D02*
Y77893D01*
Y76435D02*
X747440Y76240D01*
X750817Y75340D02*
X750991Y75513D01*
X750638Y75160D02*
X750817Y75340D01*
X747440Y76240D02*
X749259Y74420D01*
X760036Y82811D02*
Y83470D01*
X759619Y83887D02*
X760036Y83470D01*
X759887Y81135D02*
Y82663D01*
X760036Y82811D01*
X747604Y79338D02*
X747982Y80747D01*
X748078Y80979D02*
X748397Y81749D01*
X748442Y81858D01*
X747414Y77893D02*
X747604Y79338D01*
X747982Y80747D02*
X748078Y80979D01*
X748442Y81858D02*
X748698Y82114D01*
X750143D01*
X757276Y87000D02*
X758863Y85413D01*
X759480D02*
X759619Y85273D01*
X753696Y83972D02*
X756724Y87000D01*
X758863Y85413D02*
X759480D01*
X759619Y83887D02*
Y85273D01*
X754053Y72451D02*
X754192Y72312D01*
X755877D01*
X756014Y72449D01*
X756977D02*
X757166Y72259D01*
X756014Y72449D02*
X756977D01*
X747480Y122768D02*
X748925D01*
X747224Y122512D02*
X747480Y122768D01*
X746860Y121633D02*
X747179Y122403D01*
X747224Y122512D01*
X752478Y124626D02*
X755506Y127654D01*
X746764Y121401D02*
X746860Y121633D01*
X746386Y119992D02*
X746764Y121401D01*
X755506Y127654D02*
X756058D01*
X749420Y115814D02*
X749599Y115994D01*
X749773Y116167D01*
X746222Y116894D02*
X748041Y115074D01*
X746196Y117089D02*
X746222Y116894D01*
X746196Y117089D02*
Y118547D01*
X746386Y119992D01*
X757850Y108890D02*
X758422Y108317D01*
X757850Y108890D02*
Y111011D01*
X755948Y112913D02*
X757850Y111011D01*
X754796Y113103D02*
X755758D01*
X755948Y112913D01*
X752835Y113105D02*
X752974Y112966D01*
X754659D01*
X754796Y113103D01*
X748679Y115074D02*
X749420Y115814D01*
X748041Y115074D02*
X748679D01*
X758078Y120503D02*
Y121199D01*
X758401Y124541D02*
X758818Y124124D01*
X758401Y124541D02*
Y125927D01*
X758818Y123466D02*
Y124124D01*
X758078Y121199D02*
X758669Y121789D01*
Y123317D01*
X758078Y120503D02*
X758128Y120453D01*
X758669Y123317D02*
X758818Y123466D01*
X757645Y126067D02*
X758262D01*
X756058Y127654D02*
X757645Y126067D01*
X758262D02*
X758401Y125927D01*
X758422Y108317D02*
X761982D01*
D24*
X793829Y118352D02*
X794664D01*
X795670Y122771D02*
X796235Y123336D01*
X795670Y121350D02*
Y122771D01*
X797587Y119049D02*
Y119433D01*
X795670Y121350D02*
X797587Y119433D01*
X802824Y123004D02*
X804937Y120891D01*
X804918Y115164D02*
X805404Y114677D01*
X805810D02*
X808481Y117348D01*
X805404Y114677D02*
X805810D01*
X803108Y113354D02*
Y113760D01*
X804937Y120891D02*
X805279Y120549D01*
X801109Y115760D02*
X803108Y113760D01*
X801109Y116588D02*
X804931Y120410D01*
X805419D01*
X801109Y115760D02*
Y116588D01*
X804918Y115085D02*
X807577Y112425D01*
X804918Y115085D02*
Y115164D01*
X807577Y112346D02*
Y112425D01*
X796872Y109775D02*
Y110572D01*
X796858Y110585D02*
X796872Y110572D01*
X795636Y108539D02*
X796872Y109775D01*
X795636Y107565D02*
Y108539D01*
X792702Y119480D02*
X793829Y118352D01*
X789960Y121185D02*
X791666Y119480D01*
X792702D01*
X794664Y118352D02*
X801067Y111950D01*
X796854Y66911D02*
Y67885D01*
X796888Y80696D02*
X798806Y78779D01*
X795883Y77698D02*
X802285Y71295D01*
X796888Y80696D02*
Y82117D01*
X798076Y69931D02*
X798090Y69918D01*
X796888Y82117D02*
X797453Y82682D01*
X791179Y80531D02*
X792884Y78826D01*
X804042Y82350D02*
X806155Y80237D01*
X798806Y78394D02*
Y78779D01*
X793920Y78826D02*
X795047Y77698D01*
X795883D01*
X806149Y79756D02*
X806637D01*
X792884Y78826D02*
X793920D01*
X806622Y74023D02*
X807028D01*
X804326Y72700D02*
Y73106D01*
X802327Y75105D02*
X804326Y73106D01*
X802327Y75105D02*
Y75934D01*
X806135Y74431D02*
X808795Y71771D01*
X806135Y74431D02*
Y74510D01*
X808795Y71692D02*
Y71771D01*
X806135Y74510D02*
X806622Y74023D01*
X802327Y75934D02*
X806149Y79756D01*
X798090Y69121D02*
Y69918D01*
X806155Y80237D02*
X806497Y79895D01*
X796854Y67885D02*
X798090Y69121D01*
X807028Y74023D02*
X809699Y76693D01*
X765528Y74023D02*
X768199Y76693D01*
X755354Y67885D02*
X756590Y69121D01*
X764655Y80237D02*
X764997Y79895D01*
X756590Y69121D02*
Y69918D01*
X760827Y75934D02*
X764649Y79756D01*
X764636Y74510D02*
X765122Y74023D01*
X767295Y71692D02*
Y71771D01*
X764636Y74431D02*
Y74510D01*
Y74431D02*
X767295Y71771D01*
X760827Y75105D02*
Y75934D01*
Y75105D02*
X762826Y73106D01*
Y72700D02*
Y73106D01*
X765122Y74023D02*
X765528D01*
X751384Y78826D02*
X752420D01*
X764649Y79756D02*
X765137D01*
X753547Y77698D02*
X754383D01*
X752420Y78826D02*
X753547Y77698D01*
X757306Y78394D02*
Y78779D01*
X762542Y82350D02*
X764655Y80237D01*
X749679Y80531D02*
X751384Y78826D01*
X755388Y82117D02*
X755953Y82682D01*
X756576Y69931D02*
X756590Y69918D01*
X755388Y80696D02*
Y82117D01*
X754383Y77698D02*
X760785Y71295D01*
X755388Y80696D02*
X757306Y78779D01*
X755354Y66911D02*
Y67885D01*
X753164Y118352D02*
X759567Y111950D01*
X750166Y119480D02*
X751202D01*
X748460Y121185D02*
X750166Y119480D01*
X751202D02*
X752329Y118352D01*
X754136Y107565D02*
Y108539D01*
X755372Y109775D01*
X755358Y110585D02*
X755372Y110572D01*
Y109775D02*
Y110572D01*
X766077Y112346D02*
Y112425D01*
X763417Y115085D02*
Y115164D01*
Y115085D02*
X766077Y112425D01*
X759609Y115760D02*
Y116588D01*
X763431Y120410D02*
X763919D01*
X759609Y116588D02*
X763431Y120410D01*
X759609Y115760D02*
X761608Y113760D01*
X763437Y120891D02*
X763779Y120549D01*
X761608Y113354D02*
Y113760D01*
X763904Y114677D02*
X764310D01*
X766981Y117348D01*
X763417Y115164D02*
X763904Y114677D01*
X761324Y123004D02*
X763437Y120891D01*
X754170Y121350D02*
X756087Y119433D01*
Y119049D02*
Y119433D01*
X754170Y121350D02*
Y122771D01*
X754735Y123336D01*
X752329Y118352D02*
X753164D01*
D25*
X807309Y126309D02*
D03*
X790327Y109327D02*
D03*
X808527Y85655D02*
D03*
X791545Y68673D02*
D03*
X765809Y126309D02*
D03*
X748827Y109327D02*
D03*
X767027Y85655D02*
D03*
X750045Y68673D02*
D03*
D26*
X791393Y125243D02*
D03*
X792612Y84589D02*
D03*
X751112D02*
D03*
X749893Y125243D02*
D03*
D27*
X804520Y109355D02*
D03*
X807577Y112346D02*
D03*
X805738Y68701D02*
D03*
X808795Y71692D02*
D03*
X767295D02*
D03*
X764238Y68701D02*
D03*
X766077Y112346D02*
D03*
X763020Y109355D02*
D03*
D28*
X795540Y107565D02*
D03*
X789960Y121185D02*
D03*
X796759Y66911D02*
D03*
X791179Y80531D02*
D03*
X749679D02*
D03*
X755259Y66911D02*
D03*
X748460Y121185D02*
D03*
X754040Y107565D02*
D03*
M02*
