G04*
G04 #@! TF.GenerationSoftware,Altium Limited,Altium Designer,21.8.1 (53)*
G04*
G04 Layer_Physical_Order=2*
G04 Layer_Color=16711680*
%FSLAX25Y25*%
%MOIN*%
G70*
G04*
G04 #@! TF.SameCoordinates,7148B44F-C07B-4FA7-92CD-32C68B6CDD5B*
G04*
G04*
G04 #@! TF.FilePolarity,Positive*
G04*
G01*
G75*
%ADD24C,0.01000*%
%ADD25C,0.07087*%
%ADD26C,0.02756*%
%ADD27C,0.02362*%
%ADD28C,0.01575*%
%ADD29P,0.17650X4X270.0*%
D24*
X788918Y114990D02*
X789272Y114636D01*
Y110747D02*
Y114636D01*
X802105Y117818D02*
X807577Y112346D01*
X798818Y117818D02*
X802105D01*
X795540Y107565D02*
X798818Y110843D01*
Y117818D01*
X791598Y121204D02*
X798111Y127717D01*
X788918Y114990D02*
Y118158D01*
X789850Y119090D01*
Y121075D01*
X789960Y121185D01*
X802975Y127107D02*
X806511D01*
X798111Y127717D02*
X802365D01*
X802975Y127107D01*
X789960Y121204D02*
X791598D01*
X806511Y127107D02*
X807309Y126309D01*
X790490Y70093D02*
Y73982D01*
X796759Y66911D02*
X800036Y70188D01*
Y77164D01*
X791069Y78435D02*
Y80421D01*
X791179Y80531D01*
Y80550D02*
X792816D01*
X790137Y74335D02*
Y77504D01*
X791069Y78435D01*
X790137Y74335D02*
X790490Y73982D01*
X803323Y77164D02*
X808795Y71692D01*
X800036Y77164D02*
X803323D01*
X792816Y80550D02*
X799329Y87063D01*
X804193Y86453D02*
X807728D01*
X803583Y87063D02*
X804193Y86453D01*
X807728D02*
X808527Y85655D01*
X799329Y87063D02*
X803583D01*
X757829D02*
X762083D01*
X766228Y86453D02*
X767027Y85655D01*
X762083Y87063D02*
X762693Y86453D01*
X766228D01*
X751316Y80550D02*
X757829Y87063D01*
X758536Y77164D02*
X761824D01*
X767295Y71692D01*
X748637Y74335D02*
X748990Y73982D01*
X748637Y77504D02*
X749569Y78435D01*
X748637Y74335D02*
Y77504D01*
X749679Y80550D02*
X751316D01*
X749569Y80421D02*
X749679Y80531D01*
X749569Y78435D02*
Y80421D01*
X758536Y70188D02*
Y77164D01*
X755259Y66911D02*
X758536Y70188D01*
X748990Y70093D02*
Y73982D01*
X765010Y127107D02*
X765809Y126309D01*
X748460Y121204D02*
X750098D01*
X760865Y127717D02*
X761475Y127107D01*
X756611Y127717D02*
X760865D01*
X761475Y127107D02*
X765010D01*
X748350Y121075D02*
X748460Y121185D01*
X748350Y119090D02*
Y121075D01*
X747418Y118158D02*
X748350Y119090D01*
X747418Y114990D02*
Y118158D01*
X750098Y121204D02*
X756611Y127717D01*
X757318Y110843D02*
Y117818D01*
X754040Y107565D02*
X757318Y110843D01*
Y117818D02*
X760605D01*
X766077Y112346D01*
X747772Y110747D02*
Y114636D01*
X747418Y114990D02*
X747772Y114636D01*
D25*
X807309Y126309D02*
D03*
X790327Y109327D02*
D03*
X808527Y85655D02*
D03*
X791545Y68673D02*
D03*
X765809Y126309D02*
D03*
X748827Y109327D02*
D03*
X767027Y85655D02*
D03*
X750045Y68673D02*
D03*
D26*
X791393Y125243D02*
D03*
X792612Y84589D02*
D03*
X751112D02*
D03*
X749893Y125243D02*
D03*
D27*
X804520Y109355D02*
D03*
X807577Y112346D02*
D03*
X805738Y68701D02*
D03*
X808795Y71692D02*
D03*
X767295D02*
D03*
X764238Y68701D02*
D03*
X766077Y112346D02*
D03*
X763020Y109355D02*
D03*
D28*
X795540Y107565D02*
D03*
X789960Y121185D02*
D03*
X796759Y66911D02*
D03*
X791179Y80531D02*
D03*
X749679D02*
D03*
X755259Y66911D02*
D03*
X748460Y121185D02*
D03*
X754040Y107565D02*
D03*
D29*
X798818Y117818D02*
D03*
X800036Y77164D02*
D03*
X757318Y117818D02*
D03*
X758536Y77164D02*
D03*
M02*
