G04*
G04 #@! TF.GenerationSoftware,Altium Limited,Altium Designer,21.8.1 (53)*
G04*
G04 Layer_Physical_Order=2*
G04 Layer_Color=16711680*
%FSLAX25Y25*%
%MOIN*%
G70*
G04*
G04 #@! TF.SameCoordinates,00179D7D-CCC1-468B-83A2-22759590F0E6*
G04*
G04*
G04 #@! TF.FilePolarity,Positive*
G04*
G01*
G75*
%ADD23C,0.01000*%
%ADD25C,0.07087*%
%ADD26C,0.01575*%
%ADD27C,0.02362*%
%ADD28C,0.01968*%
%ADD29R,0.12480X0.12480*%
D23*
X751068Y116068D02*
X756000Y121000D01*
X746432Y116068D02*
X751068D01*
X756000Y121000D02*
X758325Y118675D01*
Y110937D02*
Y118675D01*
X767000Y121500D02*
Y124000D01*
X755509Y128500D02*
X762500D01*
X767000Y124000D01*
X752199Y129590D02*
X754419D01*
X755509Y128500D01*
X752131Y129658D02*
X752199Y129590D01*
X744250Y122750D02*
X747000Y125500D01*
Y126000D01*
X750558Y128240D02*
X751976Y129658D01*
X747000Y126000D02*
X749240Y128240D01*
X751976Y129658D02*
X752131D01*
X749240Y128240D02*
X750558D01*
D25*
X743992Y121000D02*
D03*
X768008D02*
D03*
D26*
X746432Y116068D02*
D03*
X752131Y129658D02*
D03*
D27*
X758325Y110937D02*
D03*
X754048Y110984D02*
D03*
D28*
X756000Y131500D02*
D03*
D29*
Y121000D02*
D03*
M02*
