G04*
G04 #@! TF.GenerationSoftware,Altium Limited,Altium Designer,21.8.1 (53)*
G04*
G04 Layer_Physical_Order=2*
G04 Layer_Color=16711680*
%FSLAX25Y25*%
%MOIN*%
G70*
G04*
G04 #@! TF.SameCoordinates,B9C6A8E3-6537-4070-97B7-C37E011A80D2*
G04*
G04*
G04 #@! TF.FilePolarity,Positive*
G04*
G01*
G75*
%ADD12C,0.01000*%
%ADD26C,0.00591*%
%ADD27C,0.05906*%
%ADD28C,0.01575*%
%ADD29C,0.02756*%
%ADD30C,0.02362*%
%ADD31R,0.12480X0.12480*%
D12*
X746432Y116068D02*
X751068D01*
X756000Y121000D01*
X758325Y118675D01*
Y110937D02*
Y118675D01*
D26*
X762570Y128035D02*
X763035Y127570D01*
X762411Y128035D02*
X762570D01*
X761908Y128538D02*
X762411Y128035D01*
X751200Y128538D02*
X761908D01*
X763035Y127411D02*
X768008Y122438D01*
X763035Y127411D02*
Y127570D01*
X750641Y128667D02*
X750717Y128743D01*
X748768Y128667D02*
X750641D01*
X747001Y126900D02*
X748768Y128667D01*
X747001Y125400D02*
Y126900D01*
X743992Y121000D02*
Y122391D01*
X747001Y125400D01*
X750861Y128876D02*
X751200Y128538D01*
X768008Y121000D02*
Y122438D01*
D27*
X743992Y121000D02*
D03*
X768008D02*
D03*
D28*
X758436Y113818D02*
D03*
X750717Y128743D02*
D03*
X746432Y116568D02*
D03*
D29*
X756041Y131290D02*
D03*
D30*
X758325Y110937D02*
D03*
X754048Y110984D02*
D03*
D31*
X756000Y121000D02*
D03*
M02*
