G04*
G04 #@! TF.GenerationSoftware,Altium Limited,Altium Designer,21.8.1 (53)*
G04*
G04 Layer_Physical_Order=1*
G04 Layer_Color=255*
%FSLAX25Y25*%
%MOIN*%
G70*
G04*
G04 #@! TF.SameCoordinates,78CBEA18-19AA-427C-A416-CE0B35CF226F*
G04*
G04*
G04 #@! TF.FilePolarity,Positive*
G04*
G01*
G75*
%ADD12R,0.01575X0.03937*%
%ADD13R,0.01968X0.02362*%
%ADD14R,0.02126X0.02165*%
%ADD15R,0.03150X0.03543*%
%ADD23C,0.00591*%
%ADD24C,0.01000*%
%ADD25C,0.05906*%
%ADD26C,0.01575*%
%ADD27C,0.02362*%
%ADD28C,0.02756*%
D12*
X753318Y121653D02*
D03*
X755877D02*
D03*
X758436D02*
D03*
Y115205D02*
D03*
X755877D02*
D03*
X753318D02*
D03*
D13*
X762500Y126165D02*
D03*
Y121835D02*
D03*
X749498Y120837D02*
D03*
Y125168D02*
D03*
X762500Y113835D02*
D03*
Y118165D02*
D03*
D14*
X749500Y117272D02*
D03*
Y113728D02*
D03*
D15*
X752850Y126500D02*
D03*
X759150D02*
D03*
D23*
X753415Y130884D02*
G03*
X755383Y128915I2585J617D01*
G01*
X757049Y129059D02*
G03*
X757863Y129605I-1049J2441D01*
G01*
X755383Y128915D02*
X755495Y128803D01*
X753303Y130995D02*
X753415Y130884D01*
X755626Y128673D02*
X755798Y128500D01*
X757863Y129605D02*
X758030Y129772D01*
X756491Y128500D02*
X757049Y129059D01*
X755495Y128803D02*
X755626Y128673D01*
X758030Y129772D02*
X761139D01*
X752927Y131371D02*
X753303Y130995D01*
X755798Y128500D02*
X756491D01*
X747500Y125619D02*
Y128193D01*
X751070Y130997D02*
X751302Y131093D01*
X749808Y130268D02*
X751070Y130997D01*
X747500Y128193D02*
X747620Y128349D01*
X748651Y129380D01*
X749808Y130268D01*
X751302Y131093D02*
X752392Y131544D01*
X752754D01*
X752927Y131371D01*
X749252Y124918D02*
X749898Y124282D01*
X748998Y125168D02*
X749498D01*
X749898Y124267D02*
Y124282D01*
X748998Y125168D02*
X749252Y124918D01*
X750063Y113501D02*
Y114311D01*
X751563Y115811D01*
Y118500D01*
X750882Y119449D02*
X751563Y118769D01*
Y118500D02*
Y118769D01*
X749498Y120641D02*
Y120837D01*
Y120641D02*
X750689Y119449D01*
X750882D01*
X747951Y125168D02*
X748998D01*
X747500Y125619D02*
X747951Y125168D01*
X758436Y122361D02*
X758928Y122853D01*
X761520Y124399D02*
Y124988D01*
X762500Y125969D01*
X761054Y123933D02*
X761520Y124399D01*
X758928Y122853D02*
X759763D01*
X760843Y123933D01*
X758436Y122290D02*
Y122361D01*
X760843Y123933D02*
X761054D01*
X762064Y126602D02*
X762500Y126165D01*
X762064Y126602D02*
Y128847D01*
X761139Y129772D02*
X762064Y128847D01*
X762500Y125969D02*
Y126165D01*
X750063Y113501D02*
X752580Y110984D01*
D24*
X752653Y127250D02*
X752850D01*
Y126500D02*
Y127250D01*
X752131Y127772D02*
X752653Y127250D01*
X752131Y127772D02*
Y129658D01*
X746500Y116000D02*
X747189Y116689D01*
X753441Y115260D02*
Y124315D01*
X752850Y124906D02*
Y126500D01*
X747189Y116689D02*
X748937D01*
X749500Y117252D02*
Y117272D01*
X748937Y116689D02*
X749500Y117252D01*
X758325Y110937D02*
X758380Y110993D01*
Y114754D02*
X758436Y114810D01*
X758380Y110993D02*
Y114754D01*
X756164Y117924D02*
X756750Y118510D01*
X762155D02*
X762500Y118165D01*
X756750Y118510D02*
X762155D01*
X756164Y115097D02*
Y117924D01*
X762500Y118362D02*
Y118846D01*
X755877Y114810D02*
X756164Y115097D01*
X758436Y114122D02*
X758723Y113835D01*
X762500D01*
X758436Y114122D02*
Y114810D01*
X762500Y118846D02*
Y121835D01*
X756272Y123012D02*
Y125724D01*
X756000Y122740D02*
X756272Y123012D01*
Y125724D02*
X757276Y126728D01*
X758075D01*
X759150Y127803D01*
Y128000D01*
X752850Y124906D02*
X753441Y124315D01*
D25*
X743992Y121000D02*
D03*
X768008D02*
D03*
D26*
X746432Y116068D02*
D03*
X752131Y129658D02*
D03*
D27*
X758325Y110937D02*
D03*
X754048Y110984D02*
D03*
D28*
X756000Y131500D02*
D03*
M02*
