G04*
G04 #@! TF.GenerationSoftware,Altium Limited,Altium Designer,21.8.1 (53)*
G04*
G04 Layer_Physical_Order=1*
G04 Layer_Color=255*
%FSLAX25Y25*%
%MOIN*%
G70*
G04*
G04 #@! TF.SameCoordinates,464CEE0A-EB4B-4596-A0CB-DB8C609D062F*
G04*
G04*
G04 #@! TF.FilePolarity,Positive*
G04*
G01*
G75*
%ADD10C,0.00591*%
%ADD12R,0.02362X0.02165*%
%ADD13R,0.02165X0.02165*%
%ADD14R,0.01575X0.03937*%
%ADD15R,0.02126X0.02165*%
%ADD16R,0.01968X0.02362*%
%ADD25C,0.01000*%
%ADD26C,0.05906*%
%ADD27C,0.01575*%
%ADD28C,0.02756*%
%ADD29C,0.02362*%
D10*
X749464Y130000D02*
G03*
X749587Y130087I-277J521D01*
G01*
X748357Y129081D02*
G03*
X748349Y129073I409J-426D01*
G01*
X758813Y128755D02*
X763871D01*
X764568Y128058D01*
X753563Y128563D02*
X758621D01*
X758813Y128755D01*
X751800Y130325D02*
X753563Y128563D01*
X764568Y125696D02*
Y128058D01*
X758067Y123611D02*
X758559Y124103D01*
X756384Y118038D02*
Y120098D01*
X758067Y121781D02*
Y123611D01*
X756000Y117654D02*
X756384Y118038D01*
Y120098D02*
X758067Y121781D01*
X748176Y127687D02*
Y128900D01*
X749923Y130325D02*
X751800D01*
X748863Y129574D02*
X749464Y130000D01*
X748176Y128900D02*
X748349Y129073D01*
X748357Y129081D02*
X748863Y129574D01*
X749587Y130087D02*
X749923Y130325D01*
X762103Y124103D02*
X762500Y124500D01*
X758559Y124103D02*
X762103D01*
X763372Y124500D02*
X764568Y125696D01*
X762500Y124500D02*
X763372D01*
X748176Y127687D02*
X749500Y126362D01*
Y126165D02*
Y126362D01*
X750063Y114311D02*
X750245Y114129D01*
X752016Y110984D02*
X754048D01*
X750245Y112756D02*
Y114129D01*
Y112756D02*
X752016Y110984D01*
X751563Y115811D02*
Y121154D01*
X751217Y121500D02*
X751563Y121154D01*
X749835Y121500D02*
X751217D01*
X749500Y121835D02*
X749835Y121500D01*
X750063Y114311D02*
X751563Y115811D01*
D12*
X762103Y121544D02*
D03*
Y126662D02*
D03*
D13*
X762000Y117772D02*
D03*
Y114228D02*
D03*
D14*
X753441Y124103D02*
D03*
X756000D02*
D03*
X758559D02*
D03*
Y117654D02*
D03*
X756000D02*
D03*
X753441D02*
D03*
D15*
X749500Y117772D02*
D03*
Y114228D02*
D03*
D16*
Y121835D02*
D03*
Y126165D02*
D03*
D25*
X758559Y113941D02*
Y117654D01*
X758380Y110993D02*
Y113762D01*
X758492D02*
X761534D01*
X758380D02*
X758436Y113818D01*
X758492Y113762D01*
X758436Y113818D02*
X758559Y113941D01*
X761534Y113762D02*
X762000Y114228D01*
X753441Y124103D02*
Y124315D01*
Y117654D02*
Y124103D01*
X756000D02*
X756287Y124391D01*
X756873Y127205D02*
X762033D01*
X756287Y124391D02*
Y126619D01*
X756873Y127205D01*
X753154Y124602D02*
Y126151D01*
X750717Y128587D02*
X753154Y126151D01*
Y124602D02*
X753441Y124315D01*
X750717Y128587D02*
Y128743D01*
X762033Y127205D02*
X762360Y126877D01*
X753441Y116500D02*
Y117654D01*
X762000Y118361D02*
Y120414D01*
X762586Y121000D02*
X768008D01*
X762000Y120414D02*
X762586Y121000D01*
X746500Y116500D02*
X747189Y117189D01*
X748937D01*
X749500Y117752D02*
Y117772D01*
X748937Y117189D02*
X749500Y117752D01*
D26*
X768008Y121000D02*
D03*
X743992D02*
D03*
D27*
X758436Y113818D02*
D03*
X750717Y128743D02*
D03*
X746432Y116568D02*
D03*
D28*
X756041Y131290D02*
D03*
D29*
X758325Y110937D02*
D03*
X754048Y110984D02*
D03*
M02*
