G04*
G04 #@! TF.GenerationSoftware,Altium Limited,Altium Designer,21.8.1 (53)*
G04*
G04 Layer_Color=32896*
%FSLAX25Y25*%
%MOIN*%
G70*
G04*
G04 #@! TF.SameCoordinates,00179D7D-CCC1-468B-83A2-22759590F0E6*
G04*
G04*
G04 #@! TF.FilePolarity,Positive*
G04*
G01*
G75*
%ADD11C,0.00394*%
%ADD31C,0.00500*%
D11*
X759106Y128394D02*
Y130362D01*
X758450Y129706D01*
X757794Y130362D01*
Y128394D01*
X757138D02*
Y130362D01*
Y129050D02*
X756154Y129706D01*
X757138Y129050D02*
X756154Y128394D01*
X755171D02*
Y128722D01*
X754843D01*
Y128394D01*
X755171D01*
X753531Y130362D02*
X752875D01*
X753203D01*
Y128394D01*
X753531D01*
X752875D01*
D31*
X766512Y114110D02*
X768520D01*
X766512Y110409D02*
Y114110D01*
X745488Y110409D02*
X766512D01*
X745488D02*
Y114110D01*
X743480D02*
X745488D01*
X743480Y127890D02*
X745488D01*
X748126Y131905D01*
Y133874D01*
X763874D01*
Y131905D02*
Y133874D01*
Y131905D02*
X766512Y127890D01*
X768520D01*
Y114110D02*
Y116197D01*
Y125803D02*
Y127890D01*
X743480Y114110D02*
Y116197D01*
Y125803D02*
Y127890D01*
M02*
