G04*
G04 #@! TF.GenerationSoftware,Altium Limited,Altium Designer,21.8.1 (53)*
G04*
G04 Layer_Color=65535*
%FSLAX25Y25*%
%MOIN*%
G70*
G04*
G04 #@! TF.SameCoordinates,78CBEA18-19AA-427C-A416-CE0B35CF226F*
G04*
G04*
G04 #@! TF.FilePolarity,Positive*
G04*
G01*
G75*
%ADD10C,0.00787*%
%ADD11C,0.00394*%
D10*
X751153Y112448D02*
Y117172D01*
X756000Y125319D02*
Y127681D01*
D11*
X771500Y124000D02*
X773000D01*
X771500D02*
Y125500D01*
Y124000D02*
X773000Y125500D01*
X779500D01*
X737500Y123500D02*
X739000D01*
Y125000D01*
Y123500D02*
Y125000D01*
X736500Y126000D02*
X739000Y123500D01*
X727000Y126000D02*
X736500D01*
X717706Y130340D02*
X717378Y130668D01*
X716722D01*
X716394Y130340D01*
Y129028D01*
X716722Y128700D01*
X717378D01*
X717706Y129028D01*
X718362Y128700D02*
Y130012D01*
X719018Y130668D01*
X719673Y130012D01*
Y128700D01*
Y129684D01*
X718362D01*
X721641Y130340D02*
X721313Y130668D01*
X720657D01*
X720329Y130340D01*
Y130012D01*
X720657Y129684D01*
X721313D01*
X721641Y129356D01*
Y129028D01*
X721313Y128700D01*
X720657D01*
X720329Y129028D01*
X722297Y130668D02*
X723609D01*
X722953D01*
Y128700D01*
X725577Y130668D02*
X724265D01*
Y128700D01*
X725577D01*
X724265Y129684D02*
X724921D01*
X726233Y130668D02*
Y128700D01*
X727545D01*
X728201Y130668D02*
Y128700D01*
X729513D01*
X730169D02*
Y130012D01*
X730825Y130668D01*
X731481Y130012D01*
Y128700D01*
Y129684D01*
X730169D01*
X732137Y130668D02*
X733449D01*
X732793D01*
Y128700D01*
X735416Y130668D02*
X734104D01*
Y128700D01*
X735416D01*
X734104Y129684D02*
X734760D01*
X736072Y130668D02*
Y128700D01*
X737056D01*
X737384Y129028D01*
Y130340D01*
X737056Y130668D01*
X736072D01*
X716394Y127362D02*
Y125394D01*
Y126378D01*
X717706D01*
Y127362D01*
Y125394D01*
X719346Y127362D02*
X718689D01*
X718362Y127034D01*
Y125722D01*
X718689Y125394D01*
X719346D01*
X719673Y125722D01*
Y127034D01*
X719346Y127362D01*
X720329D02*
Y125394D01*
X721641D01*
X723609Y127362D02*
X722297D01*
Y125394D01*
X723609D01*
X722297Y126378D02*
X722953D01*
X725577Y127034D02*
X725249Y127362D01*
X724593D01*
X724265Y127034D01*
Y126706D01*
X724593Y126378D01*
X725249D01*
X725577Y126050D01*
Y125722D01*
X725249Y125394D01*
X724593D01*
X724265Y125722D01*
X781206Y130840D02*
X780878Y131168D01*
X780222D01*
X779894Y130840D01*
Y129528D01*
X780222Y129200D01*
X780878D01*
X781206Y129528D01*
X781862Y129200D02*
Y130512D01*
X782517Y131168D01*
X783174Y130512D01*
Y129200D01*
Y130184D01*
X781862D01*
X785141Y130840D02*
X784813Y131168D01*
X784157D01*
X783829Y130840D01*
Y130512D01*
X784157Y130184D01*
X784813D01*
X785141Y129856D01*
Y129528D01*
X784813Y129200D01*
X784157D01*
X783829Y129528D01*
X785797Y131168D02*
X787109D01*
X786453D01*
Y129200D01*
X789077Y131168D02*
X787765D01*
Y129200D01*
X789077D01*
X787765Y130184D02*
X788421D01*
X789733Y131168D02*
Y129200D01*
X791045D01*
X791701Y131168D02*
Y129200D01*
X793013D01*
X793669D02*
Y130512D01*
X794325Y131168D01*
X794981Y130512D01*
Y129200D01*
Y130184D01*
X793669D01*
X795637Y131168D02*
X796948D01*
X796292D01*
Y129200D01*
X798916Y131168D02*
X797604D01*
Y129200D01*
X798916D01*
X797604Y130184D02*
X798260D01*
X799572Y131168D02*
Y129200D01*
X800556D01*
X800884Y129528D01*
Y130840D01*
X800556Y131168D01*
X799572D01*
X779894Y127862D02*
Y125894D01*
Y126878D01*
X781206D01*
Y127862D01*
Y125894D01*
X782845Y127862D02*
X782190D01*
X781862Y127534D01*
Y126222D01*
X782190Y125894D01*
X782845D01*
X783174Y126222D01*
Y127534D01*
X782845Y127862D01*
X783829D02*
Y125894D01*
X785141D01*
X787109Y127862D02*
X785797D01*
Y125894D01*
X787109D01*
X785797Y126878D02*
X786453D01*
X789077Y127534D02*
X788749Y127862D01*
X788093D01*
X787765Y127534D01*
Y127206D01*
X788093Y126878D01*
X788749D01*
X789077Y126550D01*
Y126222D01*
X788749Y125894D01*
X788093D01*
X787765Y126222D01*
M02*
