G04*
G04 #@! TF.GenerationSoftware,Altium Limited,Altium Designer,21.8.1 (53)*
G04*
G04 Layer_Color=8388736*
%FSLAX25Y25*%
%MOIN*%
G70*
G04*
G04 #@! TF.SameCoordinates,7148B44F-C07B-4FA7-92CD-32C68B6CDD5B*
G04*
G04*
G04 #@! TF.FilePolarity,Positive*
G04*
G01*
G75*
%ADD10C,0.00394*%
%ADD32C,0.00197*%
D10*
X792536Y109217D02*
G03*
X792536Y109217I-2315J0D01*
G01*
X809613Y126298D02*
G03*
X809613Y126298I-2315J0D01*
G01*
X809624Y126309D02*
G03*
X809624Y126309I-2315J0D01*
G01*
X793754Y68563D02*
G03*
X793754Y68563I-2315J0D01*
G01*
X810842Y85655D02*
G03*
X810842Y85655I-2315J0D01*
G01*
X810831Y85644D02*
G03*
X810831Y85644I-2315J0D01*
G01*
X769331D02*
G03*
X769331Y85644I-2315J0D01*
G01*
X769342Y85655D02*
G03*
X769342Y85655I-2315J0D01*
G01*
X752254Y68563D02*
G03*
X752254Y68563I-2315J0D01*
G01*
X768124Y126309D02*
G03*
X768124Y126309I-2315J0D01*
G01*
X768113Y126298D02*
G03*
X768113Y126298I-2315J0D01*
G01*
X751036Y109217D02*
G03*
X751036Y109217I-2315J0D01*
G01*
D32*
X805596Y128067D02*
G03*
X786631Y119862I-6903J-10065D01*
G01*
X769197Y119849D02*
G03*
X768116Y123317I-12063J-1856D01*
G01*
X761473Y106572D02*
G03*
X768256Y112847I-4280J11430D01*
G01*
X751750Y67121D02*
G03*
X769374Y71983I6661J10227D01*
G01*
X770500Y79027D02*
G03*
X769361Y82738I-12089J-1679D01*
G01*
X788908Y72067D02*
G03*
X789838Y70456I11003J5281D01*
G01*
X787603Y112907D02*
G03*
X787953Y112205I11090J5095D01*
G01*
X802997Y106581D02*
G03*
X809675Y123326I-4304J11421D01*
G01*
X805603Y88144D02*
G03*
X802985Y89159I-5692J-10796D01*
G01*
X793250Y67121D02*
G03*
X810071Y84111I6661J10227D01*
G01*
X796027Y88918D02*
G03*
X787824Y79037I3884J-11570D01*
G01*
X792032Y107775D02*
G03*
X796021Y106093I6661J10227D01*
G01*
X750532Y107775D02*
G03*
X754521Y106093I6661J10227D01*
G01*
X754524Y88917D02*
G03*
X748338Y70456I3887J-11569D01*
G01*
X764103Y88144D02*
G03*
X761484Y89159I-5692J-10796D01*
G01*
X764096Y128067D02*
G03*
X747120Y111110I-6903J-10065D01*
G01*
X769315Y119867D02*
X786596D01*
X768242Y112830D02*
X787520Y112869D01*
X796000Y89000D02*
Y106000D01*
X803000Y89219D02*
Y106500D01*
X769500Y72000D02*
X788778Y72039D01*
X770573Y79037D02*
X787854D01*
X761500Y89219D02*
Y106500D01*
X754500Y89000D02*
Y106000D01*
M02*
