G04*
G04 #@! TF.GenerationSoftware,Altium Limited,Altium Designer,21.8.1 (53)*
G04*
G04 Layer_Color=65535*
%FSLAX25Y25*%
%MOIN*%
G70*
G04*
G04 #@! TF.SameCoordinates,7148B44F-C07B-4FA7-92CD-32C68B6CDD5B*
G04*
G04*
G04 #@! TF.FilePolarity,Positive*
G04*
G01*
G75*
%ADD10C,0.00394*%
%ADD11C,0.00787*%
D10*
X730459Y107555D02*
X739959D01*
X781494Y107565D02*
X785029D01*
X783969Y108626D02*
X785029Y107565D01*
X783969Y108626D02*
X785029Y107565D01*
X783969Y106504D02*
X785029Y107565D01*
X742469Y106504D02*
X743529Y107565D01*
X742469Y108626D02*
X743529Y107565D01*
X742469Y108626D02*
X743529Y107565D01*
X739994D02*
X743529D01*
X724984Y68344D02*
X724656Y68672D01*
X724000D01*
X723672Y68344D01*
Y67032D01*
X724000Y66704D01*
X724656D01*
X724984Y67032D01*
X725640Y66704D02*
Y68016D01*
X726296Y68672D01*
X726952Y68016D01*
Y66704D01*
Y67688D01*
X725640D01*
X728920Y68344D02*
X728592Y68672D01*
X727936D01*
X727608Y68344D01*
Y68016D01*
X727936Y67688D01*
X728592D01*
X728920Y67360D01*
Y67032D01*
X728592Y66704D01*
X727936D01*
X727608Y67032D01*
X729576Y68672D02*
X730888D01*
X730232D01*
Y66704D01*
X732855Y68672D02*
X731543D01*
Y66704D01*
X732855D01*
X731543Y67688D02*
X732199D01*
X733511Y68672D02*
Y66704D01*
X734823D01*
X735479Y68672D02*
Y66704D01*
X736791D01*
X737447D02*
Y68016D01*
X738103Y68672D01*
X738759Y68016D01*
Y66704D01*
Y67688D01*
X737447D01*
X739415Y68672D02*
X740727D01*
X740071D01*
Y66704D01*
X742695Y68672D02*
X741383D01*
Y66704D01*
X742695D01*
X741383Y67688D02*
X742039D01*
X743351Y68672D02*
Y66704D01*
X744335D01*
X744663Y67032D01*
Y68344D01*
X744335Y68672D01*
X743351D01*
X723672Y65365D02*
Y63398D01*
Y64381D01*
X724984D01*
Y65365D01*
Y63398D01*
X726624Y65365D02*
X725968D01*
X725640Y65037D01*
Y63726D01*
X725968Y63398D01*
X726624D01*
X726952Y63726D01*
Y65037D01*
X726624Y65365D01*
X727608D02*
Y63398D01*
X728920D01*
X730888Y65365D02*
X729576D01*
Y63398D01*
X730888D01*
X729576Y64381D02*
X730232D01*
X732855Y65037D02*
X732527Y65365D01*
X731871D01*
X731543Y65037D01*
Y64709D01*
X731871Y64381D01*
X732527D01*
X732855Y64053D01*
Y63726D01*
X732527Y63398D01*
X731871D01*
X731543Y63726D01*
X721165Y111895D02*
X720837Y112223D01*
X720181D01*
X719853Y111895D01*
Y110583D01*
X720181Y110255D01*
X720837D01*
X721165Y110583D01*
X721821Y110255D02*
Y111567D01*
X722477Y112223D01*
X723133Y111567D01*
Y110255D01*
Y111239D01*
X721821D01*
X725101Y111895D02*
X724773Y112223D01*
X724117D01*
X723789Y111895D01*
Y111567D01*
X724117Y111239D01*
X724773D01*
X725101Y110911D01*
Y110583D01*
X724773Y110255D01*
X724117D01*
X723789Y110583D01*
X725757Y112223D02*
X727068D01*
X726412D01*
Y110255D01*
X729036Y112223D02*
X727724D01*
Y110255D01*
X729036D01*
X727724Y111239D02*
X728380D01*
X729692Y112223D02*
Y110255D01*
X731004D01*
X731660Y112223D02*
Y110255D01*
X732972D01*
X733628D02*
Y111567D01*
X734284Y112223D01*
X734940Y111567D01*
Y110255D01*
Y111239D01*
X733628D01*
X735596Y112223D02*
X736908D01*
X736252D01*
Y110255D01*
X738876Y112223D02*
X737564D01*
Y110255D01*
X738876D01*
X737564Y111239D02*
X738220D01*
X739532Y112223D02*
Y110255D01*
X740515D01*
X740843Y110583D01*
Y111895D01*
X740515Y112223D01*
X739532D01*
X719853Y108916D02*
Y106948D01*
Y107932D01*
X721165D01*
Y108916D01*
Y106948D01*
X722805Y108916D02*
X722149D01*
X721821Y108588D01*
Y107276D01*
X722149Y106948D01*
X722805D01*
X723133Y107276D01*
Y108588D01*
X722805Y108916D01*
X723789D02*
Y106948D01*
X725101D01*
X727068Y108916D02*
X725757D01*
Y106948D01*
X727068D01*
X725757Y107932D02*
X726412D01*
X729036Y108588D02*
X728708Y108916D01*
X728052D01*
X727724Y108588D01*
Y108260D01*
X728052Y107932D01*
X728708D01*
X729036Y107605D01*
Y107276D01*
X728708Y106948D01*
X728052D01*
X727724Y107276D01*
X769665Y104395D02*
X769337Y104723D01*
X768681D01*
X768353Y104395D01*
Y103083D01*
X768681Y102755D01*
X769337D01*
X769665Y103083D01*
X770321Y102755D02*
Y104067D01*
X770977Y104723D01*
X771633Y104067D01*
Y102755D01*
Y103739D01*
X770321D01*
X773600Y104395D02*
X773273Y104723D01*
X772617D01*
X772289Y104395D01*
Y104067D01*
X772617Y103739D01*
X773273D01*
X773600Y103411D01*
Y103083D01*
X773273Y102755D01*
X772617D01*
X772289Y103083D01*
X774257Y104723D02*
X775568D01*
X774912D01*
Y102755D01*
X777536Y104723D02*
X776224D01*
Y102755D01*
X777536D01*
X776224Y103739D02*
X776880D01*
X778192Y104723D02*
Y102755D01*
X779504D01*
X780160Y104723D02*
Y102755D01*
X781472D01*
X782128D02*
Y104067D01*
X782784Y104723D01*
X783440Y104067D01*
Y102755D01*
Y103739D01*
X782128D01*
X784096Y104723D02*
X785408D01*
X784752D01*
Y102755D01*
X787376Y104723D02*
X786064D01*
Y102755D01*
X787376D01*
X786064Y103739D02*
X786720D01*
X788031Y104723D02*
Y102755D01*
X789015D01*
X789343Y103083D01*
Y104395D01*
X789015Y104723D01*
X788031D01*
X768353Y101416D02*
Y99449D01*
Y100432D01*
X769665D01*
Y101416D01*
Y99449D01*
X771305Y101416D02*
X770649D01*
X770321Y101088D01*
Y99777D01*
X770649Y99449D01*
X771305D01*
X771633Y99777D01*
Y101088D01*
X771305Y101416D01*
X772289D02*
Y99449D01*
X773600D01*
X775568Y101416D02*
X774257D01*
Y99449D01*
X775568D01*
X774257Y100432D02*
X774912D01*
X777536Y101088D02*
X777208Y101416D01*
X776552D01*
X776224Y101088D01*
Y100760D01*
X776552Y100432D01*
X777208D01*
X777536Y100104D01*
Y99777D01*
X777208Y99449D01*
X776552D01*
X776224Y99777D01*
X767165Y135895D02*
X766837Y136223D01*
X766181D01*
X765853Y135895D01*
Y134583D01*
X766181Y134255D01*
X766837D01*
X767165Y134583D01*
X767821Y134255D02*
Y135567D01*
X768477Y136223D01*
X769133Y135567D01*
Y134255D01*
Y135239D01*
X767821D01*
X771101Y135895D02*
X770773Y136223D01*
X770117D01*
X769789Y135895D01*
Y135567D01*
X770117Y135239D01*
X770773D01*
X771101Y134911D01*
Y134583D01*
X770773Y134255D01*
X770117D01*
X769789Y134583D01*
X771757Y136223D02*
X773068D01*
X772412D01*
Y134255D01*
X775036Y136223D02*
X773724D01*
Y134255D01*
X775036D01*
X773724Y135239D02*
X774380D01*
X775692Y136223D02*
Y134255D01*
X777004D01*
X777660Y136223D02*
Y134255D01*
X778972D01*
X779628D02*
Y135567D01*
X780284Y136223D01*
X780940Y135567D01*
Y134255D01*
Y135239D01*
X779628D01*
X781596Y136223D02*
X782908D01*
X782252D01*
Y134255D01*
X784876Y136223D02*
X783564D01*
Y134255D01*
X784876D01*
X783564Y135239D02*
X784220D01*
X785532Y136223D02*
Y134255D01*
X786515D01*
X786843Y134583D01*
Y135895D01*
X786515Y136223D01*
X785532D01*
X765853Y132916D02*
Y130948D01*
Y131932D01*
X767165D01*
Y132916D01*
Y130948D01*
X768805Y132916D02*
X768149D01*
X767821Y132588D01*
Y131277D01*
X768149Y130948D01*
X768805D01*
X769133Y131277D01*
Y132588D01*
X768805Y132916D01*
X769789D02*
Y130948D01*
X771101D01*
X773068Y132916D02*
X771757D01*
Y130948D01*
X773068D01*
X771757Y131932D02*
X772412D01*
X775036Y132588D02*
X774708Y132916D01*
X774052D01*
X773724Y132588D01*
Y132260D01*
X774052Y131932D01*
X774708D01*
X775036Y131605D01*
Y131277D01*
X774708Y130948D01*
X774052D01*
X773724Y131277D01*
X771165Y63395D02*
X770837Y63723D01*
X770181D01*
X769853Y63395D01*
Y62083D01*
X770181Y61755D01*
X770837D01*
X771165Y62083D01*
X771821Y61755D02*
Y63067D01*
X772477Y63723D01*
X773133Y63067D01*
Y61755D01*
Y62739D01*
X771821D01*
X775101Y63395D02*
X774773Y63723D01*
X774117D01*
X773789Y63395D01*
Y63067D01*
X774117Y62739D01*
X774773D01*
X775101Y62411D01*
Y62083D01*
X774773Y61755D01*
X774117D01*
X773789Y62083D01*
X775757Y63723D02*
X777068D01*
X776412D01*
Y61755D01*
X779036Y63723D02*
X777724D01*
Y61755D01*
X779036D01*
X777724Y62739D02*
X778380D01*
X779692Y63723D02*
Y61755D01*
X781004D01*
X781660Y63723D02*
Y61755D01*
X782972D01*
X783628D02*
Y63067D01*
X784284Y63723D01*
X784940Y63067D01*
Y61755D01*
Y62739D01*
X783628D01*
X785596Y63723D02*
X786908D01*
X786252D01*
Y61755D01*
X788876Y63723D02*
X787564D01*
Y61755D01*
X788876D01*
X787564Y62739D02*
X788220D01*
X789532Y63723D02*
Y61755D01*
X790515D01*
X790843Y62083D01*
Y63395D01*
X790515Y63723D01*
X789532D01*
X769853Y60416D02*
Y58448D01*
Y59432D01*
X771165D01*
Y60416D01*
Y58448D01*
X772805Y60416D02*
X772149D01*
X771821Y60088D01*
Y58776D01*
X772149Y58448D01*
X772805D01*
X773133Y58776D01*
Y60088D01*
X772805Y60416D01*
X773789D02*
Y58448D01*
X775101D01*
X777068Y60416D02*
X775757D01*
Y58448D01*
X777068D01*
X775757Y59432D02*
X776412D01*
X779036Y60088D02*
X778708Y60416D01*
X778052D01*
X777724Y60088D01*
Y59760D01*
X778052Y59432D01*
X778708D01*
X779036Y59105D01*
Y58776D01*
X778708Y58448D01*
X778052D01*
X777724Y58776D01*
X812665Y95395D02*
X812337Y95723D01*
X811681D01*
X811353Y95395D01*
Y94083D01*
X811681Y93755D01*
X812337D01*
X812665Y94083D01*
X813321Y93755D02*
Y95067D01*
X813977Y95723D01*
X814633Y95067D01*
Y93755D01*
Y94739D01*
X813321D01*
X816601Y95395D02*
X816273Y95723D01*
X815617D01*
X815289Y95395D01*
Y95067D01*
X815617Y94739D01*
X816273D01*
X816601Y94411D01*
Y94083D01*
X816273Y93755D01*
X815617D01*
X815289Y94083D01*
X817257Y95723D02*
X818568D01*
X817912D01*
Y93755D01*
X820536Y95723D02*
X819224D01*
Y93755D01*
X820536D01*
X819224Y94739D02*
X819880D01*
X821192Y95723D02*
Y93755D01*
X822504D01*
X823160Y95723D02*
Y93755D01*
X824472D01*
X825128D02*
Y95067D01*
X825784Y95723D01*
X826440Y95067D01*
Y93755D01*
Y94739D01*
X825128D01*
X827096Y95723D02*
X828408D01*
X827752D01*
Y93755D01*
X830375Y95723D02*
X829064D01*
Y93755D01*
X830375D01*
X829064Y94739D02*
X829720D01*
X831032Y95723D02*
Y93755D01*
X832015D01*
X832343Y94083D01*
Y95395D01*
X832015Y95723D01*
X831032D01*
X811353Y92416D02*
Y90448D01*
Y91432D01*
X812665D01*
Y92416D01*
Y90448D01*
X814305Y92416D02*
X813649D01*
X813321Y92088D01*
Y90776D01*
X813649Y90448D01*
X814305D01*
X814633Y90776D01*
Y92088D01*
X814305Y92416D01*
X815289D02*
Y90448D01*
X816601D01*
X818568Y92416D02*
X817257D01*
Y90448D01*
X818568D01*
X817257Y91432D02*
X817912D01*
X820536Y92088D02*
X820208Y92416D01*
X819552D01*
X819224Y92088D01*
Y91760D01*
X819552Y91432D01*
X820208D01*
X820536Y91105D01*
Y90776D01*
X820208Y90448D01*
X819552D01*
X819224Y90776D01*
X811706Y135340D02*
X811378Y135668D01*
X810722D01*
X810394Y135340D01*
Y134028D01*
X810722Y133700D01*
X811378D01*
X811706Y134028D01*
X812362Y133700D02*
Y135012D01*
X813017Y135668D01*
X813673Y135012D01*
Y133700D01*
Y134684D01*
X812362D01*
X815641Y135340D02*
X815313Y135668D01*
X814657D01*
X814329Y135340D01*
Y135012D01*
X814657Y134684D01*
X815313D01*
X815641Y134356D01*
Y134028D01*
X815313Y133700D01*
X814657D01*
X814329Y134028D01*
X816297Y135668D02*
X817609D01*
X816953D01*
Y133700D01*
X819577Y135668D02*
X818265D01*
Y133700D01*
X819577D01*
X818265Y134684D02*
X818921D01*
X820233Y135668D02*
Y133700D01*
X821545D01*
X822201Y135668D02*
Y133700D01*
X823513D01*
X824169D02*
Y135012D01*
X824825Y135668D01*
X825481Y135012D01*
Y133700D01*
Y134684D01*
X824169D01*
X826137Y135668D02*
X827448D01*
X826793D01*
Y133700D01*
X829416Y135668D02*
X828104D01*
Y133700D01*
X829416D01*
X828104Y134684D02*
X828760D01*
X830072Y135668D02*
Y133700D01*
X831056D01*
X831384Y134028D01*
Y135340D01*
X831056Y135668D01*
X830072D01*
X810394Y132362D02*
Y130394D01*
Y131378D01*
X811706D01*
Y132362D01*
Y130394D01*
X813346Y132362D02*
X812689D01*
X812362Y132034D01*
Y130722D01*
X812689Y130394D01*
X813346D01*
X813673Y130722D01*
Y132034D01*
X813346Y132362D01*
X814329D02*
Y130394D01*
X815641D01*
X817609Y132362D02*
X816297D01*
Y130394D01*
X817609D01*
X816297Y131378D02*
X816953D01*
X819577Y132034D02*
X819249Y132362D01*
X818593D01*
X818265Y132034D01*
Y131706D01*
X818593Y131378D01*
X819249D01*
X819577Y131050D01*
Y130722D01*
X819249Y130394D01*
X818593D01*
X818265Y130722D01*
D11*
X798097Y111684D02*
X801438Y108343D01*
X794094Y122542D02*
X795764Y120872D01*
X795312Y81888D02*
X796982Y80218D01*
X799315Y71030D02*
X802656Y67689D01*
X757815Y71030D02*
X761156Y67689D01*
X753812Y81888D02*
X755482Y80218D01*
X756597Y111684D02*
X759938Y108343D01*
X752594Y122542D02*
X754264Y120872D01*
M02*
