G04*
G04 #@! TF.GenerationSoftware,Altium Limited,Altium Designer,21.8.1 (53)*
G04*
G04 Layer_Color=65535*
%FSLAX25Y25*%
%MOIN*%
G70*
G04*
G04 #@! TF.SameCoordinates,A425E888-731D-4A4C-A054-258DEE0876F2*
G04*
G04*
G04 #@! TF.FilePolarity,Positive*
G04*
G01*
G75*
%ADD10C,0.00394*%
D10*
X719500Y140000D02*
G03*
X721500Y138000I2000J0D01*
G01*
X712500Y143000D02*
G03*
X710500Y141000I0J-2000D01*
G01*
X719500D02*
G03*
X717500Y143000I-2000J0D01*
G01*
X708500Y138000D02*
G03*
X710500Y140000I0J2000D01*
G01*
X732500Y133000D02*
G03*
X727500Y138000I-5000J0D01*
G01*
X703000D02*
G03*
X698000Y133000I0J-5000D01*
G01*
Y103500D02*
G03*
X699500Y102000I1500J0D01*
G01*
X731000D02*
G03*
X732500Y103500I0J1500D01*
G01*
X710507Y140039D02*
Y141039D01*
X719500Y140000D02*
Y141000D01*
X712500Y143000D02*
X717500D01*
X705750Y138000D02*
X708500D01*
X732500Y127000D02*
Y133000D01*
X721500Y138000D02*
X727500D01*
X703000D02*
X706875D01*
X698000Y127500D02*
Y133000D01*
Y103500D02*
Y127500D01*
X699500Y102000D02*
X731000D01*
X732500Y103500D02*
Y127000D01*
X730500Y102000D02*
X731000D01*
M02*
