G04*
G04 #@! TF.GenerationSoftware,Altium Limited,Altium Designer,21.8.1 (53)*
G04*
G04 Layer_Physical_Order=2*
G04 Layer_Color=16711680*
%FSLAX25Y25*%
%MOIN*%
G70*
G04*
G04 #@! TF.SameCoordinates,A425E888-731D-4A4C-A054-258DEE0876F2*
G04*
G04*
G04 #@! TF.FilePolarity,Positive*
G04*
G01*
G75*
%ADD19C,0.01000*%
%ADD21C,0.00591*%
%ADD23C,0.07087*%
G04:AMPARAMS|DCode=24|XSize=27.56mil|YSize=60.63mil|CornerRadius=6.89mil|HoleSize=0mil|Usage=FLASHONLY|Rotation=90.000|XOffset=0mil|YOffset=0mil|HoleType=Round|Shape=RoundedRectangle|*
%AMROUNDEDRECTD24*
21,1,0.02756,0.04685,0,0,90.0*
21,1,0.01378,0.06063,0,0,90.0*
1,1,0.01378,0.02343,0.00689*
1,1,0.01378,0.02343,-0.00689*
1,1,0.01378,-0.02343,-0.00689*
1,1,0.01378,-0.02343,0.00689*
%
%ADD24ROUNDEDRECTD24*%
%ADD25C,0.02362*%
%ADD26R,0.02165X0.02362*%
%ADD27R,0.01831X0.01575*%
G04:AMPARAMS|DCode=28|XSize=39.37mil|YSize=39.37mil|CornerRadius=9.84mil|HoleSize=0mil|Usage=FLASHONLY|Rotation=270.000|XOffset=0mil|YOffset=0mil|HoleType=Round|Shape=RoundedRectangle|*
%AMROUNDEDRECTD28*
21,1,0.03937,0.01968,0,0,270.0*
21,1,0.01968,0.03937,0,0,270.0*
1,1,0.01968,-0.00984,-0.00984*
1,1,0.01968,-0.00984,0.00984*
1,1,0.01968,0.00984,0.00984*
1,1,0.01968,0.00984,-0.00984*
%
%ADD28ROUNDEDRECTD28*%
%ADD29R,0.02362X0.04724*%
G04:AMPARAMS|DCode=30|XSize=39.37mil|YSize=118.11mil|CornerRadius=9.84mil|HoleSize=0mil|Usage=FLASHONLY|Rotation=180.000|XOffset=0mil|YOffset=0mil|HoleType=Round|Shape=RoundedRectangle|*
%AMROUNDEDRECTD30*
21,1,0.03937,0.09843,0,0,180.0*
21,1,0.01968,0.11811,0,0,180.0*
1,1,0.01968,-0.00984,0.04921*
1,1,0.01968,0.00984,0.04921*
1,1,0.01968,0.00984,-0.04921*
1,1,0.01968,-0.00984,-0.04921*
%
%ADD30ROUNDEDRECTD30*%
%ADD31R,0.02756X0.02362*%
%ADD32R,0.02559X0.02520*%
%ADD33C,0.00984*%
D19*
X705275Y125000D02*
X707275Y127000D01*
X711858D02*
X712441Y126417D01*
X707275Y127000D02*
X711858D01*
X707454Y124917D02*
X710263D01*
X710944Y124236D01*
X711413D01*
X705118Y120866D02*
X705799Y121547D01*
Y123299D01*
X707000Y124500D02*
X707036D01*
X707454Y124917D01*
X705118Y107382D02*
Y120866D01*
X705799Y123299D02*
X707000Y124500D01*
X701378Y124378D02*
X702000Y125000D01*
X705275D01*
X711413Y124236D02*
X713209Y122441D01*
X713228D01*
X712512Y133425D02*
X712673Y133264D01*
Y130661D02*
X712835Y130500D01*
X712673Y130661D02*
Y133264D01*
X715320Y108820D02*
Y115320D01*
X716287Y116287D01*
Y117319D01*
X715054Y108554D02*
X715320Y108820D01*
X716968Y118000D02*
X717165D01*
X716287Y117319D02*
X716968Y118000D01*
X725933Y116433D02*
X727933D01*
X728000Y116500D01*
X724500Y115000D02*
X725933Y116433D01*
X724500Y111024D02*
Y115000D01*
X705118Y107382D02*
X706811Y105689D01*
X709311D01*
X710000Y105000D01*
X701378Y120866D02*
Y124378D01*
D21*
X730525Y121000D02*
Y123787D01*
X729903Y124409D02*
X730525Y123787D01*
X724356Y124409D02*
X729903D01*
X725000Y125500D02*
X730500D01*
X731616Y109731D02*
Y124384D01*
X730500Y125500D02*
X731616Y124384D01*
X730525Y116230D02*
Y121000D01*
X730391Y120866D02*
X730525Y121000D01*
X728240Y120866D02*
X730391D01*
X712512Y137008D02*
X716235D01*
X718741D02*
X722013D01*
X723521Y135500D01*
X718733Y137016D02*
X718741Y137008D01*
X716243Y137016D02*
X718733D01*
X716235Y137008D02*
X716243Y137016D01*
X723521Y135500D02*
X724000D01*
X720000Y128765D02*
Y130654D01*
X719654Y131000D02*
X720000Y130654D01*
Y128765D02*
X724356Y124409D01*
X717272Y131000D02*
X719654D01*
X721587Y128913D02*
X725000Y125500D01*
X719067Y135433D02*
X721587Y132913D01*
Y128913D02*
Y132913D01*
X717165Y130894D02*
X717272Y131000D01*
X717488Y135433D02*
X719067D01*
X726885Y105000D02*
X731616Y109731D01*
X728819Y114524D02*
X730525Y116230D01*
X728586Y114524D02*
X728819D01*
X728240Y114178D02*
X728586Y114524D01*
X728240Y111024D02*
Y114178D01*
X720000Y105000D02*
X726885D01*
D23*
X727008Y130000D02*
D03*
X702992D02*
D03*
D24*
X715000Y140500D02*
D03*
D25*
X724000Y135500D02*
D03*
X705118Y107382D02*
D03*
X728000Y116500D02*
D03*
X705500Y135500D02*
D03*
D26*
X717559Y126417D02*
D03*
X712441D02*
D03*
D27*
X717488Y135433D02*
D03*
X712512Y137008D02*
D03*
Y133858D02*
D03*
D28*
X720000Y105000D02*
D03*
X710000D02*
D03*
D29*
X708858Y120866D02*
D03*
X701378Y111024D02*
D03*
X708858D02*
D03*
X705118Y120866D02*
D03*
X701378D02*
D03*
X728240D02*
D03*
X724500D02*
D03*
X720760D02*
D03*
Y111024D02*
D03*
X724500D02*
D03*
X728240D02*
D03*
D30*
X715000Y108500D02*
D03*
D31*
X717165Y130894D02*
D03*
X712835D02*
D03*
X717165Y118000D02*
D03*
X712835D02*
D03*
D32*
X713228Y122441D02*
D03*
X716772D02*
D03*
D33*
X713721Y118886D02*
X715984Y121150D01*
Y121673D01*
X713031Y118000D02*
X713721Y118689D01*
X715984Y121673D02*
X716358Y122047D01*
X712835Y118000D02*
X713031D01*
X716358Y122047D02*
X716772D01*
X713721Y118689D02*
Y118886D01*
X722352Y124221D02*
X723048Y123524D01*
X717559Y123500D02*
X718280Y124221D01*
X717559Y122835D02*
Y123500D01*
X716772Y122047D02*
X717559Y122835D01*
X718280Y124221D02*
X722352D01*
X709500Y129500D02*
X710280Y128720D01*
X709500Y129500D02*
Y133500D01*
X710280Y128720D02*
X714937D01*
X717559Y126098D01*
Y126000D02*
Y126098D01*
X723048Y123499D02*
Y123524D01*
Y123499D02*
X724500Y122047D01*
Y120866D02*
Y122047D01*
X712266Y117431D02*
X712835Y118000D01*
X712266Y115342D02*
Y117431D01*
X711923Y115000D02*
X712266Y115342D01*
X708858Y114358D02*
X709500Y115000D01*
X711923D01*
X708858Y111024D02*
Y114358D01*
X705500Y135500D02*
X705764Y135236D01*
X707764D01*
X709500Y133500D01*
M02*
