G04*
G04 #@! TF.GenerationSoftware,Altium Limited,Altium Designer,21.8.1 (53)*
G04*
G04 Layer_Physical_Order=1*
G04 Layer_Color=255*
%FSLAX25Y25*%
%MOIN*%
G70*
G04*
G04 #@! TF.SameCoordinates,70F1876D-F365-445B-AC07-EFCD20848957*
G04*
G04*
G04 #@! TF.FilePolarity,Positive*
G04*
G01*
G75*
%ADD12R,0.02756X0.05906*%
%ADD13R,0.03937X0.03150*%
%ADD19C,0.01000*%
%ADD20R,0.12480X0.12480*%
%ADD21C,0.00591*%
%ADD22C,0.01394*%
%ADD23C,0.07087*%
G04:AMPARAMS|DCode=24|XSize=35.43mil|YSize=78.74mil|CornerRadius=15.95mil|HoleSize=0mil|Usage=FLASHONLY|Rotation=90.000|XOffset=0mil|YOffset=0mil|HoleType=Round|Shape=RoundedRectangle|*
%AMROUNDEDRECTD24*
21,1,0.03543,0.04685,0,0,90.0*
21,1,0.00354,0.07874,0,0,90.0*
1,1,0.03189,0.02343,0.00177*
1,1,0.03189,0.02343,-0.00177*
1,1,0.03189,-0.02343,-0.00177*
1,1,0.03189,-0.02343,0.00177*
%
%ADD24ROUNDEDRECTD24*%
%ADD25C,0.02362*%
D12*
X706547Y115390D02*
D03*
X718358D02*
D03*
X724264D02*
D03*
D13*
X701035Y112634D02*
D03*
X729776D02*
D03*
X701035Y104366D02*
D03*
X729776D02*
D03*
D19*
X707500Y129434D02*
G03*
X707500Y130566I-4508J566D01*
G01*
Y130566D02*
Y134000D01*
X706000Y135500D02*
X707207Y134293D01*
X707500Y125862D02*
Y129434D01*
X706547Y124909D02*
X707500Y125862D01*
X707207Y134293D02*
X707500Y134000D01*
X706547Y115390D02*
Y124909D01*
X718358Y115390D02*
Y119858D01*
X727508Y123508D02*
Y130000D01*
X726000Y122000D02*
X727508Y123508D01*
X718358Y119858D02*
X720500Y122000D01*
X726000D01*
D20*
X715000Y130000D02*
D03*
D21*
X728193Y135807D02*
X731500Y132500D01*
X724307Y135807D02*
X728193D01*
X715000Y130000D02*
X720500Y135500D01*
X724000D02*
X724307Y135807D01*
X720500Y135500D02*
X724000D01*
X731500Y120000D02*
Y132500D01*
X728000Y116500D02*
X731500Y120000D01*
D22*
X705118Y107382D02*
X715000Y117264D01*
Y130000D01*
D23*
X727008D02*
D03*
X702992D02*
D03*
D24*
X715009Y140734D02*
D03*
D25*
X724000Y135500D02*
D03*
X705118Y107382D02*
D03*
X728000Y116500D02*
D03*
X705500Y135500D02*
D03*
M02*
