G04*
G04 #@! TF.GenerationSoftware,Altium Limited,Altium Designer,21.8.1 (53)*
G04*
G04 Layer_Color=16711935*
%FSLAX25Y25*%
%MOIN*%
G70*
G04*
G04 #@! TF.SameCoordinates,A425E888-731D-4A4C-A054-258DEE0876F2*
G04*
G04*
G04 #@! TF.FilePolarity,Negative*
G04*
G01*
G75*
%ADD17C,0.07677*%
G04:AMPARAMS|DCode=18|XSize=33.47mil|YSize=66.53mil|CornerRadius=9.84mil|HoleSize=0mil|Usage=FLASHONLY|Rotation=90.000|XOffset=0mil|YOffset=0mil|HoleType=Round|Shape=RoundedRectangle|*
%AMROUNDEDRECTD18*
21,1,0.03347,0.04685,0,0,90.0*
21,1,0.01378,0.06653,0,0,90.0*
1,1,0.01968,0.02343,0.00689*
1,1,0.01968,0.02343,-0.00689*
1,1,0.01968,-0.02343,-0.00689*
1,1,0.01968,-0.02343,0.00689*
%
%ADD18ROUNDEDRECTD18*%
%ADD34R,0.02756X0.02953*%
%ADD35R,0.02421X0.02165*%
G04:AMPARAMS|DCode=36|XSize=45.28mil|YSize=45.28mil|CornerRadius=12.8mil|HoleSize=0mil|Usage=FLASHONLY|Rotation=270.000|XOffset=0mil|YOffset=0mil|HoleType=Round|Shape=RoundedRectangle|*
%AMROUNDEDRECTD36*
21,1,0.04528,0.01968,0,0,270.0*
21,1,0.01968,0.04528,0,0,270.0*
1,1,0.02559,-0.00984,-0.00984*
1,1,0.02559,-0.00984,0.00984*
1,1,0.02559,0.00984,0.00984*
1,1,0.02559,0.00984,-0.00984*
%
%ADD36ROUNDEDRECTD36*%
%ADD37R,0.02953X0.05315*%
G04:AMPARAMS|DCode=38|XSize=45.28mil|YSize=124.02mil|CornerRadius=12.8mil|HoleSize=0mil|Usage=FLASHONLY|Rotation=180.000|XOffset=0mil|YOffset=0mil|HoleType=Round|Shape=RoundedRectangle|*
%AMROUNDEDRECTD38*
21,1,0.04528,0.09843,0,0,180.0*
21,1,0.01968,0.12402,0,0,180.0*
1,1,0.02559,-0.00984,0.04921*
1,1,0.02559,0.00984,0.04921*
1,1,0.02559,0.00984,-0.04921*
1,1,0.02559,-0.00984,-0.04921*
%
%ADD38ROUNDEDRECTD38*%
%ADD39R,0.03347X0.02953*%
%ADD40R,0.03150X0.03110*%
D17*
X727008Y130000D02*
D03*
X702992D02*
D03*
D18*
X715000Y140500D02*
D03*
D34*
X717559Y126417D02*
D03*
X712441D02*
D03*
D35*
X717488Y135433D02*
D03*
X712512Y137008D02*
D03*
Y133858D02*
D03*
D36*
X720000Y105000D02*
D03*
X710000D02*
D03*
D37*
X708858Y120866D02*
D03*
X701378Y111024D02*
D03*
X708858D02*
D03*
X705118Y120866D02*
D03*
X701378D02*
D03*
X728240D02*
D03*
X724500D02*
D03*
X720760D02*
D03*
Y111024D02*
D03*
X724500D02*
D03*
X728240D02*
D03*
D38*
X715000Y108500D02*
D03*
D39*
X717165Y130894D02*
D03*
X712835D02*
D03*
X717165Y118000D02*
D03*
X712835D02*
D03*
D40*
X713228Y122441D02*
D03*
X716772D02*
D03*
M02*
