G04*
G04 #@! TF.GenerationSoftware,Altium Limited,Altium Designer,21.8.1 (53)*
G04*
G04 Layer_Color=8388736*
%FSLAX25Y25*%
%MOIN*%
G70*
G04*
G04 #@! TF.SameCoordinates,EAB1D6EC-1EA1-4DD2-ABEC-5B70A443AB20*
G04*
G04*
G04 #@! TF.FilePolarity,Negative*
G04*
G01*
G75*
%ADD19R,0.02375X0.02631*%
%ADD20R,0.07690X0.03359*%
%ADD21R,0.04737X0.14580*%
%ADD22R,0.06706X0.14186*%
%ADD23R,0.03162X0.03556*%
%ADD24R,0.03320X0.03359*%
G04:AMPARAMS|DCode=25|XSize=61.15mil|YSize=204.85mil|CornerRadius=17.29mil|HoleSize=0mil|Usage=FLASHONLY|Rotation=135.000|XOffset=0mil|YOffset=0mil|HoleType=Round|Shape=RoundedRectangle|*
%AMROUNDEDRECTD25*
21,1,0.06115,0.17028,0,0,135.0*
21,1,0.02657,0.20485,0,0,135.0*
1,1,0.03458,0.05081,0.06960*
1,1,0.03458,0.06960,0.05081*
1,1,0.03458,-0.05081,-0.06960*
1,1,0.03458,-0.06960,-0.05081*
%
%ADD25ROUNDEDRECTD25*%
G04:AMPARAMS|DCode=26|XSize=61.15mil|YSize=204.85mil|CornerRadius=17.29mil|HoleSize=0mil|Usage=FLASHONLY|Rotation=45.000|XOffset=0mil|YOffset=0mil|HoleType=Round|Shape=RoundedRectangle|*
%AMROUNDEDRECTD26*
21,1,0.06115,0.17028,0,0,45.0*
21,1,0.02657,0.20485,0,0,45.0*
1,1,0.03458,0.06960,-0.05081*
1,1,0.03458,0.05081,-0.06960*
1,1,0.03458,-0.06960,0.05081*
1,1,0.03458,-0.05081,0.06960*
%
%ADD26ROUNDEDRECTD26*%
%ADD27C,0.09855*%
%ADD28C,0.06509*%
%ADD29C,0.09800*%
D19*
X78925Y145012D02*
D03*
X82075D02*
D03*
X80500Y149988D02*
D03*
D20*
X70772Y144500D02*
D03*
Y149500D02*
D03*
Y154500D02*
D03*
Y159500D02*
D03*
X42228D02*
D03*
Y154500D02*
D03*
Y149500D02*
D03*
Y144500D02*
D03*
D21*
X59921Y172000D02*
D03*
X52047D02*
D03*
D22*
X69173Y193850D02*
D03*
X42795D02*
D03*
D23*
X80500Y159165D02*
D03*
Y154835D02*
D03*
X34000Y159165D02*
D03*
Y154835D02*
D03*
D24*
Y144228D02*
D03*
Y147772D02*
D03*
D25*
X87106Y210142D02*
D03*
D26*
X25000Y210000D02*
D03*
D27*
X97445Y146095D02*
D03*
Y158299D02*
D03*
X15555D02*
D03*
Y146095D02*
D03*
D28*
X61811Y201500D02*
D03*
X50000D02*
D03*
D29*
X34000Y201000D02*
D03*
X77613Y200996D02*
D03*
M02*
