G04*
G04 #@! TF.GenerationSoftware,Altium Limited,Altium Designer,21.8.1 (53)*
G04*
G04 Layer_Color=32768*
%FSLAX25Y25*%
%MOIN*%
G70*
G04*
G04 #@! TF.SameCoordinates,EAB1D6EC-1EA1-4DD2-ABEC-5B70A443AB20*
G04*
G04*
G04 #@! TF.FilePolarity,Positive*
G04*
G01*
G75*
%ADD11C,0.01000*%
D11*
X38437Y186500D02*
G03*
X38437Y186500I-3937J0D01*
G01*
X95837Y213819D02*
G03*
X95947Y216399I-991J1335D01*
G01*
X93602Y218653D02*
G03*
X91022Y218763I-1335J-991D01*
G01*
X21010Y218790D02*
G03*
X18430Y218679I-1245J-1101D01*
G01*
X16085Y216425D02*
G03*
X16195Y213845I1101J-1245D01*
G01*
X102500Y164000D02*
G03*
X100086Y165000I-2414J-2414D01*
G01*
X98500Y139500D02*
G03*
X103500Y144500I0J5000D01*
G01*
X14474Y164914D02*
G03*
X9474Y159914I0J-5000D01*
G01*
X28527Y178251D02*
G03*
X20592Y164874I28117J-25723D01*
G01*
X20536Y139398D02*
G03*
X92486Y139460I35964J12603D01*
G01*
X9474Y142829D02*
G03*
X10474Y140414I3414J0D01*
G01*
X103500Y161586D02*
G03*
X102500Y164000I-3414J0D01*
G01*
X92608Y165129D02*
G03*
X83485Y179579I-35964J-12603D01*
G01*
X10474Y140414D02*
G03*
X12889Y139414I2414J2414D01*
G01*
X95767Y213910D02*
X95909D01*
X81258Y208974D02*
X91116Y218833D01*
X83500Y201643D02*
X95767Y213910D01*
X93602Y218653D02*
X95947Y216399D01*
X16085Y216425D02*
X18430Y218679D01*
X16123Y213936D02*
X28500Y201559D01*
X30775Y209000D02*
X33500D01*
X20916Y218859D02*
X30775Y209000D01*
X33500D02*
X81229D01*
X28500Y178500D02*
Y197000D01*
Y194000D02*
Y201559D01*
X9474Y143914D02*
Y159914D01*
X103500Y160500D02*
Y161586D01*
X93000Y165000D02*
X100086D01*
X83500Y179631D02*
Y201643D01*
X103500Y144500D02*
Y160500D01*
X92500Y139500D02*
X98500D01*
X14474Y164914D02*
X20474D01*
X9474Y142829D02*
Y143914D01*
X12889Y139414D02*
X19974D01*
M02*
