G04*
G04 #@! TF.GenerationSoftware,Altium Limited,Altium Designer,21.8.1 (53)*
G04*
G04 Layer_Physical_Order=2*
G04 Layer_Color=16711680*
%FSLAX25Y25*%
%MOIN*%
G70*
G04*
G04 #@! TF.SameCoordinates,FF865A40-9ECA-49BB-A520-BFC7B97F7BDB*
G04*
G04*
G04 #@! TF.FilePolarity,Positive*
G04*
G01*
G75*
%ADD11C,0.01000*%
G04:AMPARAMS|DCode=30|XSize=53.15mil|YSize=196.85mil|CornerRadius=13.29mil|HoleSize=0mil|Usage=FLASHONLY|Rotation=135.000|XOffset=0mil|YOffset=0mil|HoleType=Round|Shape=RoundedRectangle|*
%AMROUNDEDRECTD30*
21,1,0.05315,0.17028,0,0,135.0*
21,1,0.02657,0.19685,0,0,135.0*
1,1,0.02657,0.05081,0.06960*
1,1,0.02657,0.06960,0.05081*
1,1,0.02657,-0.05081,-0.06960*
1,1,0.02657,-0.06960,-0.05081*
%
%ADD30ROUNDEDRECTD30*%
G04:AMPARAMS|DCode=31|XSize=53.15mil|YSize=196.85mil|CornerRadius=13.29mil|HoleSize=0mil|Usage=FLASHONLY|Rotation=45.000|XOffset=0mil|YOffset=0mil|HoleType=Round|Shape=RoundedRectangle|*
%AMROUNDEDRECTD31*
21,1,0.05315,0.17028,0,0,45.0*
21,1,0.02657,0.19685,0,0,45.0*
1,1,0.02657,0.06960,-0.05081*
1,1,0.02657,0.05081,-0.06960*
1,1,0.02657,-0.06960,0.05081*
1,1,0.02657,-0.05081,0.06960*
%
%ADD31ROUNDEDRECTD31*%
%ADD32C,0.09055*%
%ADD33C,0.05709*%
%ADD34C,0.09000*%
%ADD35C,0.01968*%
%ADD36C,0.70079*%
%ADD37R,0.03937X0.03150*%
%ADD38R,0.02756X0.05906*%
%ADD39R,0.05000X0.02500*%
D11*
X77501Y189248D02*
Y197031D01*
X77500Y193100D02*
Y200883D01*
X77613Y200996D01*
X58680Y189390D02*
X58790Y189280D01*
X47024Y190024D02*
X48213Y188835D01*
X52764D01*
X52500Y192894D02*
Y193000D01*
Y192894D02*
X54204Y191190D01*
Y190908D02*
Y191190D01*
Y190908D02*
X55722Y189390D01*
X58680D01*
X47024Y190024D02*
Y193354D01*
X77000Y184500D02*
X77185Y184685D01*
X78157D01*
X81500Y188029D01*
X77950Y192650D02*
X80621D01*
X56500Y170150D02*
X76250Y189900D01*
X77500Y193100D02*
X77950Y192650D01*
X56500Y152000D02*
Y170150D01*
X80621Y192650D02*
X81500Y191771D01*
Y188029D02*
Y191771D01*
X76250Y189900D02*
X77500D01*
X47024Y193354D02*
X47047Y193378D01*
Y194610D01*
X34000Y194086D02*
Y201000D01*
Y194086D02*
X35586Y192500D01*
X46169D01*
X47047Y193378D01*
X58879Y189411D02*
X58900Y189390D01*
X58879Y189411D02*
Y194589D01*
X58858Y194610D02*
X58879Y194589D01*
D30*
X87106Y210142D02*
D03*
D31*
X25000Y210000D02*
D03*
D32*
X97445Y146095D02*
D03*
Y158299D02*
D03*
X15555D02*
D03*
Y146095D02*
D03*
D33*
X61811Y201500D02*
D03*
X50000D02*
D03*
D34*
X34000Y201000D02*
D03*
X77613Y200996D02*
D03*
D35*
X46500Y173000D02*
D03*
X52764Y188835D02*
D03*
X52500Y193000D02*
D03*
X77000Y184500D02*
D03*
X82500Y141500D02*
D03*
X70756Y163315D02*
D03*
X30223Y147694D02*
D03*
X58900Y189390D02*
D03*
D36*
X56500Y152000D02*
D03*
D37*
X41535Y197366D02*
D03*
Y205634D02*
D03*
X70276D02*
D03*
Y197366D02*
D03*
D38*
X64764Y194610D02*
D03*
X58858D02*
D03*
X47047D02*
D03*
D39*
X77500Y193100D02*
D03*
Y189900D02*
D03*
M02*
