G04*
G04 #@! TF.GenerationSoftware,Altium Limited,Altium Designer,21.8.1 (53)*
G04*
G04 Layer_Color=65535*
%FSLAX25Y25*%
%MOIN*%
G70*
G04*
G04 #@! TF.SameCoordinates,EAB1D6EC-1EA1-4DD2-ABEC-5B70A443AB20*
G04*
G04*
G04 #@! TF.FilePolarity,Positive*
G04*
G01*
G75*
%ADD10C,0.00787*%
%ADD11C,0.01000*%
%ADD12C,0.00394*%
G36*
X53326Y129279D02*
X53413Y129268D01*
X53435D01*
X53479Y129257D01*
X53534Y129246D01*
X53578Y129225D01*
X53588D01*
X53610Y129203D01*
X53643Y129181D01*
X53665Y129148D01*
X53676Y129126D01*
X53687Y129071D01*
Y129061D01*
Y129039D01*
X53665Y128973D01*
Y128962D01*
X53643Y128951D01*
X53621Y128919D01*
X53588Y128886D01*
X53578Y128875D01*
X53556Y128864D01*
X53501Y128831D01*
X53446Y128809D01*
X53435D01*
X53392Y128787D01*
X53326Y128776D01*
X53239Y128765D01*
X53206D01*
X53162Y128754D01*
X53086Y128744D01*
X53064D01*
X53009Y128733D01*
X52933Y128722D01*
X52834Y128700D01*
X52812D01*
X52758Y128689D01*
X52670Y128678D01*
X52583Y128656D01*
X52561D01*
X52517Y128645D01*
X52463Y128634D01*
X52408Y128623D01*
X52419D01*
X52397Y128612D01*
X52364Y128602D01*
X52310Y128591D01*
X52299D01*
X52255Y128580D01*
X52189Y128558D01*
X52113Y128536D01*
X52091D01*
X52036Y128525D01*
X51960Y128503D01*
X51862Y128470D01*
X51850D01*
X51840Y128459D01*
X51785Y128448D01*
X51697Y128416D01*
X51599Y128394D01*
X51577D01*
X51523Y128372D01*
X51446Y128350D01*
X51359Y128317D01*
X51337D01*
X51293Y128296D01*
X51238Y128285D01*
X51184Y128263D01*
X51173D01*
X51151Y128252D01*
X51107Y128230D01*
X51064Y128208D01*
X50954Y128142D01*
X50845Y128044D01*
Y128033D01*
X50823Y128022D01*
X50779Y127957D01*
X50714Y127847D01*
X50648Y127727D01*
Y127716D01*
X50637Y127705D01*
X50626Y127673D01*
X50604Y127618D01*
Y127607D01*
X50583Y127563D01*
X50561Y127508D01*
X50539Y127443D01*
Y127421D01*
X50517Y127377D01*
X50495Y127312D01*
X50462Y127224D01*
Y127202D01*
X50441Y127159D01*
X50419Y127093D01*
X50397Y127017D01*
Y127006D01*
X50375Y126962D01*
X50353Y126897D01*
X50331Y126831D01*
Y126820D01*
X50320Y126787D01*
X50309Y126743D01*
X50299Y126711D01*
X50287Y126689D01*
X50277Y126645D01*
Y126634D01*
Y126612D01*
Y126601D01*
X50287Y126590D01*
X50299D01*
X50331Y126601D01*
X50408Y126612D01*
X50506Y126634D01*
X50517D01*
X50539Y126645D01*
X50572Y126656D01*
X50626Y126667D01*
X50747Y126700D01*
X50900Y126754D01*
X50911D01*
X50943Y126765D01*
X50987Y126787D01*
X51053Y126798D01*
X51118Y126831D01*
X51206Y126853D01*
X51392Y126907D01*
X51402D01*
X51435Y126918D01*
X51490Y126940D01*
X51555Y126962D01*
X51708Y127006D01*
X51883Y127060D01*
X51894D01*
X51927Y127071D01*
X51971Y127082D01*
X52025Y127104D01*
X52167Y127148D01*
X52310Y127181D01*
X52320D01*
X52342Y127192D01*
X52419Y127213D01*
X52506Y127224D01*
X52583Y127235D01*
X52648D01*
X52703Y127213D01*
X52747Y127192D01*
X52758Y127181D01*
X52769Y127159D01*
X52780Y127137D01*
X52790Y127093D01*
Y127071D01*
X52780Y127017D01*
X52758Y126951D01*
X52703Y126875D01*
X52692Y126864D01*
X52637Y126820D01*
X52572Y126754D01*
X52473Y126700D01*
X52463D01*
X52441Y126689D01*
X52386Y126667D01*
X52310Y126634D01*
X52288D01*
X52233Y126612D01*
X52157Y126590D01*
X52058Y126558D01*
X52047D01*
X52036Y126547D01*
X51982Y126536D01*
X51894Y126503D01*
X51807Y126470D01*
X51785D01*
X51741Y126448D01*
X51687Y126437D01*
X51632Y126416D01*
X51621D01*
X51577Y126394D01*
X51512Y126372D01*
X51435Y126339D01*
X51249Y126273D01*
X51151Y126230D01*
X51064Y126197D01*
X51053D01*
X51031Y126186D01*
X50987Y126164D01*
X50932Y126142D01*
X50823Y126099D01*
X50703Y126055D01*
X50681Y126044D01*
X50626Y126022D01*
X50561Y126000D01*
X50495Y125967D01*
X50484D01*
X50451Y125945D01*
X50408Y125935D01*
X50364Y125913D01*
X50353D01*
X50320Y125902D01*
X50277Y125891D01*
X50222Y125880D01*
X50211D01*
X50167Y125869D01*
X50102Y125858D01*
X50014Y125836D01*
Y125825D01*
X49992Y125782D01*
X49971Y125705D01*
X49938Y125607D01*
Y125596D01*
Y125585D01*
X49927Y125552D01*
X49916Y125508D01*
X49894Y125410D01*
X49861Y125290D01*
Y125279D01*
X49850Y125257D01*
Y125235D01*
X49839Y125191D01*
X49817Y125093D01*
X49796Y124984D01*
Y124962D01*
X49785Y124907D01*
X49774Y124853D01*
Y124798D01*
Y124787D01*
Y124765D01*
Y124732D01*
X49785Y124699D01*
X49796Y124678D01*
X49828Y124656D01*
X49839D01*
X49872Y124645D01*
X49981D01*
X50036Y124656D01*
X50091D01*
X50167Y124667D01*
X50331Y124699D01*
X50342D01*
X50375Y124710D01*
X50419Y124721D01*
X50484Y124732D01*
X50550Y124754D01*
X50637Y124776D01*
X50812Y124831D01*
X50823D01*
X50845Y124842D01*
X50889Y124864D01*
X50943Y124885D01*
X51064Y124929D01*
X51195Y124995D01*
X51206D01*
X51227Y125016D01*
X51260Y125027D01*
X51304Y125049D01*
X51402Y125115D01*
X51512Y125170D01*
X51523D01*
X51534Y125180D01*
X51610Y125224D01*
X51697Y125268D01*
X51807Y125312D01*
X51818D01*
X51829Y125322D01*
X51894Y125344D01*
X51993Y125355D01*
X52113Y125366D01*
X52146D01*
X52200Y125355D01*
X52233D01*
X52288Y125333D01*
X52299D01*
X52310Y125322D01*
X52353Y125290D01*
X52364Y125279D01*
X52375Y125268D01*
X52386Y125235D01*
Y125202D01*
Y125180D01*
X52364Y125137D01*
X52331Y125071D01*
X52277Y124995D01*
X52266Y124973D01*
X52211Y124929D01*
X52146Y124874D01*
X52047Y124798D01*
X52036D01*
X52025Y124787D01*
X51960Y124743D01*
X51862Y124689D01*
X51741Y124623D01*
X51730D01*
X51708Y124612D01*
X51676Y124590D01*
X51643Y124579D01*
X51534Y124525D01*
X51402Y124459D01*
X51392D01*
X51370Y124448D01*
X51337Y124437D01*
X51293Y124415D01*
X51184Y124372D01*
X51064Y124317D01*
X51053D01*
X51031Y124306D01*
X51009Y124295D01*
X50965Y124284D01*
X50867Y124251D01*
X50757Y124219D01*
X50747D01*
X50703Y124197D01*
X50637Y124186D01*
X50550Y124153D01*
X50451Y124131D01*
X50342Y124098D01*
X50113Y124055D01*
X50102D01*
X50058Y124044D01*
X50003Y124033D01*
X49927D01*
X49850Y124022D01*
X49752Y124011D01*
X49566Y124000D01*
X49522D01*
X49468Y124011D01*
X49413D01*
X49271Y124044D01*
X49205Y124066D01*
X49151Y124098D01*
X49140D01*
X49129Y124120D01*
X49107Y124142D01*
X49085Y124175D01*
X49052Y124230D01*
X49031Y124284D01*
X49020Y124350D01*
X49009Y124437D01*
Y124448D01*
Y124459D01*
Y124514D01*
X49020Y124601D01*
X49042Y124699D01*
Y124710D01*
X49052Y124721D01*
X49063Y124787D01*
X49085Y124874D01*
X49118Y124995D01*
X49162Y125148D01*
X49216Y125301D01*
X49326Y125650D01*
Y125661D01*
X49337Y125672D01*
X49358Y125727D01*
X49380Y125825D01*
X49424Y125945D01*
X49468Y126088D01*
X49522Y126241D01*
X49621Y126579D01*
X49632Y126601D01*
X49643Y126656D01*
X49665Y126743D01*
X49697Y126853D01*
X49730Y126973D01*
X49774Y127104D01*
X49807Y127235D01*
X49839Y127356D01*
Y127366D01*
X49850Y127410D01*
X49872Y127465D01*
X49894Y127541D01*
X49938Y127716D01*
X49992Y127902D01*
Y127913D01*
X50003Y127946D01*
X50014Y127979D01*
X50036Y128033D01*
X50069Y128164D01*
X50113Y128296D01*
Y128306D01*
X50124Y128328D01*
X50134Y128361D01*
X50156Y128394D01*
X50200Y128503D01*
X50244Y128612D01*
X50255Y128634D01*
X50277Y128678D01*
X50299Y128733D01*
X50331Y128809D01*
X50342Y128831D01*
X50364Y128875D01*
X50408Y128940D01*
X50451Y129006D01*
X50462Y129017D01*
X50495Y129061D01*
X50539Y129104D01*
X50583Y129148D01*
X50594Y129159D01*
X50626Y129181D01*
X50670Y129192D01*
X50714Y129203D01*
X50801D01*
X50878Y129181D01*
X50943Y129159D01*
X50954Y129148D01*
X50987Y129137D01*
X51009Y129104D01*
X51031Y129071D01*
X51064Y128929D01*
X51151D01*
X51206Y128940D01*
X51217D01*
X51260Y128951D01*
X51315Y128962D01*
X51380Y128973D01*
X51392D01*
X51435Y128984D01*
X51490Y128995D01*
X51544Y129006D01*
X51555D01*
X51588Y129017D01*
X51621Y129039D01*
X51654Y129050D01*
X51665D01*
X51697Y129061D01*
X51741Y129071D01*
X51796Y129093D01*
X51938Y129126D01*
X52091Y129159D01*
X52102D01*
X52124Y129170D01*
X52167D01*
X52211Y129181D01*
X52331Y129214D01*
X52473Y129235D01*
X52485D01*
X52506Y129246D01*
X52539D01*
X52583Y129257D01*
X52703Y129268D01*
X52823Y129279D01*
X52889D01*
X52922Y129290D01*
X53250D01*
X53326Y129279D01*
D02*
G37*
G36*
X59534Y129509D02*
X59578Y129487D01*
X59589Y129476D01*
X59611Y129454D01*
X59644Y129421D01*
X59666Y129378D01*
X59676Y129367D01*
X59687Y129334D01*
X59709Y129290D01*
X59720Y129225D01*
Y129214D01*
X59731Y129170D01*
X59742Y129104D01*
Y129039D01*
Y129028D01*
Y129017D01*
Y128940D01*
X59731Y128842D01*
X59709Y128733D01*
Y128722D01*
Y128711D01*
X59698Y128645D01*
X59676Y128558D01*
X59654Y128459D01*
Y128438D01*
X59644Y128383D01*
X59622Y128296D01*
X59600Y128175D01*
Y128164D01*
Y128142D01*
X59589Y128099D01*
Y128055D01*
X59578Y127989D01*
X59567Y127913D01*
X59534Y127738D01*
Y127727D01*
X59523Y127694D01*
Y127651D01*
X59513Y127585D01*
X59491Y127508D01*
X59480Y127421D01*
X59447Y127213D01*
Y127202D01*
X59436Y127170D01*
Y127115D01*
X59414Y127039D01*
X59403Y126951D01*
X59392Y126864D01*
X59348Y126645D01*
Y126634D01*
X59338Y126601D01*
Y126536D01*
X59316Y126470D01*
X59305Y126383D01*
X59294Y126284D01*
X59250Y126077D01*
Y126066D01*
X59239Y126033D01*
Y125978D01*
X59228Y125902D01*
X59206Y125825D01*
X59196Y125738D01*
X59163Y125552D01*
Y125541D01*
Y125508D01*
X59152Y125465D01*
X59141Y125410D01*
X59119Y125268D01*
X59086Y125115D01*
Y125104D01*
Y125082D01*
X59075Y125049D01*
X59064Y125006D01*
X59053Y124907D01*
X59031Y124809D01*
Y124798D01*
X59021Y124776D01*
X59010Y124732D01*
X58999Y124678D01*
Y124667D01*
X58988Y124623D01*
X58966Y124568D01*
X58933Y124503D01*
X58922Y124492D01*
X58900Y124459D01*
X58868Y124415D01*
X58813Y124361D01*
X58802Y124350D01*
X58769Y124339D01*
X58715Y124317D01*
X58638Y124306D01*
X58605D01*
X58573Y124317D01*
X58529Y124339D01*
X58518Y124350D01*
X58496Y124372D01*
X58430Y124437D01*
Y124448D01*
X58408Y124470D01*
X58387Y124514D01*
X58365Y124557D01*
Y124568D01*
X58354Y124601D01*
X58343Y124678D01*
X59086Y128219D01*
Y128230D01*
X59097Y128241D01*
Y128296D01*
Y128306D01*
X59108Y128328D01*
Y128383D01*
Y128394D01*
Y128405D01*
X59097Y128448D01*
Y128459D01*
Y128470D01*
X59086Y128514D01*
Y128525D01*
X59075Y128536D01*
X59064Y128569D01*
X59053D01*
X59031Y128547D01*
X58999Y128525D01*
X58955Y128481D01*
X58846Y128383D01*
X58715Y128252D01*
X58704Y128241D01*
X58682Y128219D01*
X58649Y128186D01*
X58605Y128131D01*
X58485Y128000D01*
X58343Y127836D01*
X58332Y127825D01*
X58310Y127793D01*
X58277Y127749D01*
X58223Y127694D01*
X58168Y127618D01*
X58113Y127530D01*
X57971Y127345D01*
X57960Y127334D01*
X57938Y127301D01*
X57906Y127246D01*
X57862Y127192D01*
X57807Y127104D01*
X57742Y127028D01*
X57622Y126831D01*
X57611Y126820D01*
X57600Y126798D01*
X57567Y126754D01*
X57534Y126700D01*
X57436Y126558D01*
X57326Y126394D01*
X57315Y126383D01*
X57305Y126361D01*
X57272Y126317D01*
X57239Y126252D01*
X57141Y126110D01*
X57031Y125945D01*
X57020Y125935D01*
X57010Y125902D01*
X56977Y125858D01*
X56933Y125803D01*
X56835Y125650D01*
X56725Y125487D01*
X56714Y125476D01*
X56703Y125454D01*
X56671Y125410D01*
X56638Y125355D01*
X56550Y125213D01*
X56463Y125060D01*
X56452Y125038D01*
X56430Y124995D01*
X56387Y124907D01*
X56343Y124798D01*
Y124787D01*
X56332Y124776D01*
X56310Y124699D01*
X56266Y124601D01*
X56212Y124492D01*
Y124481D01*
X56201Y124470D01*
X56168Y124404D01*
X56113Y124328D01*
X56048Y124241D01*
X56037Y124230D01*
X55993Y124197D01*
X55938Y124153D01*
X55862Y124142D01*
X55818D01*
X55731Y124164D01*
X55720D01*
X55698Y124175D01*
X55676Y124197D01*
X55643Y124219D01*
Y124230D01*
X55621Y124251D01*
X55589Y124317D01*
Y124328D01*
Y124350D01*
X55578Y124393D01*
Y124437D01*
Y124448D01*
Y124492D01*
Y124547D01*
X55589Y124601D01*
Y124612D01*
X55599Y124656D01*
X55621Y124699D01*
X55632Y124754D01*
Y124765D01*
X55643Y124809D01*
X55665Y124874D01*
X55676Y124951D01*
X55709Y125049D01*
X55731Y125148D01*
X55785Y125377D01*
Y125388D01*
X55796Y125432D01*
X55818Y125497D01*
X55840Y125574D01*
X55862Y125672D01*
X55895Y125782D01*
X55960Y126022D01*
Y126033D01*
X55971Y126077D01*
X55993Y126142D01*
X56015Y126230D01*
X56037Y126328D01*
X56069Y126448D01*
X56135Y126700D01*
Y126711D01*
X56157Y126765D01*
X56168Y126831D01*
X56201Y126929D01*
X56222Y127039D01*
X56255Y127159D01*
X56288Y127301D01*
X56321Y127443D01*
X56332Y127465D01*
X56343Y127520D01*
X56365Y127596D01*
X56387Y127683D01*
Y127694D01*
X56397Y127705D01*
X56408Y127771D01*
X56419Y127858D01*
X56441Y127968D01*
Y127979D01*
X56452Y127989D01*
X56463Y128055D01*
X56474Y128142D01*
X56485Y128241D01*
Y128252D01*
Y128263D01*
X56496Y128317D01*
X56507Y128394D01*
Y128470D01*
Y128492D01*
Y128525D01*
Y128580D01*
X56496Y128623D01*
Y128634D01*
X56485Y128656D01*
X56474Y128667D01*
X56441Y128678D01*
X56419D01*
X56354Y128667D01*
X56266Y128634D01*
X56157Y128580D01*
X56146D01*
X56135Y128558D01*
X56069Y128514D01*
X55971Y128427D01*
X55862Y128317D01*
X55851Y128306D01*
X55840Y128296D01*
X55807Y128263D01*
X55774Y128219D01*
X55676Y128099D01*
X55567Y127957D01*
X55556Y127946D01*
X55545Y127924D01*
X55512Y127880D01*
X55479Y127825D01*
X55392Y127683D01*
X55294Y127520D01*
X55282Y127508D01*
X55272Y127487D01*
X55250Y127443D01*
X55217Y127388D01*
X55129Y127246D01*
X55042Y127082D01*
Y127071D01*
X55020Y127050D01*
X54998Y127006D01*
X54976Y126962D01*
X54911Y126831D01*
X54845Y126700D01*
Y126689D01*
X54834Y126678D01*
X54813Y126645D01*
X54791Y126601D01*
X54780Y126590D01*
X54769Y126558D01*
X54736Y126503D01*
X54703Y126426D01*
X54692Y126405D01*
X54671Y126350D01*
X54616Y126262D01*
X54561Y126142D01*
Y126131D01*
X54550Y126110D01*
X54528Y126077D01*
X54506Y126022D01*
X54485Y125956D01*
X54452Y125880D01*
X54419Y125793D01*
X54375Y125694D01*
Y125683D01*
X54353Y125650D01*
X54332Y125596D01*
X54299Y125519D01*
X54266Y125421D01*
X54222Y125312D01*
X54179Y125191D01*
X54124Y125060D01*
X54113Y125038D01*
X54102Y124995D01*
X54069Y124918D01*
X54036Y124809D01*
X53982Y124689D01*
X53927Y124536D01*
X53873Y124372D01*
X53807Y124186D01*
X53796Y124175D01*
X53785Y124142D01*
X53741Y124098D01*
X53687Y124055D01*
X53676Y124044D01*
X53643Y124033D01*
X53588Y124011D01*
X53523Y124000D01*
X53490D01*
X53424Y124011D01*
X53326Y124044D01*
X53250Y124098D01*
X53239Y124120D01*
X53206Y124164D01*
X53173Y124241D01*
X53162Y124339D01*
Y124350D01*
Y124382D01*
X53173Y124426D01*
X53184Y124481D01*
Y124492D01*
X53195Y124525D01*
X53217Y124590D01*
X53228Y124656D01*
X53260Y124743D01*
X53293Y124853D01*
X53370Y125082D01*
X53381Y125093D01*
X53392Y125137D01*
X53413Y125213D01*
X53446Y125301D01*
X53490Y125399D01*
X53545Y125519D01*
X53654Y125782D01*
X53665Y125803D01*
X53687Y125847D01*
X53720Y125913D01*
X53763Y126011D01*
X53807Y126120D01*
X53873Y126241D01*
X54004Y126514D01*
X54015Y126536D01*
X54036Y126579D01*
X54080Y126645D01*
X54124Y126743D01*
X54189Y126853D01*
X54255Y126973D01*
X54397Y127235D01*
X54408Y127257D01*
X54430Y127301D01*
X54474Y127366D01*
X54528Y127454D01*
X54594Y127552D01*
X54671Y127673D01*
X54823Y127902D01*
X54834Y127913D01*
X54856Y127957D01*
X54900Y128011D01*
X54955Y128088D01*
X55020Y128175D01*
X55097Y128274D01*
X55250Y128459D01*
X55261Y128470D01*
X55294Y128514D01*
X55337Y128569D01*
X55403Y128634D01*
X55414Y128656D01*
X55457Y128700D01*
X55523Y128765D01*
X55599Y128842D01*
X55610D01*
X55621Y128864D01*
X55676Y128908D01*
X55752Y128973D01*
X55840Y129050D01*
X55851D01*
X55862Y129071D01*
X55917Y129115D01*
X55993Y129170D01*
X56080Y129235D01*
X56091D01*
X56102Y129246D01*
X56157Y129290D01*
X56244Y129334D01*
X56332Y129378D01*
X56343D01*
X56354Y129388D01*
X56408Y129410D01*
X56474Y129421D01*
X56550Y129432D01*
X56572D01*
X56638Y129421D01*
X56714Y129410D01*
X56802Y129378D01*
X56824Y129367D01*
X56867Y129345D01*
X56922Y129301D01*
X56988Y129246D01*
X56999Y129235D01*
X57042Y129192D01*
X57075Y129126D01*
X57119Y129050D01*
X57130Y129028D01*
X57141Y128973D01*
X57152Y128886D01*
X57162Y128787D01*
Y128776D01*
Y128744D01*
Y128700D01*
X57152Y128656D01*
Y128645D01*
X57141Y128623D01*
Y128580D01*
X57130Y128536D01*
X56736Y126536D01*
X56747Y126547D01*
X56780Y126601D01*
X56824Y126667D01*
X56878Y126765D01*
Y126776D01*
X56900Y126787D01*
X56944Y126864D01*
X57010Y126962D01*
X57097Y127082D01*
X57108Y127093D01*
X57119Y127115D01*
X57141Y127148D01*
X57184Y127192D01*
X57261Y127312D01*
X57359Y127443D01*
X57370Y127454D01*
X57381Y127476D01*
X57403Y127508D01*
X57436Y127563D01*
X57523Y127673D01*
X57611Y127804D01*
X57622Y127815D01*
X57632Y127836D01*
X57654Y127869D01*
X57687Y127913D01*
X57764Y128011D01*
X57851Y128121D01*
Y128131D01*
X57873Y128142D01*
X57917Y128208D01*
X57971Y128285D01*
X58026Y128361D01*
X58091Y128438D01*
X58103Y128448D01*
X58135Y128492D01*
X58179Y128558D01*
X58245Y128634D01*
X58266Y128656D01*
X58310Y128700D01*
X58376Y128776D01*
X58452Y128864D01*
Y128875D01*
X58474Y128886D01*
X58518Y128940D01*
X58594Y129017D01*
X58682Y129104D01*
X58693Y129115D01*
X58704Y129126D01*
X58769Y129181D01*
X58846Y129246D01*
X58944Y129312D01*
X58955D01*
X58966Y129334D01*
X59021Y129367D01*
X59108Y129421D01*
X59196Y129465D01*
X59206D01*
X59217Y129476D01*
X59272Y129498D01*
X59348Y129520D01*
X59436Y129531D01*
X59491D01*
X59534Y129509D01*
D02*
G37*
G36*
X70683Y129869D02*
X70694D01*
X70727Y129859D01*
X70814Y129826D01*
X70825Y129815D01*
X70858Y129771D01*
X70902Y129694D01*
X70945Y129607D01*
Y129596D01*
X70956Y129585D01*
X70967Y129552D01*
X70978Y129509D01*
X70989Y129399D01*
X71000Y129246D01*
Y129235D01*
Y129225D01*
Y129159D01*
X70989Y129050D01*
X70967Y128919D01*
Y128908D01*
Y128886D01*
X70956Y128842D01*
X70945Y128787D01*
X70923Y128656D01*
X70891Y128492D01*
Y128481D01*
X70880Y128459D01*
Y128416D01*
X70858Y128350D01*
X70847Y128285D01*
X70836Y128208D01*
X70792Y128033D01*
Y128022D01*
X70781Y127989D01*
X70770Y127946D01*
X70759Y127891D01*
X70727Y127749D01*
X70683Y127585D01*
Y127574D01*
X70672Y127552D01*
X70661Y127508D01*
X70650Y127454D01*
X70617Y127323D01*
X70574Y127181D01*
Y127170D01*
X70563Y127148D01*
X70552Y127115D01*
X70541Y127082D01*
X70519Y126984D01*
X70486Y126885D01*
Y126875D01*
X70475Y126853D01*
X70464Y126809D01*
X70442Y126754D01*
X70399Y126623D01*
X70344Y126459D01*
Y126448D01*
X70333Y126426D01*
X70322Y126383D01*
X70300Y126317D01*
X70279Y126252D01*
X70257Y126175D01*
X70191Y126000D01*
Y125989D01*
X70180Y125956D01*
X70158Y125913D01*
X70136Y125847D01*
X70114Y125771D01*
X70082Y125683D01*
X70016Y125487D01*
Y125476D01*
X69994Y125443D01*
X69983Y125388D01*
X69951Y125322D01*
X69918Y125235D01*
X69885Y125137D01*
X69798Y124918D01*
Y124907D01*
X69787Y124896D01*
X69765Y124831D01*
X69721Y124743D01*
X69666Y124634D01*
Y124623D01*
X69656Y124612D01*
X69623Y124547D01*
X69579Y124470D01*
X69513Y124382D01*
X69503Y124361D01*
X69459Y124317D01*
X69393Y124262D01*
X69306Y124208D01*
X69284Y124197D01*
X69240Y124175D01*
X69164Y124153D01*
X69065Y124142D01*
X69011D01*
X68956Y124153D01*
X68890Y124164D01*
X68879D01*
X68836Y124175D01*
X68792Y124208D01*
X68737Y124251D01*
X68726Y124262D01*
X68694Y124306D01*
X68639Y124382D01*
X68563Y124470D01*
X68486Y124590D01*
X68398Y124721D01*
X68311Y124864D01*
X68224Y125016D01*
X68213Y125038D01*
X68180Y125093D01*
X68136Y125180D01*
X68082Y125290D01*
X68027Y125432D01*
X67950Y125585D01*
X67885Y125749D01*
X67808Y125924D01*
Y125935D01*
X67797Y125945D01*
X67775Y126000D01*
X67743Y126099D01*
X67699Y126219D01*
X67655Y126361D01*
X67601Y126525D01*
X67546Y126700D01*
X67491Y126875D01*
Y126885D01*
X67480Y126897D01*
X67470Y126962D01*
X67437Y127050D01*
X67404Y127170D01*
X67371Y127312D01*
X67327Y127465D01*
X67240Y127793D01*
X67218Y127869D01*
Y127880D01*
X67207Y127902D01*
X67185Y127979D01*
Y127989D01*
X67174Y128011D01*
X67163Y128066D01*
Y128077D01*
X67153Y128088D01*
X67131Y128131D01*
Y128142D01*
X67120Y128153D01*
X67109Y128164D01*
X67098D01*
X67087Y128153D01*
X67065Y128131D01*
X67043Y128088D01*
Y128077D01*
X67021Y128033D01*
X67000Y127979D01*
X66978Y127913D01*
Y127891D01*
X66956Y127847D01*
X66934Y127793D01*
X66912Y127716D01*
Y127705D01*
X66901Y127673D01*
X66890Y127629D01*
Y127607D01*
X66879Y127585D01*
X66868Y127541D01*
X66836Y127454D01*
X66803Y127334D01*
Y127323D01*
X66792Y127301D01*
X66781Y127268D01*
X66770Y127224D01*
X66737Y127093D01*
X66694Y126940D01*
Y126929D01*
X66682Y126907D01*
X66672Y126864D01*
X66661Y126798D01*
X66639Y126733D01*
X66617Y126656D01*
X66562Y126481D01*
Y126470D01*
X66551Y126437D01*
X66540Y126394D01*
X66519Y126328D01*
X66475Y126186D01*
X66420Y126011D01*
Y126000D01*
X66409Y125967D01*
X66398Y125924D01*
X66377Y125869D01*
X66333Y125738D01*
X66289Y125585D01*
Y125574D01*
X66278Y125552D01*
X66267Y125519D01*
X66256Y125476D01*
X66224Y125377D01*
X66191Y125279D01*
Y125268D01*
X66169Y125213D01*
X66147Y125137D01*
X66114Y125038D01*
Y125027D01*
X66103Y125016D01*
X66081Y124951D01*
X66059Y124853D01*
X66016Y124743D01*
Y124732D01*
X66005Y124721D01*
X65994Y124656D01*
X65961Y124568D01*
X65928Y124481D01*
Y124459D01*
X65907Y124415D01*
X65896Y124361D01*
X65885Y124317D01*
Y124306D01*
X65874Y124295D01*
X65852Y124241D01*
X65808Y124175D01*
X65754Y124120D01*
X65743Y124109D01*
X65710Y124087D01*
X65655Y124066D01*
X65589Y124055D01*
X65579D01*
X65557Y124066D01*
X65524Y124076D01*
X65480Y124098D01*
X65469Y124109D01*
X65447Y124120D01*
X65382Y124175D01*
Y124186D01*
X65360Y124208D01*
X65338Y124241D01*
X65316Y124284D01*
Y124295D01*
X65305Y124328D01*
X65294Y124393D01*
Y124404D01*
Y124415D01*
Y124448D01*
X65305Y124492D01*
Y124503D01*
X65327Y124547D01*
X65338Y124612D01*
X65371Y124699D01*
X65458Y125071D01*
X66519Y128492D01*
Y128514D01*
X66530Y128558D01*
X66551Y128612D01*
X66573Y128689D01*
X66584Y128711D01*
X66595Y128754D01*
X66628Y128820D01*
X66661Y128886D01*
X66672Y128897D01*
X66694Y128940D01*
X66737Y128984D01*
X66792Y129028D01*
X66803Y129039D01*
X66857Y129061D01*
X66923Y129082D01*
X67010Y129093D01*
X67032D01*
X67087Y129082D01*
X67163Y129061D01*
X67240Y129017D01*
X67262Y129006D01*
X67295Y128973D01*
X67360Y128929D01*
X67415Y128886D01*
X67437Y128875D01*
X67470Y128831D01*
X67535Y128754D01*
X67557Y128700D01*
X67590Y128634D01*
Y128623D01*
X67601Y128602D01*
X67623Y128558D01*
X67644Y128503D01*
X67666Y128438D01*
X67699Y128361D01*
X67765Y128175D01*
Y128164D01*
X67787Y128131D01*
X67797Y128066D01*
X67830Y128000D01*
X67852Y127902D01*
X67885Y127804D01*
X67928Y127683D01*
X67961Y127563D01*
Y127552D01*
X67983Y127508D01*
X68005Y127432D01*
X68027Y127345D01*
X68071Y127235D01*
X68103Y127115D01*
X68147Y126984D01*
X68191Y126842D01*
X68202Y126831D01*
X68213Y126776D01*
X68246Y126700D01*
X68278Y126612D01*
X68322Y126492D01*
X68366Y126361D01*
X68475Y126077D01*
X68486Y126055D01*
X68508Y126011D01*
X68541Y125935D01*
X68584Y125836D01*
X68639Y125716D01*
X68705Y125585D01*
X68847Y125312D01*
X68858Y125301D01*
X68868Y125279D01*
X68890Y125235D01*
X68912Y125180D01*
X68923Y125170D01*
X68945Y125137D01*
X68967Y125082D01*
X69000Y125027D01*
X69011Y125016D01*
X69033Y124995D01*
X69087Y124918D01*
X69098Y124907D01*
X69109Y124896D01*
X69120Y124885D01*
X69142Y124874D01*
X69153Y124885D01*
Y124896D01*
X69164Y124929D01*
Y124940D01*
X69175Y124962D01*
X69186Y125006D01*
X69196Y125060D01*
Y125071D01*
X69207Y125104D01*
X69229Y125159D01*
X69240Y125213D01*
Y125224D01*
X69251Y125257D01*
X69262Y125301D01*
X69273Y125333D01*
Y125344D01*
X69284Y125366D01*
X69295Y125399D01*
X69317Y125443D01*
X69360Y125574D01*
X69415Y125716D01*
Y125727D01*
X69426Y125749D01*
X69448Y125803D01*
X69470Y125858D01*
X69503Y125935D01*
X69535Y126022D01*
X69568Y126120D01*
X69601Y126230D01*
Y126241D01*
X69623Y126284D01*
X69634Y126350D01*
X69666Y126437D01*
X69699Y126536D01*
X69732Y126667D01*
X69776Y126798D01*
X69819Y126951D01*
X69830Y126973D01*
X69841Y127028D01*
X69863Y127115D01*
X69896Y127235D01*
X69940Y127377D01*
X69983Y127541D01*
X70027Y127727D01*
X70082Y127935D01*
Y127946D01*
X70093Y127957D01*
X70104Y128022D01*
X70126Y128121D01*
X70158Y128241D01*
Y128252D01*
X70169Y128274D01*
Y128306D01*
X70180Y128361D01*
X70213Y128481D01*
X70235Y128612D01*
Y128623D01*
X70246Y128645D01*
Y128678D01*
X70257Y128733D01*
X70279Y128842D01*
X70300Y128973D01*
Y128984D01*
X70311Y129006D01*
Y129039D01*
X70322Y129071D01*
X70333Y129170D01*
X70344Y129268D01*
Y129290D01*
Y129312D01*
Y129345D01*
Y129356D01*
Y129378D01*
Y129421D01*
X70355Y129465D01*
Y129476D01*
X70366Y129509D01*
Y129552D01*
X70377Y129607D01*
Y129618D01*
X70388Y129651D01*
X70421Y129738D01*
Y129749D01*
X70432Y129771D01*
X70453Y129804D01*
X70475Y129837D01*
X70486Y129848D01*
X70497Y129859D01*
X70530Y129869D01*
X70563Y129880D01*
X70639D01*
X70683Y129869D01*
D02*
G37*
G36*
X45675Y129257D02*
X45817D01*
X46112Y129235D01*
X46178D01*
X46254Y129225D01*
X46342Y129214D01*
X46451Y129203D01*
X46571Y129181D01*
X46823Y129126D01*
X46834D01*
X46877Y129115D01*
X46943Y129093D01*
X47030Y129061D01*
X47129Y129028D01*
X47238Y128984D01*
X47457Y128875D01*
X47468Y128864D01*
X47511Y128842D01*
X47566Y128809D01*
X47642Y128754D01*
X47730Y128689D01*
X47817Y128612D01*
X47927Y128525D01*
X48025Y128427D01*
X48047Y128405D01*
X48091Y128361D01*
X48145Y128285D01*
X48211Y128197D01*
Y128186D01*
X48233Y128175D01*
X48265Y128110D01*
X48320Y128022D01*
X48375Y127913D01*
Y127902D01*
X48386Y127891D01*
X48419Y127825D01*
X48451Y127716D01*
X48484Y127596D01*
Y127585D01*
X48495Y127563D01*
Y127530D01*
X48506Y127487D01*
X48517Y127366D01*
X48528Y127224D01*
Y127202D01*
Y127159D01*
Y127093D01*
X48517Y127006D01*
Y126984D01*
X48506Y126940D01*
Y126875D01*
X48495Y126809D01*
Y126787D01*
X48473Y126743D01*
X48451Y126656D01*
X48419Y126558D01*
X48375Y126448D01*
X48320Y126328D01*
X48200Y126077D01*
X48189Y126066D01*
X48167Y126022D01*
X48123Y125967D01*
X48080Y125891D01*
X48014Y125803D01*
X47938Y125705D01*
X47763Y125508D01*
X47752Y125497D01*
X47719Y125465D01*
X47664Y125421D01*
X47599Y125355D01*
X47522Y125290D01*
X47424Y125213D01*
X47216Y125071D01*
X47205Y125060D01*
X47161Y125038D01*
X47107Y125006D01*
X47030Y124962D01*
X46932Y124918D01*
X46834Y124864D01*
X46604Y124754D01*
X46593Y124743D01*
X46549Y124732D01*
X46484Y124710D01*
X46407Y124678D01*
X46309Y124645D01*
X46200Y124601D01*
X45959Y124525D01*
X45948D01*
X45905Y124514D01*
X45839Y124492D01*
X45752Y124470D01*
X45653Y124437D01*
X45544Y124404D01*
X45314Y124350D01*
X45303D01*
X45292Y124339D01*
X45227Y124328D01*
X45140Y124295D01*
X45019Y124273D01*
X44987D01*
X44954Y124262D01*
X44921Y124251D01*
X44812Y124241D01*
X44691Y124219D01*
X44659D01*
X44626Y124208D01*
X44593D01*
X44484Y124197D01*
X44363Y124186D01*
X44265D01*
X44167Y124175D01*
X43883D01*
X43795Y124186D01*
X43773D01*
X43729Y124197D01*
X43675Y124219D01*
X43620Y124241D01*
X43609Y124251D01*
X43587Y124262D01*
X43555Y124284D01*
X43522Y124317D01*
Y124328D01*
X43511Y124350D01*
X43500Y124415D01*
Y124426D01*
Y124459D01*
X43511Y124503D01*
X43533Y124557D01*
X43544Y124568D01*
X43566Y124601D01*
X43609Y124656D01*
X43675Y124710D01*
X43686D01*
X43708Y124732D01*
X43740Y124743D01*
X43773Y124765D01*
X43883Y124820D01*
X44003Y124853D01*
X44014D01*
X44036Y124864D01*
X44068D01*
X44112Y124874D01*
X44232Y124885D01*
X44363Y124907D01*
X45260Y128525D01*
X45096D01*
X45030Y128536D01*
X45019D01*
X44987Y128547D01*
X44932Y128558D01*
X44877Y128569D01*
X44866D01*
X44833Y128580D01*
X44790Y128602D01*
X44757Y128623D01*
X44746Y128645D01*
X44713Y128689D01*
Y128700D01*
X44702Y128722D01*
X44659Y128776D01*
Y128787D01*
X44648Y128809D01*
X44615Y128875D01*
Y128886D01*
Y128908D01*
X44604Y128984D01*
Y128995D01*
X44615Y129028D01*
X44637Y129071D01*
X44669Y129115D01*
X44680Y129126D01*
X44713Y129148D01*
X44768Y129181D01*
X44833Y129203D01*
X44855Y129214D01*
X44899Y129225D01*
X44976Y129235D01*
X45063Y129246D01*
X45085D01*
X45140Y129257D01*
X45205Y129268D01*
X45544D01*
X45675Y129257D01*
D02*
G37*
G36*
X63021Y129203D02*
X63087Y129181D01*
X63098Y129170D01*
X63141Y129159D01*
X63207Y129115D01*
X63272Y129061D01*
X63283Y129039D01*
X63327Y128995D01*
X63338D01*
X63349Y128984D01*
X63393Y128973D01*
X63403Y128984D01*
X63415Y128995D01*
X63425Y129028D01*
X63436Y129039D01*
X63458Y129071D01*
X63469Y129082D01*
X63502Y129104D01*
X63513Y129115D01*
X63546Y129126D01*
X63589Y129137D01*
X63644Y129148D01*
X63655D01*
X63699Y129159D01*
X63873D01*
X63917Y129148D01*
X64016Y129137D01*
X64125Y129093D01*
X64136D01*
X64147Y129082D01*
X64212Y129050D01*
X64300Y129006D01*
X64398Y128929D01*
X64409Y128919D01*
X64442Y128886D01*
X64486Y128831D01*
X64551Y128754D01*
X64617Y128667D01*
X64682Y128569D01*
X64748Y128448D01*
X64803Y128317D01*
X64814Y128306D01*
X64824Y128252D01*
X64846Y128186D01*
X64879Y128088D01*
X64901Y127979D01*
X64923Y127847D01*
X64934Y127716D01*
X64945Y127563D01*
Y127541D01*
Y127498D01*
Y127421D01*
X64934Y127323D01*
X64923Y127213D01*
X64901Y127071D01*
X64868Y126929D01*
X64835Y126776D01*
Y126765D01*
X64824Y126711D01*
X64803Y126645D01*
X64770Y126547D01*
X64737Y126437D01*
X64693Y126317D01*
X64573Y126055D01*
X64562Y126044D01*
X64540Y126000D01*
X64508Y125924D01*
X64453Y125836D01*
X64398Y125738D01*
X64322Y125629D01*
X64158Y125388D01*
X64147Y125377D01*
X64114Y125333D01*
X64070Y125279D01*
X64005Y125202D01*
X63928Y125115D01*
X63841Y125027D01*
X63644Y124831D01*
X63633Y124820D01*
X63600Y124787D01*
X63535Y124743D01*
X63458Y124678D01*
X63371Y124612D01*
X63261Y124536D01*
X63032Y124393D01*
X63021Y124382D01*
X62977Y124361D01*
X62912Y124328D01*
X62824Y124295D01*
X62715Y124241D01*
X62606Y124197D01*
X62343Y124120D01*
X62332D01*
X62289Y124109D01*
X62212Y124087D01*
X62125Y124076D01*
X62015Y124055D01*
X61895Y124033D01*
X61633Y124022D01*
X61578D01*
X61513Y124033D01*
X61425D01*
X61338Y124044D01*
X61229Y124066D01*
X61021Y124120D01*
X61010D01*
X60977Y124142D01*
X60922Y124164D01*
X60868Y124197D01*
X60715Y124284D01*
X60562Y124404D01*
X60551Y124415D01*
X60529Y124437D01*
X60496Y124481D01*
X60452Y124536D01*
X60409Y124601D01*
X60365Y124678D01*
X60277Y124853D01*
Y124864D01*
X60267Y124896D01*
X60245Y124951D01*
X60234Y125027D01*
X60212Y125115D01*
X60190Y125213D01*
X60179Y125432D01*
Y125443D01*
Y125454D01*
Y125519D01*
Y125607D01*
X60190Y125705D01*
Y125716D01*
Y125727D01*
X60201Y125793D01*
X60223Y125880D01*
X60245Y125989D01*
Y126000D01*
X60256Y126033D01*
X60277Y126088D01*
X60289Y126164D01*
X60321Y126241D01*
X60354Y126339D01*
X60431Y126536D01*
X60441Y126547D01*
X60452Y126590D01*
X60485Y126645D01*
X60518Y126711D01*
X60562Y126798D01*
X60605Y126897D01*
X60726Y127104D01*
X60737Y127115D01*
X60759Y127148D01*
X60791Y127213D01*
X60835Y127279D01*
X60890Y127366D01*
X60944Y127465D01*
X61086Y127662D01*
X61097Y127673D01*
X61119Y127705D01*
X61163Y127760D01*
X61217Y127825D01*
X61283Y127913D01*
X61360Y128000D01*
X61513Y128186D01*
X61524Y128197D01*
X61556Y128230D01*
X61600Y128274D01*
X61655Y128339D01*
X61731Y128416D01*
X61808Y128492D01*
X61983Y128667D01*
X61994Y128678D01*
X62026Y128711D01*
X62070Y128754D01*
X62136Y128809D01*
X62212Y128875D01*
X62289Y128940D01*
X62475Y129082D01*
X62496Y129093D01*
X62540Y129126D01*
X62606Y129170D01*
X62682Y129192D01*
X62704D01*
X62748Y129203D01*
X62813Y129214D01*
X62955D01*
X63021Y129203D01*
D02*
G37*
G36*
X57220Y137279D02*
X57307Y137268D01*
X57329D01*
X57373Y137257D01*
X57427Y137246D01*
X57471Y137224D01*
X57482D01*
X57504Y137203D01*
X57537Y137181D01*
X57558Y137148D01*
X57569Y137126D01*
X57580Y137072D01*
Y137061D01*
Y137039D01*
X57558Y136973D01*
Y136962D01*
X57537Y136951D01*
X57515Y136918D01*
X57482Y136886D01*
X57471Y136875D01*
X57449Y136864D01*
X57394Y136831D01*
X57340Y136809D01*
X57329D01*
X57285Y136787D01*
X57220Y136776D01*
X57132Y136766D01*
X57099D01*
X57056Y136755D01*
X56979Y136744D01*
X56957D01*
X56903Y136733D01*
X56826Y136722D01*
X56728Y136700D01*
X56706D01*
X56651Y136689D01*
X56564Y136678D01*
X56476Y136656D01*
X56454D01*
X56411Y136645D01*
X56356Y136634D01*
X56301Y136623D01*
X56312D01*
X56291Y136612D01*
X56258Y136601D01*
X56203Y136591D01*
X56192D01*
X56148Y136580D01*
X56083Y136558D01*
X56006Y136536D01*
X55984D01*
X55930Y136525D01*
X55853Y136503D01*
X55755Y136470D01*
X55744D01*
X55733Y136459D01*
X55678Y136449D01*
X55591Y136416D01*
X55493Y136394D01*
X55471D01*
X55416Y136372D01*
X55340Y136350D01*
X55252Y136317D01*
X55230D01*
X55187Y136295D01*
X55132Y136285D01*
X55077Y136263D01*
X55066D01*
X55045Y136252D01*
X55001Y136230D01*
X54957Y136208D01*
X54848Y136143D01*
X54738Y136044D01*
Y136033D01*
X54717Y136022D01*
X54673Y135957D01*
X54607Y135847D01*
X54542Y135727D01*
Y135716D01*
X54531Y135705D01*
X54520Y135672D01*
X54498Y135618D01*
Y135607D01*
X54476Y135563D01*
X54454Y135509D01*
X54432Y135443D01*
Y135421D01*
X54410Y135377D01*
X54389Y135312D01*
X54356Y135224D01*
Y135203D01*
X54334Y135159D01*
X54312Y135093D01*
X54290Y135017D01*
Y135006D01*
X54268Y134962D01*
X54247Y134897D01*
X54225Y134831D01*
Y134820D01*
X54214Y134787D01*
X54203Y134743D01*
X54192Y134711D01*
X54181Y134689D01*
X54170Y134645D01*
Y134634D01*
Y134612D01*
Y134601D01*
X54181Y134590D01*
X54192D01*
X54225Y134601D01*
X54301Y134612D01*
X54400Y134634D01*
X54410D01*
X54432Y134645D01*
X54465Y134656D01*
X54520Y134667D01*
X54640Y134700D01*
X54793Y134754D01*
X54804D01*
X54837Y134765D01*
X54880Y134787D01*
X54946Y134798D01*
X55012Y134831D01*
X55099Y134853D01*
X55285Y134907D01*
X55296D01*
X55329Y134918D01*
X55383Y134940D01*
X55449Y134962D01*
X55602Y135006D01*
X55777Y135060D01*
X55788D01*
X55821Y135071D01*
X55864Y135082D01*
X55919Y135104D01*
X56061Y135148D01*
X56203Y135181D01*
X56214D01*
X56236Y135192D01*
X56312Y135213D01*
X56400Y135224D01*
X56476Y135235D01*
X56542D01*
X56596Y135213D01*
X56640Y135192D01*
X56651Y135181D01*
X56662Y135159D01*
X56673Y135137D01*
X56684Y135093D01*
Y135071D01*
X56673Y135017D01*
X56651Y134951D01*
X56596Y134875D01*
X56586Y134864D01*
X56531Y134820D01*
X56465Y134754D01*
X56367Y134700D01*
X56356D01*
X56334Y134689D01*
X56280Y134667D01*
X56203Y134634D01*
X56181D01*
X56126Y134612D01*
X56050Y134590D01*
X55952Y134558D01*
X55941D01*
X55930Y134547D01*
X55875Y134536D01*
X55788Y134503D01*
X55700Y134470D01*
X55678D01*
X55635Y134448D01*
X55580Y134437D01*
X55525Y134415D01*
X55515D01*
X55471Y134394D01*
X55405Y134372D01*
X55329Y134339D01*
X55143Y134273D01*
X55045Y134230D01*
X54957Y134197D01*
X54946D01*
X54924Y134186D01*
X54880Y134164D01*
X54826Y134142D01*
X54717Y134099D01*
X54596Y134055D01*
X54575Y134044D01*
X54520Y134022D01*
X54454Y134000D01*
X54389Y133967D01*
X54378D01*
X54345Y133946D01*
X54301Y133935D01*
X54258Y133913D01*
X54247D01*
X54214Y133902D01*
X54170Y133891D01*
X54115Y133880D01*
X54105D01*
X54061Y133869D01*
X53995Y133858D01*
X53908Y133836D01*
Y133825D01*
X53886Y133782D01*
X53864Y133705D01*
X53831Y133607D01*
Y133596D01*
Y133585D01*
X53820Y133552D01*
X53809Y133508D01*
X53787Y133410D01*
X53755Y133290D01*
Y133279D01*
X53744Y133257D01*
Y133235D01*
X53733Y133191D01*
X53711Y133093D01*
X53689Y132984D01*
Y132962D01*
X53678Y132907D01*
X53667Y132852D01*
Y132798D01*
Y132787D01*
Y132765D01*
Y132732D01*
X53678Y132700D01*
X53689Y132678D01*
X53722Y132656D01*
X53733D01*
X53766Y132645D01*
X53875D01*
X53930Y132656D01*
X53984D01*
X54061Y132667D01*
X54225Y132700D01*
X54236D01*
X54268Y132710D01*
X54312Y132721D01*
X54378Y132732D01*
X54443Y132754D01*
X54531Y132776D01*
X54706Y132831D01*
X54717D01*
X54738Y132842D01*
X54782Y132863D01*
X54837Y132885D01*
X54957Y132929D01*
X55088Y132995D01*
X55099D01*
X55121Y133017D01*
X55154Y133027D01*
X55198Y133049D01*
X55296Y133115D01*
X55405Y133169D01*
X55416D01*
X55427Y133180D01*
X55503Y133224D01*
X55591Y133268D01*
X55700Y133312D01*
X55711D01*
X55722Y133323D01*
X55788Y133344D01*
X55886Y133355D01*
X56006Y133366D01*
X56039D01*
X56094Y133355D01*
X56126D01*
X56181Y133334D01*
X56192D01*
X56203Y133323D01*
X56247Y133290D01*
X56258Y133279D01*
X56269Y133268D01*
X56280Y133235D01*
Y133202D01*
Y133180D01*
X56258Y133137D01*
X56225Y133071D01*
X56170Y132995D01*
X56159Y132973D01*
X56105Y132929D01*
X56039Y132874D01*
X55941Y132798D01*
X55930D01*
X55919Y132787D01*
X55853Y132743D01*
X55755Y132689D01*
X55635Y132623D01*
X55624D01*
X55602Y132612D01*
X55569Y132590D01*
X55536Y132579D01*
X55427Y132525D01*
X55296Y132459D01*
X55285D01*
X55263Y132448D01*
X55230Y132437D01*
X55187Y132415D01*
X55077Y132372D01*
X54957Y132317D01*
X54946D01*
X54924Y132306D01*
X54902Y132295D01*
X54859Y132284D01*
X54760Y132251D01*
X54651Y132219D01*
X54640D01*
X54596Y132197D01*
X54531Y132186D01*
X54443Y132153D01*
X54345Y132131D01*
X54236Y132098D01*
X54006Y132055D01*
X53995D01*
X53952Y132044D01*
X53897Y132033D01*
X53820D01*
X53744Y132022D01*
X53645Y132011D01*
X53460Y132000D01*
X53416D01*
X53361Y132011D01*
X53307D01*
X53164Y132044D01*
X53099Y132066D01*
X53044Y132098D01*
X53033D01*
X53022Y132120D01*
X53001Y132142D01*
X52979Y132175D01*
X52946Y132229D01*
X52924Y132284D01*
X52913Y132350D01*
X52902Y132437D01*
Y132448D01*
Y132459D01*
Y132514D01*
X52913Y132601D01*
X52935Y132700D01*
Y132710D01*
X52946Y132721D01*
X52957Y132787D01*
X52979Y132874D01*
X53012Y132995D01*
X53055Y133148D01*
X53110Y133301D01*
X53219Y133650D01*
Y133661D01*
X53230Y133672D01*
X53252Y133727D01*
X53274Y133825D01*
X53317Y133946D01*
X53361Y134088D01*
X53416Y134241D01*
X53514Y134580D01*
X53525Y134601D01*
X53536Y134656D01*
X53558Y134743D01*
X53591Y134853D01*
X53624Y134973D01*
X53667Y135104D01*
X53700Y135235D01*
X53733Y135355D01*
Y135366D01*
X53744Y135410D01*
X53766Y135465D01*
X53787Y135541D01*
X53831Y135716D01*
X53886Y135902D01*
Y135913D01*
X53897Y135946D01*
X53908Y135978D01*
X53930Y136033D01*
X53962Y136164D01*
X54006Y136295D01*
Y136306D01*
X54017Y136328D01*
X54028Y136361D01*
X54050Y136394D01*
X54094Y136503D01*
X54137Y136612D01*
X54148Y136634D01*
X54170Y136678D01*
X54192Y136733D01*
X54225Y136809D01*
X54236Y136831D01*
X54258Y136875D01*
X54301Y136940D01*
X54345Y137006D01*
X54356Y137017D01*
X54389Y137061D01*
X54432Y137104D01*
X54476Y137148D01*
X54487Y137159D01*
X54520Y137181D01*
X54564Y137192D01*
X54607Y137203D01*
X54695D01*
X54771Y137181D01*
X54837Y137159D01*
X54848Y137148D01*
X54880Y137137D01*
X54902Y137104D01*
X54924Y137072D01*
X54957Y136929D01*
X55045D01*
X55099Y136940D01*
X55110D01*
X55154Y136951D01*
X55208Y136962D01*
X55274Y136973D01*
X55285D01*
X55329Y136984D01*
X55383Y136995D01*
X55438Y137006D01*
X55449D01*
X55482Y137017D01*
X55515Y137039D01*
X55547Y137050D01*
X55558D01*
X55591Y137061D01*
X55635Y137072D01*
X55689Y137093D01*
X55831Y137126D01*
X55984Y137159D01*
X55995D01*
X56017Y137170D01*
X56061D01*
X56105Y137181D01*
X56225Y137214D01*
X56367Y137235D01*
X56378D01*
X56400Y137246D01*
X56433D01*
X56476Y137257D01*
X56596Y137268D01*
X56717Y137279D01*
X56782D01*
X56815Y137290D01*
X57143D01*
X57220Y137279D01*
D02*
G37*
G36*
X67800Y137869D02*
X67811D01*
X67844Y137858D01*
X67931Y137826D01*
X67942Y137815D01*
X67975Y137771D01*
X68018Y137695D01*
X68062Y137607D01*
Y137596D01*
X68073Y137585D01*
X68084Y137552D01*
X68095Y137509D01*
X68106Y137399D01*
X68117Y137246D01*
Y137235D01*
Y137224D01*
Y137159D01*
X68106Y137050D01*
X68084Y136918D01*
Y136908D01*
Y136886D01*
X68073Y136842D01*
X68062Y136787D01*
X68040Y136656D01*
X68007Y136492D01*
Y136481D01*
X67997Y136459D01*
Y136416D01*
X67975Y136350D01*
X67964Y136285D01*
X67953Y136208D01*
X67909Y136033D01*
Y136022D01*
X67898Y135989D01*
X67887Y135946D01*
X67876Y135891D01*
X67844Y135749D01*
X67800Y135585D01*
Y135574D01*
X67789Y135552D01*
X67778Y135509D01*
X67767Y135454D01*
X67734Y135323D01*
X67690Y135181D01*
Y135170D01*
X67680Y135148D01*
X67669Y135115D01*
X67658Y135082D01*
X67636Y134984D01*
X67603Y134886D01*
Y134875D01*
X67592Y134853D01*
X67581Y134809D01*
X67559Y134754D01*
X67516Y134623D01*
X67461Y134459D01*
Y134448D01*
X67450Y134426D01*
X67439Y134383D01*
X67417Y134317D01*
X67395Y134252D01*
X67374Y134175D01*
X67308Y134000D01*
Y133989D01*
X67297Y133957D01*
X67275Y133913D01*
X67253Y133847D01*
X67231Y133771D01*
X67199Y133683D01*
X67133Y133486D01*
Y133475D01*
X67111Y133443D01*
X67100Y133388D01*
X67067Y133323D01*
X67035Y133235D01*
X67002Y133137D01*
X66914Y132918D01*
Y132907D01*
X66904Y132896D01*
X66882Y132831D01*
X66838Y132743D01*
X66783Y132634D01*
Y132623D01*
X66772Y132612D01*
X66740Y132546D01*
X66696Y132470D01*
X66630Y132383D01*
X66619Y132361D01*
X66576Y132317D01*
X66510Y132262D01*
X66423Y132208D01*
X66401Y132197D01*
X66357Y132175D01*
X66281Y132153D01*
X66182Y132142D01*
X66128D01*
X66073Y132153D01*
X66007Y132164D01*
X65996D01*
X65953Y132175D01*
X65909Y132208D01*
X65854Y132251D01*
X65843Y132262D01*
X65811Y132306D01*
X65756Y132383D01*
X65679Y132470D01*
X65603Y132590D01*
X65515Y132721D01*
X65428Y132863D01*
X65341Y133017D01*
X65330Y133038D01*
X65297Y133093D01*
X65253Y133180D01*
X65198Y133290D01*
X65144Y133432D01*
X65067Y133585D01*
X65002Y133749D01*
X64925Y133924D01*
Y133935D01*
X64914Y133946D01*
X64892Y134000D01*
X64860Y134099D01*
X64816Y134219D01*
X64772Y134361D01*
X64718Y134525D01*
X64663Y134700D01*
X64608Y134875D01*
Y134886D01*
X64597Y134897D01*
X64586Y134962D01*
X64554Y135049D01*
X64521Y135170D01*
X64488Y135312D01*
X64444Y135465D01*
X64357Y135793D01*
X64335Y135869D01*
Y135880D01*
X64324Y135902D01*
X64302Y135978D01*
Y135989D01*
X64291Y136011D01*
X64280Y136066D01*
Y136077D01*
X64269Y136088D01*
X64248Y136132D01*
Y136143D01*
X64237Y136153D01*
X64226Y136164D01*
X64215D01*
X64204Y136153D01*
X64182Y136132D01*
X64160Y136088D01*
Y136077D01*
X64138Y136033D01*
X64116Y135978D01*
X64095Y135913D01*
Y135891D01*
X64073Y135847D01*
X64051Y135793D01*
X64029Y135716D01*
Y135705D01*
X64018Y135672D01*
X64007Y135629D01*
Y135607D01*
X63996Y135585D01*
X63985Y135541D01*
X63952Y135454D01*
X63920Y135334D01*
Y135323D01*
X63909Y135301D01*
X63898Y135268D01*
X63887Y135224D01*
X63854Y135093D01*
X63810Y134940D01*
Y134929D01*
X63799Y134907D01*
X63788Y134864D01*
X63778Y134798D01*
X63756Y134732D01*
X63734Y134656D01*
X63679Y134481D01*
Y134470D01*
X63668Y134437D01*
X63657Y134394D01*
X63635Y134328D01*
X63592Y134186D01*
X63537Y134011D01*
Y134000D01*
X63526Y133967D01*
X63515Y133924D01*
X63493Y133869D01*
X63450Y133738D01*
X63406Y133585D01*
Y133574D01*
X63395Y133552D01*
X63384Y133519D01*
X63373Y133475D01*
X63340Y133377D01*
X63308Y133279D01*
Y133268D01*
X63286Y133213D01*
X63264Y133137D01*
X63231Y133038D01*
Y133027D01*
X63220Y133017D01*
X63198Y132951D01*
X63176Y132852D01*
X63133Y132743D01*
Y132732D01*
X63122Y132721D01*
X63111Y132656D01*
X63078Y132568D01*
X63045Y132481D01*
Y132459D01*
X63023Y132415D01*
X63012Y132361D01*
X63002Y132317D01*
Y132306D01*
X62991Y132295D01*
X62969Y132240D01*
X62925Y132175D01*
X62870Y132120D01*
X62859Y132109D01*
X62827Y132087D01*
X62772Y132066D01*
X62706Y132055D01*
X62695D01*
X62674Y132066D01*
X62641Y132077D01*
X62597Y132098D01*
X62586Y132109D01*
X62564Y132120D01*
X62499Y132175D01*
Y132186D01*
X62477Y132208D01*
X62455Y132240D01*
X62433Y132284D01*
Y132295D01*
X62422Y132328D01*
X62411Y132394D01*
Y132404D01*
Y132415D01*
Y132448D01*
X62422Y132492D01*
Y132503D01*
X62444Y132546D01*
X62455Y132612D01*
X62488Y132700D01*
X62575Y133071D01*
X63635Y136492D01*
Y136514D01*
X63646Y136558D01*
X63668Y136612D01*
X63690Y136689D01*
X63701Y136711D01*
X63712Y136755D01*
X63745Y136820D01*
X63778Y136886D01*
X63788Y136897D01*
X63810Y136940D01*
X63854Y136984D01*
X63909Y137028D01*
X63920Y137039D01*
X63974Y137061D01*
X64040Y137082D01*
X64127Y137093D01*
X64149D01*
X64204Y137082D01*
X64280Y137061D01*
X64357Y137017D01*
X64379Y137006D01*
X64411Y136973D01*
X64477Y136929D01*
X64532Y136886D01*
X64554Y136875D01*
X64586Y136831D01*
X64652Y136755D01*
X64674Y136700D01*
X64707Y136634D01*
Y136623D01*
X64718Y136601D01*
X64739Y136558D01*
X64761Y136503D01*
X64783Y136438D01*
X64816Y136361D01*
X64881Y136175D01*
Y136164D01*
X64903Y136132D01*
X64914Y136066D01*
X64947Y136000D01*
X64969Y135902D01*
X65002Y135804D01*
X65045Y135683D01*
X65078Y135563D01*
Y135552D01*
X65100Y135509D01*
X65122Y135432D01*
X65144Y135345D01*
X65188Y135235D01*
X65220Y135115D01*
X65264Y134984D01*
X65308Y134842D01*
X65319Y134831D01*
X65330Y134776D01*
X65362Y134700D01*
X65395Y134612D01*
X65439Y134492D01*
X65483Y134361D01*
X65592Y134077D01*
X65603Y134055D01*
X65625Y134011D01*
X65658Y133935D01*
X65701Y133836D01*
X65756Y133716D01*
X65821Y133585D01*
X65964Y133312D01*
X65974Y133301D01*
X65985Y133279D01*
X66007Y133235D01*
X66029Y133180D01*
X66040Y133169D01*
X66062Y133137D01*
X66084Y133082D01*
X66117Y133027D01*
X66128Y133017D01*
X66149Y132995D01*
X66204Y132918D01*
X66215Y132907D01*
X66226Y132896D01*
X66237Y132885D01*
X66259Y132874D01*
X66270Y132885D01*
Y132896D01*
X66281Y132929D01*
Y132940D01*
X66291Y132962D01*
X66302Y133006D01*
X66313Y133060D01*
Y133071D01*
X66324Y133104D01*
X66346Y133159D01*
X66357Y133213D01*
Y133224D01*
X66368Y133257D01*
X66379Y133301D01*
X66390Y133334D01*
Y133344D01*
X66401Y133366D01*
X66412Y133399D01*
X66434Y133443D01*
X66477Y133574D01*
X66532Y133716D01*
Y133727D01*
X66543Y133749D01*
X66565Y133803D01*
X66587Y133858D01*
X66619Y133935D01*
X66652Y134022D01*
X66685Y134120D01*
X66718Y134230D01*
Y134241D01*
X66740Y134284D01*
X66751Y134350D01*
X66783Y134437D01*
X66816Y134536D01*
X66849Y134667D01*
X66893Y134798D01*
X66936Y134951D01*
X66947Y134973D01*
X66958Y135028D01*
X66980Y135115D01*
X67013Y135235D01*
X67057Y135377D01*
X67100Y135541D01*
X67144Y135727D01*
X67199Y135935D01*
Y135946D01*
X67210Y135957D01*
X67220Y136022D01*
X67242Y136121D01*
X67275Y136241D01*
Y136252D01*
X67286Y136274D01*
Y136306D01*
X67297Y136361D01*
X67330Y136481D01*
X67352Y136612D01*
Y136623D01*
X67363Y136645D01*
Y136678D01*
X67374Y136733D01*
X67395Y136842D01*
X67417Y136973D01*
Y136984D01*
X67428Y137006D01*
Y137039D01*
X67439Y137072D01*
X67450Y137170D01*
X67461Y137268D01*
Y137290D01*
Y137312D01*
Y137345D01*
Y137356D01*
Y137378D01*
Y137421D01*
X67472Y137465D01*
Y137476D01*
X67483Y137509D01*
Y137552D01*
X67494Y137607D01*
Y137618D01*
X67505Y137651D01*
X67537Y137738D01*
Y137749D01*
X67548Y137771D01*
X67570Y137804D01*
X67592Y137837D01*
X67603Y137848D01*
X67614Y137858D01*
X67647Y137869D01*
X67680Y137880D01*
X67756D01*
X67800Y137869D01*
D02*
G37*
G36*
X52389D02*
X52399D01*
X52432Y137858D01*
X52520Y137826D01*
X52531Y137815D01*
X52563Y137771D01*
X52607Y137695D01*
X52651Y137607D01*
Y137596D01*
X52662Y137585D01*
X52673Y137552D01*
X52684Y137509D01*
X52694Y137399D01*
X52706Y137246D01*
Y137235D01*
Y137224D01*
Y137159D01*
X52694Y137050D01*
X52673Y136918D01*
Y136908D01*
Y136886D01*
X52662Y136842D01*
X52651Y136787D01*
X52629Y136656D01*
X52596Y136492D01*
Y136481D01*
X52585Y136459D01*
Y136416D01*
X52563Y136350D01*
X52552Y136285D01*
X52542Y136208D01*
X52498Y136033D01*
Y136022D01*
X52487Y135989D01*
X52476Y135946D01*
X52465Y135891D01*
X52432Y135749D01*
X52389Y135585D01*
Y135574D01*
X52378Y135552D01*
X52367Y135509D01*
X52356Y135454D01*
X52323Y135323D01*
X52279Y135181D01*
Y135170D01*
X52268Y135148D01*
X52257Y135115D01*
X52246Y135082D01*
X52224Y134984D01*
X52192Y134886D01*
Y134875D01*
X52181Y134853D01*
X52170Y134809D01*
X52148Y134754D01*
X52104Y134623D01*
X52050Y134459D01*
Y134448D01*
X52039Y134426D01*
X52028Y134383D01*
X52006Y134317D01*
X51984Y134252D01*
X51962Y134175D01*
X51897Y134000D01*
Y133989D01*
X51886Y133957D01*
X51864Y133913D01*
X51842Y133847D01*
X51820Y133771D01*
X51787Y133683D01*
X51722Y133486D01*
Y133475D01*
X51700Y133443D01*
X51689Y133388D01*
X51656Y133323D01*
X51623Y133235D01*
X51591Y133137D01*
X51503Y132918D01*
Y132907D01*
X51492Y132896D01*
X51470Y132831D01*
X51427Y132743D01*
X51372Y132634D01*
Y132623D01*
X51361Y132612D01*
X51328Y132546D01*
X51285Y132470D01*
X51219Y132383D01*
X51208Y132361D01*
X51164Y132317D01*
X51099Y132262D01*
X51011Y132208D01*
X50989Y132197D01*
X50946Y132175D01*
X50869Y132153D01*
X50771Y132142D01*
X50716D01*
X50661Y132153D01*
X50596Y132164D01*
X50585D01*
X50541Y132175D01*
X50498Y132208D01*
X50443Y132251D01*
X50432Y132262D01*
X50399Y132306D01*
X50345Y132383D01*
X50268Y132470D01*
X50192Y132590D01*
X50104Y132721D01*
X50017Y132863D01*
X49929Y133017D01*
X49918Y133038D01*
X49885Y133093D01*
X49842Y133180D01*
X49787Y133290D01*
X49733Y133432D01*
X49656Y133585D01*
X49590Y133749D01*
X49514Y133924D01*
Y133935D01*
X49503Y133946D01*
X49481Y134000D01*
X49448Y134099D01*
X49405Y134219D01*
X49361Y134361D01*
X49306Y134525D01*
X49252Y134700D01*
X49197Y134875D01*
Y134886D01*
X49186Y134897D01*
X49175Y134962D01*
X49142Y135049D01*
X49110Y135170D01*
X49077Y135312D01*
X49033Y135465D01*
X48946Y135793D01*
X48924Y135869D01*
Y135880D01*
X48913Y135902D01*
X48891Y135978D01*
Y135989D01*
X48880Y136011D01*
X48869Y136066D01*
Y136077D01*
X48858Y136088D01*
X48836Y136132D01*
Y136143D01*
X48825Y136153D01*
X48814Y136164D01*
X48803D01*
X48792Y136153D01*
X48771Y136132D01*
X48749Y136088D01*
Y136077D01*
X48727Y136033D01*
X48705Y135978D01*
X48683Y135913D01*
Y135891D01*
X48661Y135847D01*
X48640Y135793D01*
X48618Y135716D01*
Y135705D01*
X48607Y135672D01*
X48596Y135629D01*
Y135607D01*
X48585Y135585D01*
X48574Y135541D01*
X48541Y135454D01*
X48508Y135334D01*
Y135323D01*
X48497Y135301D01*
X48487Y135268D01*
X48476Y135224D01*
X48443Y135093D01*
X48399Y134940D01*
Y134929D01*
X48388Y134907D01*
X48377Y134864D01*
X48366Y134798D01*
X48344Y134732D01*
X48322Y134656D01*
X48268Y134481D01*
Y134470D01*
X48257Y134437D01*
X48246Y134394D01*
X48224Y134328D01*
X48180Y134186D01*
X48126Y134011D01*
Y134000D01*
X48115Y133967D01*
X48104Y133924D01*
X48082Y133869D01*
X48038Y133738D01*
X47995Y133585D01*
Y133574D01*
X47984Y133552D01*
X47973Y133519D01*
X47962Y133475D01*
X47929Y133377D01*
X47896Y133279D01*
Y133268D01*
X47874Y133213D01*
X47853Y133137D01*
X47820Y133038D01*
Y133027D01*
X47809Y133017D01*
X47787Y132951D01*
X47765Y132852D01*
X47721Y132743D01*
Y132732D01*
X47710Y132721D01*
X47699Y132656D01*
X47667Y132568D01*
X47634Y132481D01*
Y132459D01*
X47612Y132415D01*
X47601Y132361D01*
X47590Y132317D01*
Y132306D01*
X47579Y132295D01*
X47557Y132240D01*
X47514Y132175D01*
X47459Y132120D01*
X47448Y132109D01*
X47415Y132087D01*
X47361Y132066D01*
X47295Y132055D01*
X47284D01*
X47262Y132066D01*
X47229Y132077D01*
X47186Y132098D01*
X47175Y132109D01*
X47153Y132120D01*
X47087Y132175D01*
Y132186D01*
X47066Y132208D01*
X47044Y132240D01*
X47022Y132284D01*
Y132295D01*
X47011Y132328D01*
X47000Y132394D01*
Y132404D01*
Y132415D01*
Y132448D01*
X47011Y132492D01*
Y132503D01*
X47033Y132546D01*
X47044Y132612D01*
X47076Y132700D01*
X47164Y133071D01*
X48224Y136492D01*
Y136514D01*
X48235Y136558D01*
X48257Y136612D01*
X48279Y136689D01*
X48290Y136711D01*
X48301Y136755D01*
X48333Y136820D01*
X48366Y136886D01*
X48377Y136897D01*
X48399Y136940D01*
X48443Y136984D01*
X48497Y137028D01*
X48508Y137039D01*
X48563Y137061D01*
X48629Y137082D01*
X48716Y137093D01*
X48738D01*
X48792Y137082D01*
X48869Y137061D01*
X48946Y137017D01*
X48967Y137006D01*
X49000Y136973D01*
X49066Y136929D01*
X49120Y136886D01*
X49142Y136875D01*
X49175Y136831D01*
X49241Y136755D01*
X49262Y136700D01*
X49295Y136634D01*
Y136623D01*
X49306Y136601D01*
X49328Y136558D01*
X49350Y136503D01*
X49372Y136438D01*
X49405Y136361D01*
X49470Y136175D01*
Y136164D01*
X49492Y136132D01*
X49503Y136066D01*
X49536Y136000D01*
X49558Y135902D01*
X49590Y135804D01*
X49634Y135683D01*
X49667Y135563D01*
Y135552D01*
X49689Y135509D01*
X49711Y135432D01*
X49733Y135345D01*
X49776Y135235D01*
X49809Y135115D01*
X49853Y134984D01*
X49896Y134842D01*
X49907Y134831D01*
X49918Y134776D01*
X49951Y134700D01*
X49984Y134612D01*
X50028Y134492D01*
X50071Y134361D01*
X50181Y134077D01*
X50192Y134055D01*
X50213Y134011D01*
X50246Y133935D01*
X50290Y133836D01*
X50345Y133716D01*
X50410Y133585D01*
X50552Y133312D01*
X50563Y133301D01*
X50574Y133279D01*
X50596Y133235D01*
X50618Y133180D01*
X50629Y133169D01*
X50651Y133137D01*
X50673Y133082D01*
X50705Y133027D01*
X50716Y133017D01*
X50738Y132995D01*
X50793Y132918D01*
X50804Y132907D01*
X50815Y132896D01*
X50826Y132885D01*
X50847Y132874D01*
X50858Y132885D01*
Y132896D01*
X50869Y132929D01*
Y132940D01*
X50880Y132962D01*
X50891Y133006D01*
X50902Y133060D01*
Y133071D01*
X50913Y133104D01*
X50935Y133159D01*
X50946Y133213D01*
Y133224D01*
X50957Y133257D01*
X50968Y133301D01*
X50978Y133334D01*
Y133344D01*
X50989Y133366D01*
X51000Y133399D01*
X51022Y133443D01*
X51066Y133574D01*
X51121Y133716D01*
Y133727D01*
X51131Y133749D01*
X51153Y133803D01*
X51175Y133858D01*
X51208Y133935D01*
X51241Y134022D01*
X51274Y134120D01*
X51306Y134230D01*
Y134241D01*
X51328Y134284D01*
X51339Y134350D01*
X51372Y134437D01*
X51405Y134536D01*
X51438Y134667D01*
X51481Y134798D01*
X51525Y134951D01*
X51536Y134973D01*
X51547Y135028D01*
X51569Y135115D01*
X51601Y135235D01*
X51645Y135377D01*
X51689Y135541D01*
X51733Y135727D01*
X51787Y135935D01*
Y135946D01*
X51798Y135957D01*
X51809Y136022D01*
X51831Y136121D01*
X51864Y136241D01*
Y136252D01*
X51875Y136274D01*
Y136306D01*
X51886Y136361D01*
X51919Y136481D01*
X51940Y136612D01*
Y136623D01*
X51951Y136645D01*
Y136678D01*
X51962Y136733D01*
X51984Y136842D01*
X52006Y136973D01*
Y136984D01*
X52017Y137006D01*
Y137039D01*
X52028Y137072D01*
X52039Y137170D01*
X52050Y137268D01*
Y137290D01*
Y137312D01*
Y137345D01*
Y137356D01*
Y137378D01*
Y137421D01*
X52061Y137465D01*
Y137476D01*
X52071Y137509D01*
Y137552D01*
X52082Y137607D01*
Y137618D01*
X52093Y137651D01*
X52126Y137738D01*
Y137749D01*
X52137Y137771D01*
X52159Y137804D01*
X52181Y137837D01*
X52192Y137848D01*
X52203Y137858D01*
X52236Y137869D01*
X52268Y137880D01*
X52345D01*
X52389Y137869D01*
D02*
G37*
G36*
X60138Y137203D02*
X60203Y137181D01*
X60214Y137170D01*
X60258Y137159D01*
X60324Y137115D01*
X60389Y137061D01*
X60400Y137039D01*
X60444Y136995D01*
X60455D01*
X60466Y136984D01*
X60510Y136973D01*
X60520Y136984D01*
X60531Y136995D01*
X60542Y137028D01*
X60553Y137039D01*
X60575Y137072D01*
X60586Y137082D01*
X60619Y137104D01*
X60630Y137115D01*
X60663Y137126D01*
X60706Y137137D01*
X60761Y137148D01*
X60772D01*
X60816Y137159D01*
X60990D01*
X61034Y137148D01*
X61133Y137137D01*
X61242Y137093D01*
X61253D01*
X61264Y137082D01*
X61329Y137050D01*
X61417Y137006D01*
X61515Y136929D01*
X61526Y136918D01*
X61559Y136886D01*
X61602Y136831D01*
X61668Y136755D01*
X61734Y136667D01*
X61799Y136569D01*
X61865Y136449D01*
X61919Y136317D01*
X61930Y136306D01*
X61941Y136252D01*
X61963Y136186D01*
X61996Y136088D01*
X62018Y135978D01*
X62040Y135847D01*
X62051Y135716D01*
X62062Y135563D01*
Y135541D01*
Y135498D01*
Y135421D01*
X62051Y135323D01*
X62040Y135213D01*
X62018Y135071D01*
X61985Y134929D01*
X61952Y134776D01*
Y134765D01*
X61941Y134711D01*
X61919Y134645D01*
X61887Y134547D01*
X61854Y134437D01*
X61810Y134317D01*
X61690Y134055D01*
X61679Y134044D01*
X61657Y134000D01*
X61624Y133924D01*
X61570Y133836D01*
X61515Y133738D01*
X61439Y133629D01*
X61275Y133388D01*
X61264Y133377D01*
X61231Y133334D01*
X61187Y133279D01*
X61122Y133202D01*
X61045Y133115D01*
X60958Y133027D01*
X60761Y132831D01*
X60750Y132820D01*
X60717Y132787D01*
X60652Y132743D01*
X60575Y132678D01*
X60488Y132612D01*
X60378Y132536D01*
X60149Y132394D01*
X60138Y132383D01*
X60094Y132361D01*
X60029Y132328D01*
X59941Y132295D01*
X59832Y132240D01*
X59723Y132197D01*
X59460Y132120D01*
X59449D01*
X59406Y132109D01*
X59329Y132087D01*
X59242Y132077D01*
X59132Y132055D01*
X59012Y132033D01*
X58750Y132022D01*
X58695D01*
X58630Y132033D01*
X58542D01*
X58455Y132044D01*
X58345Y132066D01*
X58138Y132120D01*
X58127D01*
X58094Y132142D01*
X58039Y132164D01*
X57985Y132197D01*
X57832Y132284D01*
X57679Y132404D01*
X57668Y132415D01*
X57646Y132437D01*
X57613Y132481D01*
X57569Y132536D01*
X57526Y132601D01*
X57482Y132678D01*
X57394Y132852D01*
Y132863D01*
X57384Y132896D01*
X57362Y132951D01*
X57351Y133027D01*
X57329Y133115D01*
X57307Y133213D01*
X57296Y133432D01*
Y133443D01*
Y133454D01*
Y133519D01*
Y133607D01*
X57307Y133705D01*
Y133716D01*
Y133727D01*
X57318Y133792D01*
X57340Y133880D01*
X57362Y133989D01*
Y134000D01*
X57373Y134033D01*
X57394Y134088D01*
X57405Y134164D01*
X57438Y134241D01*
X57471Y134339D01*
X57547Y134536D01*
X57558Y134547D01*
X57569Y134590D01*
X57602Y134645D01*
X57635Y134711D01*
X57679Y134798D01*
X57722Y134897D01*
X57843Y135104D01*
X57854Y135115D01*
X57875Y135148D01*
X57908Y135213D01*
X57952Y135279D01*
X58007Y135366D01*
X58061Y135465D01*
X58203Y135662D01*
X58214Y135672D01*
X58236Y135705D01*
X58280Y135760D01*
X58334Y135826D01*
X58400Y135913D01*
X58477Y136000D01*
X58630Y136186D01*
X58640Y136197D01*
X58673Y136230D01*
X58717Y136274D01*
X58772Y136339D01*
X58848Y136416D01*
X58925Y136492D01*
X59100Y136667D01*
X59110Y136678D01*
X59143Y136711D01*
X59187Y136755D01*
X59253Y136809D01*
X59329Y136875D01*
X59406Y136940D01*
X59591Y137082D01*
X59613Y137093D01*
X59657Y137126D01*
X59723Y137170D01*
X59799Y137192D01*
X59821D01*
X59865Y137203D01*
X59930Y137214D01*
X60072D01*
X60138Y137203D01*
D02*
G37*
%LPC*%
G36*
X46069Y128591D02*
Y128580D01*
X46058Y128558D01*
X46047Y128525D01*
X46025Y128470D01*
X46003Y128405D01*
X45970Y128339D01*
X45915Y128153D01*
X45839Y127946D01*
X45763Y127705D01*
X45686Y127454D01*
X45610Y127181D01*
Y127170D01*
X45599Y127148D01*
X45588Y127115D01*
X45577Y127060D01*
X45566Y126995D01*
X45544Y126918D01*
X45500Y126733D01*
X45445Y126514D01*
X45380Y126273D01*
X45314Y126000D01*
X45249Y125727D01*
Y125716D01*
X45238Y125694D01*
Y125661D01*
X45216Y125618D01*
X45194Y125497D01*
X45150Y125355D01*
Y125344D01*
X45140Y125322D01*
Y125279D01*
X45129Y125235D01*
X45096Y125115D01*
X45074Y124973D01*
X45150Y124995D01*
X45161D01*
X45205Y125006D01*
X45271Y125027D01*
X45358Y125049D01*
X45369D01*
X45380Y125060D01*
X45456Y125071D01*
X45555Y125104D01*
X45675Y125137D01*
X45686D01*
X45708Y125148D01*
X45741Y125159D01*
X45784Y125170D01*
X45905Y125213D01*
X46036Y125268D01*
X46047D01*
X46069Y125279D01*
X46112Y125301D01*
X46167Y125322D01*
X46298Y125377D01*
X46451Y125443D01*
X46462D01*
X46484Y125465D01*
X46528Y125487D01*
X46582Y125519D01*
X46724Y125596D01*
X46877Y125683D01*
X46888Y125694D01*
X46910Y125705D01*
X46954Y125738D01*
X47008Y125771D01*
X47140Y125869D01*
X47282Y125978D01*
X47293Y125989D01*
X47315Y126000D01*
X47347Y126033D01*
X47402Y126077D01*
X47511Y126186D01*
X47621Y126306D01*
X47631Y126317D01*
X47642Y126339D01*
X47675Y126372D01*
X47708Y126426D01*
X47785Y126547D01*
X47861Y126689D01*
Y126700D01*
X47872Y126722D01*
X47894Y126765D01*
X47905Y126820D01*
X47938Y126951D01*
X47949Y127104D01*
Y127115D01*
Y127137D01*
Y127181D01*
X47938Y127235D01*
X47916Y127377D01*
X47861Y127520D01*
Y127530D01*
X47850Y127552D01*
X47828Y127596D01*
X47796Y127640D01*
X47719Y127760D01*
X47621Y127880D01*
X47610Y127891D01*
X47599Y127913D01*
X47566Y127935D01*
X47522Y127979D01*
X47413Y128077D01*
X47282Y128175D01*
X47271Y128186D01*
X47249Y128197D01*
X47216Y128219D01*
X47161Y128252D01*
X47041Y128328D01*
X46888Y128394D01*
X46877D01*
X46856Y128416D01*
X46812Y128427D01*
X46757Y128448D01*
X46626Y128492D01*
X46462Y128536D01*
X46451D01*
X46429Y128547D01*
X46385Y128558D01*
X46331Y128569D01*
X46211Y128580D01*
X46069Y128591D01*
D02*
G37*
G36*
X63436Y128602D02*
X63415D01*
X63403Y128591D01*
X63382Y128569D01*
X63371Y128558D01*
X63338Y128503D01*
Y128492D01*
X63327Y128481D01*
X63294Y128416D01*
Y128405D01*
X63283Y128394D01*
X63229Y128339D01*
X63218D01*
X63207Y128317D01*
X63141Y128285D01*
X63130D01*
X63108Y128274D01*
X63065Y128263D01*
X62977D01*
X62901Y128285D01*
X62890Y128296D01*
X62868Y128306D01*
X62802Y128361D01*
X62791Y128372D01*
X62770Y128394D01*
X62759Y128405D01*
X62737Y128416D01*
X62715D01*
X62682Y128405D01*
X62649Y128383D01*
X62638D01*
X62617Y128361D01*
X62551Y128306D01*
X62540D01*
X62518Y128285D01*
X62442Y128230D01*
X62431Y128219D01*
X62409Y128208D01*
X62354Y128153D01*
X62343Y128142D01*
X62310Y128110D01*
X62267Y128055D01*
X62201Y127989D01*
X62136Y127913D01*
X62048Y127815D01*
X61873Y127607D01*
X61862Y127596D01*
X61830Y127552D01*
X61786Y127498D01*
X61731Y127421D01*
X61655Y127323D01*
X61578Y127224D01*
X61425Y126995D01*
X61414Y126984D01*
X61392Y126940D01*
X61360Y126885D01*
X61305Y126798D01*
X61250Y126711D01*
X61196Y126601D01*
X61075Y126361D01*
X61064Y126350D01*
X61054Y126306D01*
X61021Y126241D01*
X60988Y126164D01*
X60955Y126077D01*
X60922Y125967D01*
X60857Y125749D01*
Y125738D01*
X60846Y125716D01*
Y125683D01*
X60835Y125639D01*
X60824Y125541D01*
X60813Y125432D01*
Y125421D01*
Y125399D01*
Y125355D01*
X60824Y125312D01*
X60846Y125191D01*
X60879Y125071D01*
Y125060D01*
X60890Y125049D01*
X60933Y124984D01*
X60999Y124907D01*
X61075Y124820D01*
X61086D01*
X61097Y124809D01*
X61163Y124765D01*
X61261Y124710D01*
X61382Y124667D01*
X61392D01*
X61414Y124656D01*
X61447Y124645D01*
X61502D01*
X61622Y124623D01*
X61775Y124612D01*
X61873D01*
X61928Y124623D01*
X62005Y124634D01*
X62092Y124645D01*
X62278Y124689D01*
X62289D01*
X62322Y124699D01*
X62376Y124721D01*
X62442Y124754D01*
X62518Y124787D01*
X62606Y124820D01*
X62780Y124918D01*
X62791Y124929D01*
X62824Y124951D01*
X62868Y124973D01*
X62933Y125016D01*
X63087Y125137D01*
X63261Y125279D01*
X63272Y125290D01*
X63305Y125322D01*
X63349Y125366D01*
X63403Y125421D01*
X63469Y125497D01*
X63535Y125574D01*
X63688Y125760D01*
X63699Y125771D01*
X63721Y125803D01*
X63753Y125858D01*
X63808Y125935D01*
X63863Y126022D01*
X63917Y126120D01*
X64038Y126350D01*
X64048Y126361D01*
X64059Y126405D01*
X64092Y126470D01*
X64125Y126558D01*
X64169Y126656D01*
X64201Y126765D01*
X64278Y127017D01*
Y127028D01*
X64289Y127039D01*
X64300Y127104D01*
X64311Y127181D01*
X64322Y127279D01*
Y127290D01*
Y127301D01*
X64333Y127366D01*
X64344Y127454D01*
Y127552D01*
Y127563D01*
Y127585D01*
Y127629D01*
Y127683D01*
X64322Y127804D01*
X64300Y127946D01*
Y127957D01*
X64289Y127979D01*
X64278Y128011D01*
X64267Y128066D01*
X64212Y128175D01*
X64147Y128285D01*
Y128296D01*
X64125Y128306D01*
X64070Y128372D01*
X63983Y128438D01*
X63863Y128514D01*
X63852D01*
X63830Y128525D01*
X63797Y128547D01*
X63742Y128558D01*
X63677Y128580D01*
X63611Y128591D01*
X63436Y128602D01*
D02*
G37*
G36*
X60553Y136601D02*
X60531D01*
X60520Y136591D01*
X60499Y136569D01*
X60488Y136558D01*
X60455Y136503D01*
Y136492D01*
X60444Y136481D01*
X60411Y136416D01*
Y136405D01*
X60400Y136394D01*
X60346Y136339D01*
X60335D01*
X60324Y136317D01*
X60258Y136285D01*
X60247D01*
X60225Y136274D01*
X60182Y136263D01*
X60094D01*
X60018Y136285D01*
X60007Y136295D01*
X59985Y136306D01*
X59919Y136361D01*
X59908Y136372D01*
X59886Y136394D01*
X59876Y136405D01*
X59854Y136416D01*
X59832D01*
X59799Y136405D01*
X59766Y136383D01*
X59755D01*
X59733Y136361D01*
X59668Y136306D01*
X59657D01*
X59635Y136285D01*
X59559Y136230D01*
X59548Y136219D01*
X59526Y136208D01*
X59471Y136153D01*
X59460Y136143D01*
X59427Y136110D01*
X59384Y136055D01*
X59318Y135989D01*
X59253Y135913D01*
X59165Y135815D01*
X58990Y135607D01*
X58979Y135596D01*
X58947Y135552D01*
X58903Y135498D01*
X58848Y135421D01*
X58772Y135323D01*
X58695Y135224D01*
X58542Y134995D01*
X58531Y134984D01*
X58509Y134940D01*
X58477Y134886D01*
X58422Y134798D01*
X58367Y134711D01*
X58312Y134601D01*
X58192Y134361D01*
X58181Y134350D01*
X58170Y134306D01*
X58138Y134241D01*
X58105Y134164D01*
X58072Y134077D01*
X58039Y133967D01*
X57974Y133749D01*
Y133738D01*
X57963Y133716D01*
Y133683D01*
X57952Y133640D01*
X57941Y133541D01*
X57930Y133432D01*
Y133421D01*
Y133399D01*
Y133355D01*
X57941Y133312D01*
X57963Y133191D01*
X57996Y133071D01*
Y133060D01*
X58007Y133049D01*
X58050Y132984D01*
X58116Y132907D01*
X58192Y132820D01*
X58203D01*
X58214Y132809D01*
X58280Y132765D01*
X58378Y132710D01*
X58498Y132667D01*
X58509D01*
X58531Y132656D01*
X58564Y132645D01*
X58619D01*
X58739Y132623D01*
X58892Y132612D01*
X58990D01*
X59045Y132623D01*
X59121Y132634D01*
X59209Y132645D01*
X59395Y132689D01*
X59406D01*
X59438Y132700D01*
X59493Y132721D01*
X59559Y132754D01*
X59635Y132787D01*
X59723Y132820D01*
X59897Y132918D01*
X59908Y132929D01*
X59941Y132951D01*
X59985Y132973D01*
X60050Y133017D01*
X60203Y133137D01*
X60378Y133279D01*
X60389Y133290D01*
X60422Y133323D01*
X60466Y133366D01*
X60520Y133421D01*
X60586Y133497D01*
X60652Y133574D01*
X60805Y133760D01*
X60816Y133771D01*
X60837Y133803D01*
X60870Y133858D01*
X60925Y133935D01*
X60979Y134022D01*
X61034Y134120D01*
X61154Y134350D01*
X61165Y134361D01*
X61176Y134405D01*
X61209Y134470D01*
X61242Y134558D01*
X61286Y134656D01*
X61318Y134765D01*
X61395Y135017D01*
Y135028D01*
X61406Y135038D01*
X61417Y135104D01*
X61428Y135181D01*
X61439Y135279D01*
Y135290D01*
Y135301D01*
X61449Y135366D01*
X61460Y135454D01*
Y135552D01*
Y135563D01*
Y135585D01*
Y135629D01*
Y135683D01*
X61439Y135804D01*
X61417Y135946D01*
Y135957D01*
X61406Y135978D01*
X61395Y136011D01*
X61384Y136066D01*
X61329Y136175D01*
X61264Y136285D01*
Y136295D01*
X61242Y136306D01*
X61187Y136372D01*
X61100Y136438D01*
X60979Y136514D01*
X60969D01*
X60947Y136525D01*
X60914Y136547D01*
X60859Y136558D01*
X60794Y136580D01*
X60728Y136591D01*
X60553Y136601D01*
D02*
G37*
%LPD*%
D10*
X60398Y161835D02*
G03*
X60398Y161835I-205J0D01*
G01*
X78138Y147303D02*
Y147697D01*
X82862D01*
Y147303D02*
Y147697D01*
X78138Y147303D02*
X82862D01*
X77153Y144095D02*
Y145925D01*
X47051Y141685D02*
X65949D01*
X47051D02*
Y162315D01*
X65949D01*
Y141685D02*
Y162315D01*
X67327Y141842D02*
X74217D01*
X71535Y172000D02*
Y185484D01*
X40433Y172000D02*
Y185484D01*
X63465Y172000D02*
X71535D01*
X40433D02*
X48504D01*
X47339Y198965D02*
X64630D01*
D11*
X63500Y168333D02*
X66166D01*
X64833Y169666D02*
Y167000D01*
X32594Y191622D02*
Y194288D01*
X33927Y195621D01*
X35260Y194288D01*
Y191622D01*
Y193621D01*
X32594D01*
D12*
X53894Y119894D02*
Y121862D01*
X54550Y121206D01*
X55206Y121862D01*
Y119894D01*
X55862D02*
Y121862D01*
Y120550D02*
X56845Y121206D01*
X55862Y120550D02*
X56845Y119894D01*
X57829D02*
Y120222D01*
X58157D01*
Y119894D01*
X57829D01*
X59469Y121862D02*
X60125D01*
X59797D01*
Y119894D01*
X59469D01*
X60125D01*
X61109Y121862D02*
X61765D01*
X61437D01*
Y119894D01*
X61109D01*
X61765D01*
X86295Y146500D02*
X89705D01*
X90558Y147353D01*
Y149058D01*
X89705Y149911D01*
X86295D01*
X85442Y149058D01*
Y147353D01*
X87147Y148205D02*
X85442Y146500D01*
Y147353D02*
X86295Y146500D01*
X85442Y144794D02*
Y143089D01*
Y143942D01*
X90558D01*
X89705Y144794D01*
X86032Y160280D02*
X89968D01*
Y158312D01*
X89312Y157656D01*
X88000D01*
X87344Y158312D01*
Y160280D01*
Y158968D02*
X86032Y157656D01*
Y153720D02*
Y156344D01*
X88656Y153720D01*
X89312D01*
X89968Y154376D01*
Y155688D01*
X89312Y156344D01*
X24532Y159624D02*
X28468D01*
Y157656D01*
X27812Y157000D01*
X26500D01*
X25844Y157656D01*
Y159624D01*
Y158312D02*
X24532Y157000D01*
Y155688D02*
Y154376D01*
Y155032D01*
X28468D01*
X27812Y155688D01*
Y145500D02*
X28468Y146156D01*
Y147468D01*
X27812Y148124D01*
X25188D01*
X24532Y147468D01*
Y146156D01*
X25188Y145500D01*
X24532Y144188D02*
Y142876D01*
Y143532D01*
X28468D01*
X27812Y144188D01*
X39736Y168468D02*
X41048D01*
X40392D01*
Y164532D01*
X39736D01*
X41048D01*
X45640Y167812D02*
X44984Y168468D01*
X43672D01*
X43016Y167812D01*
Y165188D01*
X43672Y164532D01*
X44984D01*
X45640Y165188D01*
X46952Y164532D02*
X48264D01*
X47608D01*
Y168468D01*
X46952Y167812D01*
M02*
